<svg width="137" height="36" viewBox="0 0 137 36" fill="none" xmlns="http://www.w3.org/2000/svg">
<path d="M49.49 15.64C49.93 15.64 50.3627 15.772 50.788 16.036C51.2133 16.2853 51.5947 16.7107 51.932 17.312L54.704 16.564C54.352 15.4933 53.7287 14.5913 52.834 13.858C51.954 13.1247 50.7807 12.758 49.314 12.758C48.39 12.758 47.488 13.0147 46.608 13.528C45.728 14.0413 45.0167 14.7453 44.474 15.64C43.9313 16.52 43.66 17.488 43.66 18.544C43.66 19.7613 43.924 20.8247 44.452 21.734C44.98 22.6433 45.684 23.34 46.564 23.824C47.444 24.308 48.3973 24.55 49.424 24.55C50.6853 24.55 51.7927 24.22 52.746 23.56C53.714 22.8853 54.4033 21.9687 54.814 20.81L51.954 19.974C51.778 20.4727 51.4553 20.8833 50.986 21.206C50.5167 21.5287 50.0107 21.69 49.468 21.69C48.5733 21.69 47.8693 21.3893 47.356 20.788C46.8573 20.172 46.608 19.4167 46.608 18.522C46.608 17.8473 46.8427 17.224 47.312 16.652C47.7813 16.08 48.412 15.75 49.204 15.662L49.49 15.64ZM58.2224 20.788C58.2224 19.7907 58.2444 19.0427 58.2884 18.544C58.3324 18.0307 58.4131 17.6273 58.5304 17.334C58.6478 17.026 58.8384 16.7253 59.1024 16.432C59.5424 15.9333 60.1511 15.684 60.9284 15.684C61.4124 15.684 61.8598 15.7793 62.2704 15.97L63.0624 13.352C62.6224 13.088 62.0431 12.956 61.3244 12.956C60.8844 12.956 60.5031 13.0147 60.1804 13.132C59.6524 13.3227 59.2344 13.5573 58.9264 13.836C58.6331 14.1147 58.3984 14.474 58.2224 14.914V13.308H55.3624V24.066L58.2224 24.088V20.788ZM66.399 24.44C65.255 24.44 64.353 24.1833 63.693 23.67C63.033 23.1567 62.6443 22.4453 62.527 21.536C62.5123 21.4333 62.505 21.2867 62.505 21.096C62.505 20.0987 62.8423 19.3287 63.517 18.786C64.2063 18.2433 65.145 17.8987 66.333 17.752L67.037 17.664C67.609 17.5907 68.049 17.5247 68.357 17.466C68.6797 17.4073 68.8923 17.334 68.995 17.246C69.0537 17.202 69.105 17.1213 69.149 17.004C69.193 16.872 69.215 16.74 69.215 16.608C69.215 16.344 69.1197 16.102 68.929 15.882C68.753 15.6473 68.4523 15.4713 68.027 15.354C67.7337 15.2807 67.4843 15.244 67.279 15.244C66.751 15.244 66.311 15.398 65.959 15.706C65.607 15.9993 65.3797 16.432 65.277 17.004L62.703 16.454C62.791 15.926 63.0183 15.4053 63.385 14.892C63.7517 14.364 64.2943 13.8947 65.013 13.484C65.761 13.0733 66.619 12.868 67.587 12.868C68.247 12.868 68.885 12.978 69.501 13.198C70.469 13.5647 71.1877 14.0707 71.657 14.716C72.1263 15.3613 72.361 16.0873 72.361 16.894L72.427 24.11H69.545L69.457 22.856C69.149 23.2813 68.7383 23.6553 68.225 23.978C67.7263 24.286 67.1177 24.44 66.399 24.44ZM67.653 22.13C68.2543 21.998 68.7163 21.734 69.039 21.338C69.3617 20.942 69.523 20.48 69.523 19.952C69.523 19.8053 69.5157 19.6953 69.501 19.622C69.1637 19.6807 68.797 19.7247 68.401 19.754C68.0197 19.7687 67.7557 19.7833 67.609 19.798C67.0517 19.8273 66.6263 19.864 66.333 19.908C66.0543 19.952 65.827 20.0547 65.651 20.216C65.4897 20.3773 65.409 20.6193 65.409 20.942C65.409 21.3527 65.541 21.668 65.805 21.888C66.0837 22.108 66.4577 22.218 66.927 22.218C67.059 22.218 67.301 22.1887 67.653 22.13ZM80.1225 10.756C79.8145 10.712 79.5432 10.69 79.3085 10.69C78.6925 10.69 78.2818 10.844 78.0765 11.152C77.8712 11.4453 77.7685 11.8633 77.7685 12.406L77.7905 13.198H80.2105L80.2325 15.728H77.7685V24.088L74.7545 24.11V15.728H72.9945L72.9725 13.198H73.7865C74.1385 13.198 74.3805 13.132 74.5125 13C74.6445 12.868 74.7105 12.6187 74.7105 12.252C74.7105 11.196 74.9012 10.3893 75.2825 9.832C75.6638 9.18667 76.1992 8.666 76.8885 8.27C77.5925 7.874 78.3698 7.676 79.2205 7.676C79.7485 7.676 80.2618 7.74933 80.7605 7.896L80.1225 10.756ZM87.6422 23.78C87.5688 23.8093 87.3928 23.8753 87.1142 23.978C86.8502 24.0807 86.5788 24.1613 86.3002 24.22C86.0362 24.2787 85.7575 24.308 85.4642 24.308C85.0828 24.308 84.7162 24.2713 84.3642 24.198C83.4548 24.022 82.7728 23.5967 82.3182 22.922C81.8782 22.2473 81.6582 21.5433 81.6582 20.81V15.772H79.7662V13.242H80.9542C81.2768 13.242 81.4968 13.1907 81.6142 13.088C81.7315 12.9707 81.7902 12.78 81.7902 12.516V9.986H84.5842V13.242H87.1582V15.772H84.5622V18.984C84.5622 19.7467 84.5842 20.26 84.6282 20.524C84.6722 20.7733 84.7675 20.986 84.9142 21.162C85.1195 21.4113 85.4275 21.536 85.8382 21.536C86.2195 21.536 86.5495 21.448 86.8282 21.272L87.6422 23.78ZM100.633 20.37L98.3455 13.154H95.4415L93.1755 20.282L91.0415 13.22H87.9615L91.5035 24.11H94.6055L96.8275 16.784L99.0935 24.132H102.217L105.627 13.264H102.547L100.633 20.37ZM105.062 18.61C105.062 17.5687 105.311 16.608 105.81 15.728C106.323 14.848 107.02 14.1513 107.9 13.638C108.794 13.1247 109.777 12.868 110.848 12.868C111.918 12.868 112.894 13.1247 113.774 13.638C114.654 14.1513 115.343 14.848 115.842 15.728C116.355 16.608 116.612 17.5687 116.612 18.61C116.612 19.6513 116.355 20.6267 115.842 21.536C115.343 22.4307 114.646 23.1493 113.752 23.692C112.872 24.22 111.904 24.484 110.848 24.484C109.777 24.484 108.802 24.22 107.922 23.692C107.042 23.1493 106.345 22.4307 105.832 21.536C105.318 20.6267 105.062 19.6513 105.062 18.61ZM107.966 18.632C107.966 19.2627 108.098 19.82 108.362 20.304C108.64 20.7733 109 21.14 109.44 21.404C109.88 21.6533 110.356 21.778 110.87 21.778C111.383 21.778 111.86 21.6533 112.3 21.404C112.74 21.14 113.092 20.7733 113.356 20.304C113.62 19.82 113.752 19.2627 113.752 18.632C113.752 18.0307 113.612 17.4953 113.334 17.026C113.07 16.5567 112.718 16.19 112.278 15.926C111.838 15.662 111.368 15.53 110.87 15.53C110.371 15.53 109.894 15.662 109.44 15.926C109 16.19 108.64 16.5567 108.362 17.026C108.098 17.4953 107.966 18.0307 107.966 18.632ZM120.242 20.788C120.242 19.7907 120.264 19.0427 120.308 18.544C120.352 18.0307 120.433 17.6273 120.55 17.334C120.667 17.026 120.858 16.7253 121.122 16.432C121.562 15.9333 122.171 15.684 122.948 15.684C123.432 15.684 123.879 15.7793 124.29 15.97L125.082 13.352C124.642 13.088 124.063 12.956 123.344 12.956C122.904 12.956 122.523 13.0147 122.2 13.132C121.672 13.3227 121.254 13.5573 120.946 13.836C120.653 14.1147 120.418 14.474 120.242 14.914V13.308H117.382V24.066L120.242 24.088V20.788ZM128.441 19.182V24.11H125.405V8.006H128.463V17.444L132.357 13.176H135.899L131.565 18.258L136.493 24.11H132.577L128.441 19.182Z" fill="black"/>
<path d="M18 36C27.9411 36 36 27.9411 36 18C36 8.05888 27.9411 0 18 0C8.05888 0 0 8.05888 0 18C0 27.9411 8.05888 36 18 36Z" fill="black"/>
<path fill-rule="evenodd" clip-rule="evenodd" d="M18.0835 20.5583C21.4011 15.8667 21.5476 13.0233 18.0835 8C14.5534 13.1305 15.0084 15.8499 18.0835 20.5583ZM16.5079 26.6692C17.0353 20.9472 15.7405 18.4115 10.229 15.7932C9.73697 22.0016 11.4907 24.1292 16.5079 26.6692ZM19.6806 26.6692C19.1532 20.9472 20.448 18.4115 25.9595 15.7932C26.4515 22.0016 24.6978 24.1292 19.6806 26.6692Z" fill="white"/>
</svg>
