<svg width="122" height="33" viewBox="0 0 122 33" fill="none" xmlns="http://www.w3.org/2000/svg">
<path d="M43.8025 13.9423C42.2945 14.1186 41.4719 15.4112 41.4915 16.5275C41.5111 17.9768 42.3532 19.191 43.8612 19.3085C44.9188 19.3868 45.9176 18.721 46.2505 17.7809L48.7965 18.5251C48.0523 20.6598 46.0939 21.9524 43.7437 21.8545C41.139 21.7566 38.8672 19.7981 38.8672 16.5079C38.8672 13.629 41.374 11.3768 43.8612 11.3572C46.7206 11.3376 48.1502 13.1002 48.6986 14.7453L46.231 15.4112C45.5063 14.0794 44.4879 13.864 43.8025 13.9423ZM51.8307 21.4432L49.2847 21.4236V11.8468H51.8307V13.2765C52.1441 12.5127 52.6141 12.0426 53.5737 11.6901C54.2788 11.4355 55.4734 11.4943 56.1393 11.886L55.4343 14.2165C54.6509 13.8444 53.3583 13.7857 52.6141 14.6278C51.9482 15.3916 51.8307 15.9595 51.8307 18.5055V21.4432ZM59.1096 21.7566C60.5196 21.7566 61.4009 20.9536 61.8318 20.3465L61.9101 21.4628H64.4757L64.417 15.0391C64.417 13.6682 63.6532 12.4148 61.871 11.7489C60.5196 11.2397 58.8745 11.4355 57.8757 12.0035C56.4852 12.7869 55.9564 13.8444 55.8194 14.6474L58.1107 15.137C58.3458 13.8836 59.325 13.3548 60.5588 13.6682C61.9101 14.0207 61.6947 15.137 61.4205 15.3524C61.1463 15.5679 60.0104 15.6658 59.0508 15.8029C56.9357 16.0771 55.4473 17.0367 55.6627 19.1714C55.8781 20.7578 57.0336 21.7566 59.1096 21.7566ZM60.2259 19.7002C59.0704 19.9352 58.2282 19.5827 58.2282 18.6426C58.2282 17.3305 59.7754 17.8005 61.871 17.4676C62.0081 18.4468 61.4793 19.4456 60.2259 19.7002ZM71.3263 9.575L71.8942 7.02901C69.7203 6.40231 67.8402 7.32278 67.0177 8.75245C66.6848 9.24206 66.5085 9.98627 66.5085 10.9067C66.5085 11.5726 66.3126 11.7489 65.6859 11.7489H64.9613L64.9809 14.0011H66.5477V21.4628L69.2307 21.4432V14.0011H71.4242L71.4046 11.7489H69.2503C69.2503 10.613 68.9566 9.18331 71.3263 9.575ZM78.0204 21.169L77.2957 18.9364C76.8845 19.191 76.0423 19.3477 75.5919 18.8385C75.3177 18.5251 75.2785 18.2509 75.2785 16.8996V14.0403H77.5895V11.788H75.2981V8.88954H72.8109V11.1418C72.8109 11.5726 72.6738 11.788 72.0667 11.788H71.0091V14.0403H72.6934V18.5251C72.6934 19.6414 73.3397 21.1886 75.1023 21.5411C76.5515 21.8349 77.2566 21.4628 78.0204 21.169ZM91.2887 11.8076H94.0305L90.9949 21.4824H88.2144L86.1972 14.9412L84.2191 21.4628H81.4577L78.3046 11.7685H81.0464L82.9461 18.0551L84.9633 11.7097H87.5485L89.5848 18.1334L91.2887 11.8076ZM93.5275 16.5667C93.5275 19.3868 95.7602 21.7957 98.6783 21.7957C101.577 21.7957 103.809 19.3868 103.809 16.5667C103.809 13.7465 101.577 11.4551 98.6783 11.4551C95.7602 11.4551 93.5275 13.7465 93.5275 16.5667ZM96.1127 16.5863C96.1127 14.9412 97.3661 13.8248 98.6979 13.8248C100.03 13.8248 101.263 14.9412 101.263 16.5863C101.263 18.3489 100.03 19.3868 98.6979 19.3868C97.3661 19.3868 96.1127 18.3489 96.1127 16.5863ZM107.041 21.4432L104.495 21.4236V11.8468H107.041V13.2765C107.354 12.5127 107.824 12.0426 108.784 11.6901C109.489 11.4355 110.684 11.4943 111.349 11.886L110.644 14.2165C109.861 13.8444 108.568 13.7857 107.824 14.6278C107.158 15.3916 107.041 15.9595 107.041 18.5055V21.4432ZM118.022 21.4628H121.508L117.121 16.2533L120.979 11.7293H117.826L114.359 15.5287V7.12694H111.637V21.4628H114.34V17.0759L118.022 21.4628Z" fill="white"/>
<path fill-rule="evenodd" clip-rule="evenodd" d="M32.0474 16.0237C32.0474 24.8733 24.8733 32.0474 16.0237 32.0474C7.17405 32.0474 0 24.8733 0 16.0237C0 7.17405 7.17405 0 16.0237 0C24.8733 0 32.0474 7.17405 32.0474 16.0237ZM16.0984 18.3011C19.0517 14.1246 19.182 11.5934 16.0984 7.12164C12.9558 11.6888 13.3609 14.1097 16.0984 18.3011ZM14.6959 23.7415C15.1653 18.6478 14.0127 16.3906 9.10626 14.0598C8.66829 19.5864 10.2295 21.4804 14.6959 23.7415ZM17.5199 23.7415C17.0504 18.6478 18.2032 16.3906 23.1096 14.0598C23.5475 19.5864 21.9864 21.4804 17.5199 23.7415Z" fill="white"/>
</svg>
