<svg width="205" height="64" viewBox="0 0 205 64" fill="none" xmlns="http://www.w3.org/2000/svg">
<path d="M173.95 1L156.506 2.90962L143.001 21.6804L173.95 58.9952L204.899 21.6802L191.394 2.90962L173.95 1Z" fill="#FDB300"/>
<path d="M143 21.6821L173.949 58.9969L155.536 21.6821H143Z" fill="#EB6C00"/>
<path d="M192.361 21.6821L173.948 58.9969L204.897 21.6821H192.361Z" fill="#EB6C00"/>
<path d="M155.536 21.6821L173.949 58.9969L192.362 21.6821H155.536Z" fill="#FDAD00"/>
<path d="M156.506 2.90974L155.536 21.6817L173.949 1L156.506 2.90974Z" fill="#FDD231"/>
<path d="M192.361 21.6817L191.392 2.90974L173.948 1L192.361 21.6817Z" fill="#FDD231"/>
<path d="M192.362 21.6818H204.897L191.393 2.90979L192.362 21.6818Z" fill="#FDAD00"/>
<path d="M143 21.6818H155.536L156.505 2.90979L143 21.6818Z" fill="#FDAD00"/>
<path d="M173.949 1L155.536 21.6815H192.362L173.949 1Z" fill="#FEEEB7"/>
<path d="M10.1649 63.149C15.776 63.149 20.3299 58.4337 20.3299 52.6237V42.0984H10.1649C4.55389 42.0984 0 46.8137 0 52.6237C0 58.4337 4.55389 63.149 10.1649 63.149Z" fill="#0ACF83"/>
<path d="M0.00195312 31.5754C0.00195312 25.7654 4.55584 21.05 10.1669 21.05H20.3318V42.1007H10.1669C4.55584 42.1007 0.00195312 37.3853 0.00195312 31.5754Z" fill="#A259FF"/>
<path d="M0.000976562 10.5258C0.000976562 4.71583 4.55487 0.000488281 10.1659 0.000488281H20.3308V21.0511H10.1659C4.55487 21.0511 0.000976562 16.3358 0.000976562 10.5258Z" fill="#F24E1E"/>
<path d="M20.333 0H30.4979C36.109 0 40.6629 4.71534 40.6629 10.5253C40.6629 16.3353 36.109 21.0506 30.4979 21.0506H20.333V0Z" fill="#FF7262"/>
<path d="M40.6629 31.5751C40.6629 37.3851 36.109 42.1004 30.4979 42.1004C24.8869 42.1004 20.333 37.3851 20.333 31.5751C20.333 25.7651 24.8869 21.0498 30.4979 21.0498C36.109 21.0498 40.6629 25.7651 40.6629 31.5751Z" fill="#1ABCFE"/>
<line x1="71.3536" y1="3.64645" x2="123.354" y2="55.6464" stroke="white"/>
<line x1="70.6464" y1="55.6464" x2="122.646" y2="3.64645" stroke="white"/>
</svg>
