<svg width="320" height="280" viewBox="0 0 320 280" fill="none" xmlns="http://www.w3.org/2000/svg">
<rect width="320" height="280" rx="30"/>
<rect x="120" y="50" width="80" height="80" rx="20" fill="#FFD233"/>
<path d="M94.6635 194.288C93.0795 194.288 91.6955 193.928 90.5115 193.208C89.3275 192.488 88.4075 191.488 87.7515 190.208C87.0955 188.912 86.7675 187.408 86.7675 185.696C86.7675 183.968 87.1035 182.448 87.7755 181.136C88.4635 179.808 89.4315 178.776 90.6795 178.04C91.9435 177.288 93.4395 176.912 95.1675 176.912C97.1355 176.912 98.7675 177.384 100.064 178.328C101.36 179.272 102.2 180.576 102.584 182.24H99.1515C98.8955 181.456 98.4315 180.848 97.7595 180.416C97.0875 179.968 96.2235 179.744 95.1675 179.744C93.4875 179.744 92.1915 180.28 91.2795 181.352C90.3675 182.408 89.9115 183.864 89.9115 185.72C89.9115 187.576 90.3595 189.016 91.2555 190.04C92.1675 191.048 93.3995 191.552 94.9515 191.552C96.4715 191.552 97.6155 191.144 98.3835 190.328C99.1675 189.496 99.6395 188.408 99.7995 187.064H95.5515V184.76H102.896V194H100.064L99.8235 191.792C99.2795 192.592 98.5995 193.208 97.7835 193.64C96.9675 194.072 95.9275 194.288 94.6635 194.288ZM105.31 194V176.72H108.382V194H105.31ZM116.733 194.288C115.581 194.288 114.541 194.024 113.613 193.496C112.701 192.968 111.973 192.24 111.429 191.312C110.901 190.368 110.637 189.28 110.637 188.048C110.637 186.816 110.909 185.736 111.453 184.808C111.997 183.864 112.725 183.128 113.637 182.6C114.565 182.072 115.605 181.808 116.757 181.808C117.893 181.808 118.917 182.072 119.829 182.6C120.757 183.128 121.485 183.864 122.013 184.808C122.557 185.736 122.829 186.816 122.829 188.048C122.829 189.28 122.557 190.368 122.013 191.312C121.485 192.24 120.757 192.968 119.829 193.496C118.901 194.024 117.869 194.288 116.733 194.288ZM116.733 191.624C117.533 191.624 118.229 191.328 118.821 190.736C119.413 190.128 119.709 189.232 119.709 188.048C119.709 186.864 119.413 185.976 118.821 185.384C118.229 184.776 117.541 184.472 116.757 184.472C115.941 184.472 115.237 184.776 114.645 185.384C114.069 185.976 113.781 186.864 113.781 188.048C113.781 189.232 114.069 190.128 114.645 190.736C115.237 191.328 115.933 191.624 116.733 191.624ZM132.132 194.288C131.236 194.288 130.452 194.12 129.78 193.784C129.108 193.448 128.564 192.976 128.148 192.368L127.812 194H125.076V176.72H128.148V183.8C128.532 183.272 129.036 182.808 129.66 182.408C130.3 182.008 131.124 181.808 132.132 181.808C133.252 181.808 134.252 182.08 135.132 182.624C136.012 183.168 136.708 183.912 137.22 184.856C137.732 185.8 137.988 186.872 137.988 188.072C137.988 189.272 137.732 190.344 137.22 191.288C136.708 192.216 136.012 192.952 135.132 193.496C134.252 194.024 133.252 194.288 132.132 194.288ZM131.484 191.6C132.46 191.6 133.268 191.272 133.908 190.616C134.548 189.96 134.868 189.112 134.868 188.072C134.868 187.032 134.548 186.176 133.908 185.504C133.268 184.832 132.46 184.496 131.484 184.496C130.492 184.496 129.676 184.832 129.036 185.504C128.412 186.16 128.1 187.008 128.1 188.048C128.1 189.088 128.412 189.944 129.036 190.616C129.676 191.272 130.492 191.6 131.484 191.6ZM144.336 194.288C143.312 194.288 142.472 194.128 141.816 193.808C141.16 193.472 140.672 193.032 140.352 192.488C140.032 191.944 139.872 191.344 139.872 190.688C139.872 189.584 140.304 188.688 141.168 188C142.032 187.312 143.328 186.968 145.056 186.968H148.08V186.68C148.08 185.864 147.848 185.264 147.384 184.88C146.92 184.496 146.344 184.304 145.656 184.304C145.032 184.304 144.488 184.456 144.024 184.76C143.56 185.048 143.272 185.48 143.16 186.056H140.16C140.24 185.192 140.528 184.44 141.024 183.8C141.536 183.16 142.192 182.672 142.992 182.336C143.792 181.984 144.688 181.808 145.68 181.808C147.376 181.808 148.712 182.232 149.688 183.08C150.664 183.928 151.152 185.128 151.152 186.68V194H148.536L148.248 192.08C147.896 192.72 147.4 193.248 146.76 193.664C146.136 194.08 145.328 194.288 144.336 194.288ZM145.032 191.888C145.912 191.888 146.592 191.6 147.072 191.024C147.568 190.448 147.88 189.736 148.008 188.888H145.392C144.576 188.888 143.992 189.04 143.64 189.344C143.288 189.632 143.112 189.992 143.112 190.424C143.112 190.888 143.288 191.248 143.64 191.504C143.992 191.76 144.456 191.888 145.032 191.888ZM153.583 194V176.72H156.655V194H153.583ZM168.497 194V179.672H163.601V177.2H176.489V179.672H171.569V194H168.497ZM181.821 194.288C180.621 194.288 179.557 194.032 178.629 193.52C177.701 193.008 176.973 192.288 176.445 191.36C175.917 190.432 175.653 189.36 175.653 188.144C175.653 186.912 175.909 185.816 176.421 184.856C176.949 183.896 177.669 183.152 178.581 182.624C179.509 182.08 180.597 181.808 181.845 181.808C183.013 181.808 184.045 182.064 184.941 182.576C185.837 183.088 186.533 183.792 187.029 184.688C187.541 185.568 187.797 186.552 187.797 187.64C187.797 187.816 187.789 188 187.773 188.192C187.773 188.384 187.765 188.584 187.749 188.792H178.701C178.765 189.72 179.085 190.448 179.661 190.976C180.253 191.504 180.965 191.768 181.797 191.768C182.421 191.768 182.941 191.632 183.357 191.36C183.789 191.072 184.109 190.704 184.317 190.256H187.437C187.213 191.008 186.837 191.696 186.309 192.32C185.797 192.928 185.157 193.408 184.389 193.76C183.637 194.112 182.781 194.288 181.821 194.288ZM181.845 184.304C181.093 184.304 180.429 184.52 179.853 184.952C179.277 185.368 178.909 186.008 178.749 186.872H184.677C184.629 186.088 184.341 185.464 183.813 185C183.285 184.536 182.629 184.304 181.845 184.304ZM187.932 194L192.252 188.048L187.932 182.096H191.22L194.244 186.32L197.244 182.096H200.556L196.212 188.048L200.556 194H197.244L194.244 189.776L191.22 194H187.932ZM207.317 194C206.069 194 205.069 193.696 204.317 193.088C203.565 192.48 203.189 191.4 203.189 189.848V184.664H201.149V182.096H203.189L203.549 178.904H206.261V182.096H209.477V184.664H206.261V189.872C206.261 190.448 206.381 190.848 206.621 191.072C206.877 191.28 207.309 191.384 207.917 191.384H209.405V194H207.317ZM222.281 194.264C221.049 194.264 219.977 194.056 219.065 193.64C218.153 193.208 217.441 192.608 216.929 191.84C216.433 191.072 216.185 190.176 216.185 189.152C216.185 188.064 216.489 187.08 217.097 186.2C217.705 185.32 218.609 184.616 219.809 184.088C219.329 183.528 218.985 183 218.777 182.504C218.569 182.008 218.465 181.48 218.465 180.92C218.465 180.152 218.657 179.472 219.041 178.88C219.425 178.272 219.969 177.792 220.673 177.44C221.393 177.088 222.249 176.912 223.241 176.912C224.249 176.912 225.105 177.096 225.809 177.464C226.513 177.832 227.041 178.328 227.393 178.952C227.761 179.576 227.929 180.272 227.897 181.04H224.969C224.969 180.448 224.793 180.008 224.441 179.72C224.105 179.416 223.697 179.264 223.217 179.264C222.673 179.264 222.233 179.416 221.897 179.72C221.577 180.024 221.417 180.416 221.417 180.896C221.417 181.296 221.545 181.704 221.801 182.12C222.057 182.536 222.433 183.016 222.929 183.56L227.633 188.216C227.969 187.672 228.321 187.04 228.689 186.32L229.217 185.264H232.361L231.521 186.896C230.881 188.192 230.241 189.288 229.601 190.184L233.465 194H229.793L227.921 192.128C227.105 192.88 226.233 193.424 225.305 193.76C224.393 194.096 223.385 194.264 222.281 194.264ZM219.161 188.96C219.161 189.744 219.449 190.408 220.025 190.952C220.617 191.48 221.401 191.744 222.377 191.744C223.769 191.744 224.977 191.248 226.001 190.256L221.561 185.864C220.745 186.216 220.137 186.656 219.737 187.184C219.353 187.712 219.161 188.304 219.161 188.96ZM101.412 225.288C99.7159 225.288 98.2599 224.928 97.0439 224.208C95.8279 223.472 94.8919 222.456 94.2359 221.16C93.5799 219.848 93.2519 218.336 93.2519 216.624C93.2519 214.912 93.5799 213.4 94.2359 212.088C94.8919 210.776 95.8279 209.752 97.0439 209.016C98.2599 208.28 99.7159 207.912 101.412 207.912C103.428 207.912 105.076 208.416 106.356 209.424C107.652 210.416 108.46 211.816 108.78 213.624H105.396C105.188 212.712 104.74 212 104.052 211.488C103.38 210.96 102.484 210.696 101.364 210.696C99.8119 210.696 98.5959 211.224 97.7159 212.28C96.8359 213.336 96.3959 214.784 96.3959 216.624C96.3959 218.464 96.8359 219.912 97.7159 220.968C98.5959 222.008 99.8119 222.528 101.364 222.528C102.484 222.528 103.38 222.288 104.052 221.808C104.74 221.312 105.188 220.632 105.396 219.768H108.78C108.46 221.496 107.652 222.848 106.356 223.824C105.076 224.8 103.428 225.288 101.412 225.288ZM116.639 225.288C115.487 225.288 114.447 225.024 113.519 224.496C112.607 223.968 111.879 223.24 111.335 222.312C110.807 221.368 110.543 220.28 110.543 219.048C110.543 217.816 110.815 216.736 111.359 215.808C111.903 214.864 112.631 214.128 113.543 213.6C114.471 213.072 115.511 212.808 116.663 212.808C117.799 212.808 118.823 213.072 119.735 213.6C120.663 214.128 121.391 214.864 121.919 215.808C122.463 216.736 122.735 217.816 122.735 219.048C122.735 220.28 122.463 221.368 121.919 222.312C121.391 223.24 120.663 223.968 119.735 224.496C118.807 225.024 117.775 225.288 116.639 225.288ZM116.639 222.624C117.439 222.624 118.135 222.328 118.727 221.736C119.319 221.128 119.615 220.232 119.615 219.048C119.615 217.864 119.319 216.976 118.727 216.384C118.135 215.776 117.447 215.472 116.663 215.472C115.847 215.472 115.143 215.776 114.551 216.384C113.975 216.976 113.687 217.864 113.687 219.048C113.687 220.232 113.975 221.128 114.551 221.736C115.143 222.328 115.839 222.624 116.639 222.624ZM124.982 225V207.72H128.054V225H124.982ZM136.405 225.288C135.253 225.288 134.213 225.024 133.285 224.496C132.373 223.968 131.645 223.24 131.101 222.312C130.573 221.368 130.309 220.28 130.309 219.048C130.309 217.816 130.581 216.736 131.125 215.808C131.669 214.864 132.397 214.128 133.309 213.6C134.237 213.072 135.277 212.808 136.429 212.808C137.565 212.808 138.589 213.072 139.501 213.6C140.429 214.128 141.157 214.864 141.685 215.808C142.229 216.736 142.501 217.816 142.501 219.048C142.501 220.28 142.229 221.368 141.685 222.312C141.157 223.24 140.429 223.968 139.501 224.496C138.573 225.024 137.541 225.288 136.405 225.288ZM136.405 222.624C137.205 222.624 137.901 222.328 138.493 221.736C139.085 221.128 139.381 220.232 139.381 219.048C139.381 217.864 139.085 216.976 138.493 216.384C137.901 215.776 137.213 215.472 136.429 215.472C135.613 215.472 134.909 215.776 134.317 216.384C133.741 216.976 133.453 217.864 133.453 219.048C133.453 220.232 133.741 221.128 134.317 221.736C134.909 222.328 135.605 222.624 136.405 222.624ZM144.748 225V213.096H147.484L147.772 215.328C148.204 214.56 148.788 213.952 149.523 213.504C150.276 213.04 151.156 212.808 152.164 212.808V216.048H151.3C150.628 216.048 150.028 216.152 149.5 216.36C148.972 216.568 148.556 216.928 148.252 217.44C147.964 217.952 147.82 218.664 147.82 219.576V225H144.748ZM164.79 225.288C163.558 225.288 162.47 225.08 161.526 224.664C160.582 224.232 159.838 223.624 159.294 222.84C158.75 222.04 158.47 221.072 158.454 219.936H161.694C161.726 220.72 162.006 221.384 162.534 221.928C163.078 222.456 163.822 222.72 164.766 222.72C165.582 222.72 166.23 222.528 166.71 222.144C167.19 221.744 167.43 221.216 167.43 220.56C167.43 219.872 167.214 219.336 166.782 218.952C166.366 218.568 165.806 218.256 165.102 218.016C164.398 217.776 163.646 217.52 162.846 217.248C161.55 216.8 160.558 216.224 159.87 215.52C159.198 214.816 158.862 213.88 158.862 212.712C158.846 211.72 159.078 210.872 159.558 210.168C160.054 209.448 160.726 208.896 161.574 208.512C162.422 208.112 163.398 207.912 164.502 207.912C165.622 207.912 166.606 208.112 167.454 208.512C168.318 208.912 168.99 209.472 169.47 210.192C169.966 210.912 170.23 211.768 170.262 212.76H166.974C166.958 212.168 166.726 211.648 166.278 211.2C165.846 210.736 165.238 210.504 164.454 210.504C163.782 210.488 163.214 210.656 162.75 211.008C162.302 211.344 162.078 211.84 162.078 212.496C162.078 213.056 162.254 213.504 162.606 213.84C162.958 214.16 163.438 214.432 164.046 214.656C164.654 214.88 165.35 215.12 166.134 215.376C166.966 215.664 167.726 216 168.414 216.384C169.102 216.768 169.654 217.28 170.07 217.92C170.486 218.544 170.694 219.352 170.694 220.344C170.694 221.224 170.47 222.04 170.022 222.792C169.574 223.544 168.91 224.152 168.03 224.616C167.15 225.064 166.07 225.288 164.79 225.288ZM178.106 225C176.858 225 175.858 224.696 175.106 224.088C174.354 223.48 173.978 222.4 173.978 220.848V215.664H171.938V213.096H173.978L174.338 209.904H177.05V213.096H180.266V215.664H177.05V220.872C177.05 221.448 177.17 221.848 177.41 222.072C177.666 222.28 178.098 222.384 178.706 222.384H180.194V225H178.106ZM183.892 230.28L186.652 224.208H185.932L181.3 213.096H184.636L187.972 221.472L191.452 213.096H194.716L187.156 230.28H183.892ZM196.224 225V207.72H199.296V225H196.224ZM207.719 225.288C206.519 225.288 205.455 225.032 204.527 224.52C203.599 224.008 202.871 223.288 202.343 222.36C201.815 221.432 201.551 220.36 201.551 219.144C201.551 217.912 201.807 216.816 202.319 215.856C202.847 214.896 203.567 214.152 204.479 213.624C205.407 213.08 206.495 212.808 207.743 212.808C208.911 212.808 209.943 213.064 210.839 213.576C211.735 214.088 212.431 214.792 212.927 215.688C213.439 216.568 213.695 217.552 213.695 218.64C213.695 218.816 213.687 219 213.671 219.192C213.671 219.384 213.663 219.584 213.647 219.792H204.599C204.663 220.72 204.983 221.448 205.559 221.976C206.151 222.504 206.863 222.768 207.695 222.768C208.319 222.768 208.839 222.632 209.255 222.36C209.687 222.072 210.007 221.704 210.215 221.256H213.335C213.111 222.008 212.735 222.696 212.207 223.32C211.695 223.928 211.055 224.408 210.287 224.76C209.535 225.112 208.679 225.288 207.719 225.288ZM207.743 215.304C206.991 215.304 206.327 215.52 205.751 215.952C205.175 216.368 204.807 217.008 204.647 217.872H210.575C210.527 217.088 210.239 216.464 209.711 216C209.183 215.536 208.527 215.304 207.743 215.304ZM220.699 225.288C219.643 225.288 218.715 225.12 217.915 224.784C217.115 224.432 216.475 223.952 215.995 223.344C215.515 222.736 215.227 222.032 215.131 221.232H218.227C218.323 221.696 218.579 222.096 218.995 222.432C219.427 222.752 219.979 222.912 220.651 222.912C221.323 222.912 221.811 222.776 222.115 222.504C222.435 222.232 222.595 221.92 222.595 221.568C222.595 221.056 222.371 220.712 221.923 220.536C221.475 220.344 220.851 220.16 220.051 219.984C219.539 219.872 219.019 219.736 218.491 219.576C217.963 219.416 217.475 219.216 217.027 218.976C216.595 218.72 216.243 218.4 215.971 218.016C215.699 217.616 215.563 217.128 215.563 216.552C215.563 215.496 215.979 214.608 216.811 213.888C217.659 213.168 218.843 212.808 220.363 212.808C221.771 212.808 222.891 213.136 223.723 213.792C224.571 214.448 225.075 215.352 225.235 216.504H222.331C222.155 215.624 221.491 215.184 220.339 215.184C219.763 215.184 219.315 215.296 218.995 215.52C218.691 215.744 218.539 216.024 218.539 216.36C218.539 216.712 218.771 216.992 219.235 217.2C219.699 217.408 220.315 217.6 221.083 217.776C221.915 217.968 222.675 218.184 223.363 218.424C224.067 218.648 224.627 218.992 225.043 219.456C225.459 219.904 225.667 220.552 225.667 221.4C225.683 222.136 225.491 222.8 225.091 223.392C224.691 223.984 224.115 224.448 223.363 224.784C222.611 225.12 221.723 225.288 220.699 225.288Z" fill="#141414"/>
<path d="M160 72.5001C156.539 72.5001 153.155 73.5265 150.277 75.4494C147.4 77.3724 145.157 80.1055 143.832 83.3031C142.508 86.5008 142.161 90.0194 142.836 93.4141C143.511 96.8087 145.178 99.9269 147.625 102.374C149.248 104.012 151.177 105.314 153.304 106.204C155.431 107.094 157.712 107.555 160.018 107.561C162.323 107.567 164.607 107.117 166.738 106.237C168.869 105.357 170.805 104.065 172.435 102.435C174.065 100.805 175.357 98.869 176.237 96.738C177.116 94.6071 177.566 92.3233 177.561 90.0179C177.555 87.7125 177.094 85.431 176.204 83.3044C175.314 81.1777 174.012 79.248 172.374 77.6258C170.753 75.9957 168.824 74.7033 166.7 73.8235C164.576 72.9436 162.299 72.4938 160 72.5001ZM145 90.0001C145 81.729 151.729 75.0001 160 75.0001V105C151.729 105 145 98.2712 145 90.0001Z" fill="white"/>
</svg>
