<svg width="320" height="280" viewBox="0 0 320 280" fill="none" xmlns="http://www.w3.org/2000/svg">
<rect width="320" height="280" rx="30"/>
<rect x="120" y="50" width="80" height="80" rx="20" fill="#EE69D1"/>
<path d="M61.7478 194.288C60.0518 194.288 58.5958 193.928 57.3798 193.208C56.1638 192.472 55.2278 191.456 54.5718 190.16C53.9158 188.848 53.5878 187.336 53.5878 185.624C53.5878 183.912 53.9158 182.4 54.5718 181.088C55.2278 179.776 56.1638 178.752 57.3798 178.016C58.5958 177.28 60.0518 176.912 61.7478 176.912C63.7638 176.912 65.4118 177.416 66.6918 178.424C67.9878 179.416 68.7958 180.816 69.1158 182.624H65.7318C65.5238 181.712 65.0758 181 64.3878 180.488C63.7158 179.96 62.8198 179.696 61.6998 179.696C60.1478 179.696 58.9318 180.224 58.0518 181.28C57.1718 182.336 56.7318 183.784 56.7318 185.624C56.7318 187.464 57.1718 188.912 58.0518 189.968C58.9318 191.008 60.1478 191.528 61.6998 191.528C62.8198 191.528 63.7158 191.288 64.3878 190.808C65.0758 190.312 65.5238 189.632 65.7318 188.768H69.1158C68.7958 190.496 67.9878 191.848 66.6918 192.824C65.4118 193.8 63.7638 194.288 61.7478 194.288ZM71.2631 194V182.096H73.9991L74.2871 184.328C74.7191 183.56 75.3031 182.952 76.0391 182.504C76.7911 182.04 77.6711 181.808 78.6791 181.808V185.048H77.8151C77.1431 185.048 76.5431 185.152 76.0151 185.36C75.4871 185.568 75.0711 185.928 74.7671 186.44C74.4791 186.952 74.3351 187.664 74.3351 188.576V194H71.2631ZM85.7798 194.288C84.6278 194.288 83.5878 194.024 82.6598 193.496C81.7478 192.968 81.0198 192.24 80.4758 191.312C79.9478 190.368 79.6838 189.28 79.6838 188.048C79.6838 186.816 79.9558 185.736 80.4998 184.808C81.0438 183.864 81.7718 183.128 82.6838 182.6C83.6118 182.072 84.6518 181.808 85.8038 181.808C86.9398 181.808 87.9638 182.072 88.8758 182.6C89.8038 183.128 90.5318 183.864 91.0598 184.808C91.6038 185.736 91.8758 186.816 91.8758 188.048C91.8758 189.28 91.6038 190.368 91.0598 191.312C90.5318 192.24 89.8038 192.968 88.8758 193.496C87.9478 194.024 86.9158 194.288 85.7798 194.288ZM85.7798 191.624C86.5798 191.624 87.2758 191.328 87.8678 190.736C88.4598 190.128 88.7558 189.232 88.7558 188.048C88.7558 186.864 88.4598 185.976 87.8678 185.384C87.2758 184.776 86.5878 184.472 85.8038 184.472C84.9878 184.472 84.2838 184.776 83.6918 185.384C83.1158 185.976 82.8278 186.864 82.8278 188.048C82.8278 189.232 83.1158 190.128 83.6918 190.736C84.2838 191.328 84.9798 191.624 85.7798 191.624ZM99.0425 194.288C97.9865 194.288 97.0585 194.12 96.2585 193.784C95.4585 193.432 94.8185 192.952 94.3385 192.344C93.8585 191.736 93.5705 191.032 93.4745 190.232H96.5705C96.6665 190.696 96.9225 191.096 97.3385 191.432C97.7705 191.752 98.3225 191.912 98.9945 191.912C99.6665 191.912 100.155 191.776 100.459 191.504C100.779 191.232 100.939 190.92 100.939 190.568C100.939 190.056 100.715 189.712 100.267 189.536C99.8185 189.344 99.1945 189.16 98.3945 188.984C97.8825 188.872 97.3625 188.736 96.8345 188.576C96.3065 188.416 95.8185 188.216 95.3705 187.976C94.9385 187.72 94.5865 187.4 94.3145 187.016C94.0425 186.616 93.9065 186.128 93.9065 185.552C93.9065 184.496 94.3225 183.608 95.1545 182.888C96.0025 182.168 97.1865 181.808 98.7065 181.808C100.115 181.808 101.235 182.136 102.067 182.792C102.915 183.448 103.419 184.352 103.579 185.504H100.675C100.499 184.624 99.8345 184.184 98.6825 184.184C98.1065 184.184 97.6585 184.296 97.3385 184.52C97.0345 184.744 96.8825 185.024 96.8825 185.36C96.8825 185.712 97.1145 185.992 97.5785 186.2C98.0425 186.408 98.6585 186.6 99.4265 186.776C100.259 186.968 101.019 187.184 101.707 187.424C102.411 187.648 102.971 187.992 103.387 188.456C103.803 188.904 104.011 189.552 104.011 190.4C104.027 191.136 103.835 191.8 103.435 192.392C103.035 192.984 102.459 193.448 101.707 193.784C100.955 194.12 100.067 194.288 99.0425 194.288ZM111.152 194.288C110.096 194.288 109.168 194.12 108.368 193.784C107.568 193.432 106.928 192.952 106.448 192.344C105.968 191.736 105.68 191.032 105.584 190.232H108.68C108.776 190.696 109.032 191.096 109.448 191.432C109.88 191.752 110.432 191.912 111.104 191.912C111.776 191.912 112.264 191.776 112.568 191.504C112.888 191.232 113.048 190.92 113.048 190.568C113.048 190.056 112.824 189.712 112.376 189.536C111.928 189.344 111.304 189.16 110.504 188.984C109.992 188.872 109.472 188.736 108.944 188.576C108.416 188.416 107.928 188.216 107.48 187.976C107.048 187.72 106.696 187.4 106.424 187.016C106.152 186.616 106.016 186.128 106.016 185.552C106.016 184.496 106.432 183.608 107.264 182.888C108.112 182.168 109.296 181.808 110.816 181.808C112.224 181.808 113.344 182.136 114.176 182.792C115.024 183.448 115.528 184.352 115.688 185.504H112.784C112.608 184.624 111.944 184.184 110.792 184.184C110.216 184.184 109.768 184.296 109.448 184.52C109.144 184.744 108.992 185.024 108.992 185.36C108.992 185.712 109.224 185.992 109.688 186.2C110.152 186.408 110.768 186.6 111.536 186.776C112.368 186.968 113.128 187.184 113.816 187.424C114.52 187.648 115.08 187.992 115.496 188.456C115.912 188.904 116.12 189.552 116.12 190.4C116.136 191.136 115.944 191.8 115.544 192.392C115.144 192.984 114.568 193.448 113.816 193.784C113.064 194.12 112.176 194.288 111.152 194.288ZM118.341 199.28V182.096H121.077L121.413 183.8C121.797 183.272 122.301 182.808 122.925 182.408C123.565 182.008 124.389 181.808 125.397 181.808C126.517 181.808 127.517 182.08 128.397 182.624C129.277 183.168 129.973 183.912 130.485 184.856C130.997 185.8 131.253 186.872 131.253 188.072C131.253 189.272 130.997 190.344 130.485 191.288C129.973 192.216 129.277 192.952 128.397 193.496C127.517 194.024 126.517 194.288 125.397 194.288C124.501 194.288 123.717 194.12 123.045 193.784C122.373 193.448 121.829 192.976 121.413 192.368V199.28H118.341ZM124.749 191.6C125.725 191.6 126.533 191.272 127.173 190.616C127.813 189.96 128.133 189.112 128.133 188.072C128.133 187.032 127.813 186.176 127.173 185.504C126.533 184.832 125.725 184.496 124.749 184.496C123.757 184.496 122.941 184.832 122.301 185.504C121.677 186.16 121.365 187.008 121.365 188.048C121.365 189.088 121.677 189.944 122.301 190.616C122.941 191.272 123.757 191.6 124.749 191.6ZM133.498 194V176.72H136.57V194H133.498ZM143.312 194.288C142.288 194.288 141.448 194.128 140.792 193.808C140.136 193.472 139.648 193.032 139.328 192.488C139.008 191.944 138.848 191.344 138.848 190.688C138.848 189.584 139.28 188.688 140.144 188C141.008 187.312 142.304 186.968 144.032 186.968H147.056V186.68C147.056 185.864 146.824 185.264 146.36 184.88C145.896 184.496 145.32 184.304 144.632 184.304C144.008 184.304 143.464 184.456 143 184.76C142.536 185.048 142.248 185.48 142.136 186.056H139.136C139.216 185.192 139.504 184.44 140 183.8C140.512 183.16 141.168 182.672 141.968 182.336C142.768 181.984 143.664 181.808 144.656 181.808C146.352 181.808 147.688 182.232 148.664 183.08C149.64 183.928 150.128 185.128 150.128 186.68V194H147.512L147.224 192.08C146.872 192.72 146.376 193.248 145.736 193.664C145.112 194.08 144.304 194.288 143.312 194.288ZM144.008 191.888C144.888 191.888 145.568 191.6 146.048 191.024C146.544 190.448 146.856 189.736 146.984 188.888H144.368C143.552 188.888 142.968 189.04 142.616 189.344C142.264 189.632 142.088 189.992 142.088 190.424C142.088 190.888 142.264 191.248 142.616 191.504C142.968 191.76 143.432 191.888 144.008 191.888ZM157.7 194C156.452 194 155.452 193.696 154.7 193.088C153.948 192.48 153.572 191.4 153.572 189.848V184.664H151.532V182.096H153.572L153.932 178.904H156.644V182.096H159.86V184.664H156.644V189.872C156.644 190.448 156.764 190.848 157.004 191.072C157.26 191.28 157.692 191.384 158.3 191.384H159.788V194H157.7ZM162.55 194V184.664H160.918V182.096H162.55V180.704C162.55 179.264 162.91 178.24 163.63 177.632C164.366 177.024 165.358 176.72 166.605 176.72H167.926V179.336H167.086C166.558 179.336 166.182 179.44 165.958 179.648C165.734 179.856 165.622 180.208 165.622 180.704V182.096H168.19V184.664H165.622V194H162.55ZM175.366 194.288C174.214 194.288 173.174 194.024 172.246 193.496C171.334 192.968 170.606 192.24 170.062 191.312C169.534 190.368 169.27 189.28 169.27 188.048C169.27 186.816 169.542 185.736 170.086 184.808C170.63 183.864 171.358 183.128 172.27 182.6C173.198 182.072 174.238 181.808 175.39 181.808C176.526 181.808 177.55 182.072 178.462 182.6C179.39 183.128 180.118 183.864 180.646 184.808C181.19 185.736 181.462 186.816 181.462 188.048C181.462 189.28 181.19 190.368 180.646 191.312C180.118 192.24 179.39 192.968 178.462 193.496C177.534 194.024 176.502 194.288 175.366 194.288ZM175.366 191.624C176.166 191.624 176.862 191.328 177.454 190.736C178.046 190.128 178.342 189.232 178.342 188.048C178.342 186.864 178.046 185.976 177.454 185.384C176.862 184.776 176.174 184.472 175.39 184.472C174.574 184.472 173.87 184.776 173.278 185.384C172.702 185.976 172.414 186.864 172.414 188.048C172.414 189.232 172.702 190.128 173.278 190.736C173.87 191.328 174.566 191.624 175.366 191.624ZM183.708 194V182.096H186.444L186.732 184.328C187.164 183.56 187.748 182.952 188.484 182.504C189.236 182.04 190.116 181.808 191.124 181.808V185.048H190.26C189.588 185.048 188.988 185.152 188.46 185.36C187.932 185.568 187.516 185.928 187.212 186.44C186.924 186.952 186.78 187.664 186.78 188.576V194H183.708ZM192.724 194V182.096H195.436L195.7 183.704C196.084 183.128 196.588 182.672 197.212 182.336C197.852 181.984 198.588 181.808 199.42 181.808C201.26 181.808 202.564 182.52 203.332 183.944C203.764 183.288 204.34 182.768 205.06 182.384C205.796 182 206.596 181.808 207.46 181.808C209.012 181.808 210.204 182.272 211.036 183.2C211.868 184.128 212.284 185.488 212.284 187.28V194H209.212V187.568C209.212 186.544 209.012 185.76 208.612 185.216C208.228 184.672 207.628 184.4 206.812 184.4C205.98 184.4 205.308 184.704 204.796 185.312C204.3 185.92 204.052 186.768 204.052 187.856V194H200.98V187.568C200.98 186.544 200.78 185.76 200.38 185.216C199.98 184.672 199.364 184.4 198.532 184.4C197.716 184.4 197.052 184.704 196.54 185.312C196.044 185.92 195.796 186.768 195.796 187.856V194H192.724ZM227.335 194.288C225.751 194.288 224.367 193.928 223.183 193.208C221.999 192.488 221.079 191.488 220.423 190.208C219.767 188.912 219.439 187.408 219.439 185.696C219.439 183.968 219.775 182.448 220.447 181.136C221.135 179.808 222.103 178.776 223.351 178.04C224.615 177.288 226.111 176.912 227.839 176.912C229.807 176.912 231.439 177.384 232.735 178.328C234.031 179.272 234.871 180.576 235.255 182.24H231.823C231.567 181.456 231.103 180.848 230.431 180.416C229.759 179.968 228.895 179.744 227.839 179.744C226.159 179.744 224.863 180.28 223.951 181.352C223.039 182.408 222.583 183.864 222.583 185.72C222.583 187.576 223.031 189.016 223.927 190.04C224.839 191.048 226.071 191.552 227.623 191.552C229.143 191.552 230.287 191.144 231.055 190.328C231.839 189.496 232.311 188.408 232.471 187.064H228.223V184.76H235.567V194H232.735L232.495 191.792C231.951 192.592 231.271 193.208 230.455 193.64C229.639 194.072 228.599 194.288 227.335 194.288ZM237.982 194V182.096H240.718L241.006 184.328C241.438 183.56 242.022 182.952 242.758 182.504C243.51 182.04 244.39 181.808 245.398 181.808V185.048H244.534C243.862 185.048 243.262 185.152 242.734 185.36C242.206 185.568 241.79 185.928 241.486 186.44C241.198 186.952 241.054 187.664 241.054 188.576V194H237.982ZM248.654 180.248C248.094 180.248 247.63 180.08 247.262 179.744C246.91 179.408 246.734 178.984 246.734 178.472C246.734 177.96 246.91 177.544 247.262 177.224C247.63 176.888 248.094 176.72 248.654 176.72C249.214 176.72 249.67 176.888 250.022 177.224C250.39 177.544 250.574 177.96 250.574 178.472C250.574 178.984 250.39 179.408 250.022 179.744C249.67 180.08 249.214 180.248 248.654 180.248ZM247.118 194V182.096H250.19V194H247.118ZM258.368 194.288C257.248 194.288 256.248 194.016 255.368 193.472C254.488 192.928 253.792 192.184 253.28 191.24C252.768 190.296 252.512 189.224 252.512 188.024C252.512 186.824 252.768 185.76 253.28 184.832C253.792 183.888 254.488 183.152 255.368 182.624C256.248 182.08 257.248 181.808 258.368 181.808C259.264 181.808 260.048 181.976 260.72 182.312C261.392 182.648 261.936 183.12 262.352 183.728V176.72H265.424V194H262.688L262.352 192.296C261.968 192.824 261.456 193.288 260.816 193.688C260.192 194.088 259.376 194.288 258.368 194.288ZM259.016 191.6C260.008 191.6 260.816 191.272 261.44 190.616C262.08 189.944 262.4 189.088 262.4 188.048C262.4 187.008 262.08 186.16 261.44 185.504C260.816 184.832 260.008 184.496 259.016 184.496C258.04 184.496 257.232 184.824 256.592 185.48C255.952 186.136 255.632 186.984 255.632 188.024C255.632 189.064 255.952 189.92 256.592 190.592C257.232 191.264 258.04 191.6 259.016 191.6ZM114.317 225.288C113.085 225.288 111.997 225.08 111.053 224.664C110.109 224.232 109.365 223.624 108.821 222.84C108.277 222.04 107.997 221.072 107.981 219.936H111.221C111.253 220.72 111.533 221.384 112.061 221.928C112.605 222.456 113.349 222.72 114.293 222.72C115.109 222.72 115.757 222.528 116.237 222.144C116.717 221.744 116.957 221.216 116.957 220.56C116.957 219.872 116.741 219.336 116.309 218.952C115.893 218.568 115.333 218.256 114.629 218.016C113.925 217.776 113.173 217.52 112.373 217.248C111.077 216.8 110.085 216.224 109.397 215.52C108.725 214.816 108.389 213.88 108.389 212.712C108.373 211.72 108.605 210.872 109.085 210.168C109.581 209.448 110.253 208.896 111.101 208.512C111.949 208.112 112.925 207.912 114.029 207.912C115.149 207.912 116.133 208.112 116.981 208.512C117.845 208.912 118.517 209.472 118.997 210.192C119.493 210.912 119.757 211.768 119.789 212.76H116.501C116.485 212.168 116.253 211.648 115.805 211.2C115.373 210.736 114.765 210.504 113.981 210.504C113.309 210.488 112.741 210.656 112.277 211.008C111.829 211.344 111.605 211.84 111.605 212.496C111.605 213.056 111.781 213.504 112.133 213.84C112.485 214.16 112.965 214.432 113.573 214.656C114.181 214.88 114.877 215.12 115.661 215.376C116.493 215.664 117.253 216 117.941 216.384C118.629 216.768 119.181 217.28 119.597 217.92C120.013 218.544 120.221 219.352 120.221 220.344C120.221 221.224 119.997 222.04 119.549 222.792C119.101 223.544 118.437 224.152 117.557 224.616C116.677 225.064 115.597 225.288 114.317 225.288ZM128.114 225.288C126.914 225.288 125.85 225.032 124.922 224.52C123.994 224.008 123.266 223.288 122.738 222.36C122.21 221.432 121.946 220.36 121.946 219.144C121.946 217.912 122.202 216.816 122.714 215.856C123.242 214.896 123.962 214.152 124.874 213.624C125.802 213.08 126.89 212.808 128.138 212.808C129.306 212.808 130.338 213.064 131.234 213.576C132.13 214.088 132.826 214.792 133.322 215.688C133.834 216.568 134.09 217.552 134.09 218.64C134.09 218.816 134.082 219 134.066 219.192C134.066 219.384 134.058 219.584 134.042 219.792H124.994C125.058 220.72 125.378 221.448 125.954 221.976C126.546 222.504 127.258 222.768 128.09 222.768C128.714 222.768 129.234 222.632 129.65 222.36C130.082 222.072 130.402 221.704 130.61 221.256H133.73C133.506 222.008 133.13 222.696 132.602 223.32C132.09 223.928 131.45 224.408 130.682 224.76C129.93 225.112 129.074 225.288 128.114 225.288ZM128.138 215.304C127.386 215.304 126.722 215.52 126.146 215.952C125.57 216.368 125.202 217.008 125.042 217.872H130.97C130.922 217.088 130.634 216.464 130.106 216C129.578 215.536 128.922 215.304 128.138 215.304ZM136.173 225V207.72H139.245V225H136.173ZM147.668 225.288C146.468 225.288 145.404 225.032 144.476 224.52C143.548 224.008 142.82 223.288 142.292 222.36C141.764 221.432 141.5 220.36 141.5 219.144C141.5 217.912 141.756 216.816 142.268 215.856C142.796 214.896 143.516 214.152 144.428 213.624C145.356 213.08 146.444 212.808 147.692 212.808C148.86 212.808 149.892 213.064 150.788 213.576C151.684 214.088 152.38 214.792 152.876 215.688C153.388 216.568 153.644 217.552 153.644 218.64C153.644 218.816 153.636 219 153.62 219.192C153.62 219.384 153.612 219.584 153.596 219.792H144.548C144.612 220.72 144.932 221.448 145.508 221.976C146.1 222.504 146.812 222.768 147.644 222.768C148.268 222.768 148.788 222.632 149.204 222.36C149.636 222.072 149.956 221.704 150.164 221.256H153.284C153.06 222.008 152.684 222.696 152.156 223.32C151.644 223.928 151.004 224.408 150.236 224.76C149.484 225.112 148.628 225.288 147.668 225.288ZM147.692 215.304C146.94 215.304 146.276 215.52 145.7 215.952C145.124 216.368 144.756 217.008 144.596 217.872H150.524C150.476 217.088 150.188 216.464 149.66 216C149.132 215.536 148.476 215.304 147.692 215.304ZM161.56 225.288C160.344 225.288 159.272 225.024 158.344 224.496C157.416 223.968 156.68 223.232 156.136 222.288C155.608 221.344 155.344 220.264 155.344 219.048C155.344 217.832 155.608 216.752 156.136 215.808C156.68 214.864 157.416 214.128 158.344 213.6C159.272 213.072 160.344 212.808 161.56 212.808C163.08 212.808 164.36 213.208 165.4 214.008C166.44 214.792 167.104 215.88 167.392 217.272H164.152C163.992 216.696 163.672 216.248 163.192 215.928C162.728 215.592 162.176 215.424 161.536 215.424C160.688 215.424 159.968 215.744 159.376 216.384C158.784 217.024 158.488 217.912 158.488 219.048C158.488 220.184 158.784 221.072 159.376 221.712C159.968 222.352 160.688 222.672 161.536 222.672C162.176 222.672 162.728 222.512 163.192 222.192C163.672 221.872 163.992 221.416 164.152 220.824H167.392C167.104 222.168 166.44 223.248 165.4 224.064C164.36 224.88 163.08 225.288 161.56 225.288ZM174.759 225C173.511 225 172.511 224.696 171.759 224.088C171.007 223.48 170.631 222.4 170.631 220.848V215.664H168.591V213.096H170.631L170.991 209.904H173.703V213.096H176.919V215.664H173.703V220.872C173.703 221.448 173.823 221.848 174.063 222.072C174.319 222.28 174.751 222.384 175.359 222.384H176.847V225H174.759ZM180.712 211.248C180.152 211.248 179.688 211.08 179.32 210.744C178.968 210.408 178.792 209.984 178.792 209.472C178.792 208.96 178.968 208.544 179.32 208.224C179.688 207.888 180.152 207.72 180.712 207.72C181.272 207.72 181.728 207.888 182.08 208.224C182.448 208.544 182.632 208.96 182.632 209.472C182.632 209.984 182.448 210.408 182.08 210.744C181.728 211.08 181.272 211.248 180.712 211.248ZM179.176 225V213.096H182.248V225H179.176ZM190.667 225.288C189.515 225.288 188.475 225.024 187.547 224.496C186.635 223.968 185.907 223.24 185.363 222.312C184.835 221.368 184.571 220.28 184.571 219.048C184.571 217.816 184.843 216.736 185.387 215.808C185.931 214.864 186.659 214.128 187.571 213.6C188.499 213.072 189.539 212.808 190.691 212.808C191.827 212.808 192.851 213.072 193.763 213.6C194.691 214.128 195.419 214.864 195.947 215.808C196.491 216.736 196.763 217.816 196.763 219.048C196.763 220.28 196.491 221.368 195.947 222.312C195.419 223.24 194.691 223.968 193.763 224.496C192.835 225.024 191.803 225.288 190.667 225.288ZM190.667 222.624C191.467 222.624 192.163 222.328 192.755 221.736C193.347 221.128 193.643 220.232 193.643 219.048C193.643 217.864 193.347 216.976 192.755 216.384C192.163 215.776 191.475 215.472 190.691 215.472C189.875 215.472 189.171 215.776 188.579 216.384C188.003 216.976 187.715 217.864 187.715 219.048C187.715 220.232 188.003 221.128 188.579 221.736C189.171 222.328 189.867 222.624 190.667 222.624ZM199.009 225V213.096H201.721L201.961 215.112C202.329 214.408 202.857 213.848 203.545 213.432C204.249 213.016 205.073 212.808 206.017 212.808C207.489 212.808 208.633 213.272 209.449 214.2C210.265 215.128 210.673 216.488 210.673 218.28V225H207.601V218.568C207.601 217.544 207.393 216.76 206.977 216.216C206.561 215.672 205.913 215.4 205.033 215.4C204.169 215.4 203.457 215.704 202.897 216.312C202.353 216.92 202.081 217.768 202.081 218.856V225H199.009Z" fill="#141414"/>
<path d="M155.938 73.75H145.312C144.45 73.75 143.75 74.4496 143.75 75.3125V85.9375C143.75 86.8004 144.45 87.5 145.312 87.5H155.938C156.8 87.5 157.5 86.8004 157.5 85.9375V75.3125C157.5 74.4496 156.8 73.75 155.938 73.75Z" fill="white" stroke="white" stroke-width="2.5" stroke-linecap="round" stroke-linejoin="round"/>
<path d="M174.688 73.75H164.062C163.2 73.75 162.5 74.4496 162.5 75.3125V85.9375C162.5 86.8004 163.2 87.5 164.062 87.5H174.688C175.55 87.5 176.25 86.8004 176.25 85.9375V75.3125C176.25 74.4496 175.55 73.75 174.688 73.75Z" stroke="white" stroke-width="2.5" stroke-linecap="round" stroke-linejoin="round"/>
<path d="M155.938 92.5H145.312C144.45 92.5 143.75 93.1996 143.75 94.0625V104.688C143.75 105.55 144.45 106.25 145.312 106.25H155.938C156.8 106.25 157.5 105.55 157.5 104.688V94.0625C157.5 93.1996 156.8 92.5 155.938 92.5Z" fill="white" stroke="white" stroke-width="2.5" stroke-linecap="round" stroke-linejoin="round"/>
<path d="M174.688 92.5H164.062C163.2 92.5 162.5 93.1996 162.5 94.0625V104.688C162.5 105.55 163.2 106.25 164.062 106.25H174.688C175.55 106.25 176.25 105.55 176.25 104.688V94.0625C176.25 93.1996 175.55 92.5 174.688 92.5Z" fill="white" stroke="white" stroke-width="2.5" stroke-linecap="round" stroke-linejoin="round"/>
</svg>
