<svg width="320" height="280" viewBox="0 0 320 280" fill="none" xmlns="http://www.w3.org/2000/svg">
<rect width="320" height="280" rx="30"/>
<rect x="120" y="50" width="80" height="80" rx="20" fill="#326DF5"/>
<path d="M58.6837 194.288C57.0037 194.288 55.5317 193.92 54.2677 193.184C53.0197 192.448 52.0357 191.432 51.3157 190.136C50.6117 188.824 50.2597 187.312 50.2597 185.6C50.2597 183.888 50.6117 182.384 51.3157 181.088C52.0357 179.776 53.0197 178.752 54.2677 178.016C55.5317 177.28 57.0037 176.912 58.6837 176.912C60.3477 176.912 61.8117 177.28 63.0757 178.016C64.3397 178.752 65.3237 179.776 66.0277 181.088C66.7317 182.384 67.0837 183.888 67.0837 185.6C67.0837 187.312 66.7317 188.824 66.0277 190.136C65.3237 191.432 64.3397 192.448 63.0757 193.184C61.8117 193.92 60.3477 194.288 58.6837 194.288ZM58.6837 191.528C60.2837 191.528 61.5557 191 62.4997 189.944C63.4597 188.888 63.9397 187.44 63.9397 185.6C63.9397 183.76 63.4597 182.312 62.4997 181.256C61.5557 180.2 60.2837 179.672 58.6837 179.672C57.0837 179.672 55.8037 180.2 54.8437 181.256C53.8837 182.312 53.4037 183.76 53.4037 185.6C53.4037 187.44 53.8837 188.888 54.8437 189.944C55.8037 191 57.0837 191.528 58.6837 191.528ZM69.2241 194V182.096H71.9601L72.2481 184.328C72.6801 183.56 73.2641 182.952 74.0001 182.504C74.7521 182.04 75.6321 181.808 76.6401 181.808V185.048H75.7761C75.1041 185.048 74.5041 185.152 73.9761 185.36C73.4481 185.568 73.0321 185.928 72.7281 186.44C72.4401 186.952 72.2961 187.664 72.2961 188.576V194H69.2241ZM82.9984 190.448C82.4224 190.448 81.8864 190.384 81.3904 190.256L80.5024 191.144C80.7744 191.288 81.1424 191.408 81.6064 191.504C82.0704 191.6 82.8224 191.696 83.8624 191.792C85.4464 191.936 86.5984 192.312 87.3184 192.92C88.0384 193.528 88.3984 194.368 88.3984 195.44C88.3984 196.144 88.2064 196.808 87.8224 197.432C87.4384 198.072 86.8464 198.584 86.0464 198.968C85.2464 199.368 84.2224 199.568 82.9744 199.568C81.2784 199.568 79.9104 199.248 78.8704 198.608C77.8304 197.984 77.3104 197.04 77.3104 195.776C77.3104 194.704 77.8304 193.776 78.8704 192.992C78.5504 192.848 78.2704 192.696 78.0304 192.536C77.8064 192.376 77.6064 192.208 77.4304 192.032V191.48L79.5184 189.272C78.5904 188.456 78.1264 187.408 78.1264 186.128C78.1264 185.328 78.3184 184.6 78.7024 183.944C79.1024 183.288 79.6624 182.768 80.3824 182.384C81.1024 182 81.9744 181.808 82.9984 181.808C83.6704 181.808 84.2944 181.904 84.8704 182.096H89.3824V183.968L87.3424 184.112C87.6624 184.72 87.8224 185.392 87.8224 186.128C87.8224 186.928 87.6304 187.656 87.2464 188.312C86.8624 188.968 86.3024 189.488 85.5664 189.872C84.8464 190.256 83.9904 190.448 82.9984 190.448ZM82.9984 188.096C83.6224 188.096 84.1344 187.928 84.5344 187.592C84.9504 187.256 85.1584 186.776 85.1584 186.152C85.1584 185.528 84.9504 185.048 84.5344 184.712C84.1344 184.376 83.6224 184.208 82.9984 184.208C82.3424 184.208 81.8144 184.376 81.4144 184.712C81.0144 185.048 80.8144 185.528 80.8144 186.152C80.8144 186.776 81.0144 187.256 81.4144 187.592C81.8144 187.928 82.3424 188.096 82.9984 188.096ZM80.1184 195.464C80.1184 196.056 80.3904 196.496 80.9344 196.784C81.4944 197.088 82.1744 197.24 82.9744 197.24C83.7424 197.24 84.3664 197.08 84.8464 196.76C85.3264 196.456 85.5664 196.04 85.5664 195.512C85.5664 195.08 85.4064 194.72 85.0864 194.432C84.7824 194.144 84.1664 193.968 83.2384 193.904C82.5824 193.856 81.9744 193.784 81.4144 193.688C80.9504 193.944 80.6144 194.224 80.4064 194.528C80.2144 194.832 80.1184 195.144 80.1184 195.464ZM95.2265 194.288C94.2025 194.288 93.3625 194.128 92.7065 193.808C92.0505 193.472 91.5625 193.032 91.2425 192.488C90.9225 191.944 90.7625 191.344 90.7625 190.688C90.7625 189.584 91.1945 188.688 92.0585 188C92.9225 187.312 94.2185 186.968 95.9465 186.968H98.9705V186.68C98.9705 185.864 98.7385 185.264 98.2745 184.88C97.8105 184.496 97.2345 184.304 96.5465 184.304C95.9225 184.304 95.3785 184.456 94.9145 184.76C94.4505 185.048 94.1625 185.48 94.0505 186.056H91.0505C91.1305 185.192 91.4185 184.44 91.9145 183.8C92.4265 183.16 93.0825 182.672 93.8825 182.336C94.6825 181.984 95.5785 181.808 96.5705 181.808C98.2665 181.808 99.6025 182.232 100.579 183.08C101.555 183.928 102.043 185.128 102.043 186.68V194H99.4265L99.1385 192.08C98.7865 192.72 98.2905 193.248 97.6505 193.664C97.0265 194.08 96.2185 194.288 95.2265 194.288ZM95.9225 191.888C96.8025 191.888 97.4825 191.6 97.9625 191.024C98.4585 190.448 98.7705 189.736 98.8985 188.888H96.2825C95.4665 188.888 94.8825 189.04 94.5305 189.344C94.1785 189.632 94.0025 189.992 94.0025 190.424C94.0025 190.888 94.1785 191.248 94.5305 191.504C94.8825 191.76 95.3465 191.888 95.9225 191.888ZM104.474 194V182.096H107.186L107.426 184.112C107.794 183.408 108.322 182.848 109.01 182.432C109.714 182.016 110.538 181.808 111.482 181.808C112.954 181.808 114.098 182.272 114.914 183.2C115.73 184.128 116.138 185.488 116.138 187.28V194H113.066V187.568C113.066 186.544 112.858 185.76 112.442 185.216C112.026 184.672 111.378 184.4 110.498 184.4C109.634 184.4 108.922 184.704 108.362 185.312C107.818 185.92 107.546 186.768 107.546 187.856V194H104.474ZM120.232 180.248C119.672 180.248 119.208 180.08 118.84 179.744C118.488 179.408 118.312 178.984 118.312 178.472C118.312 177.96 118.488 177.544 118.84 177.224C119.208 176.888 119.672 176.72 120.232 176.72C120.792 176.72 121.248 176.888 121.6 177.224C121.968 177.544 122.152 177.96 122.152 178.472C122.152 178.984 121.968 179.408 121.6 179.744C121.248 180.08 120.792 180.248 120.232 180.248ZM118.696 194V182.096H121.768V194H118.696ZM123.706 194V191.528L129.778 184.64H123.778V182.096H133.282V184.568L127.114 191.456H133.402V194H123.706ZM141.242 194.288C140.042 194.288 138.978 194.032 138.05 193.52C137.122 193.008 136.394 192.288 135.866 191.36C135.338 190.432 135.074 189.36 135.074 188.144C135.074 186.912 135.33 185.816 135.842 184.856C136.37 183.896 137.09 183.152 138.002 182.624C138.93 182.08 140.018 181.808 141.266 181.808C142.434 181.808 143.466 182.064 144.362 182.576C145.258 183.088 145.954 183.792 146.45 184.688C146.962 185.568 147.218 186.552 147.218 187.64C147.218 187.816 147.21 188 147.194 188.192C147.194 188.384 147.186 188.584 147.17 188.792H138.122C138.186 189.72 138.506 190.448 139.082 190.976C139.674 191.504 140.386 191.768 141.218 191.768C141.842 191.768 142.362 191.632 142.778 191.36C143.21 191.072 143.53 190.704 143.738 190.256H146.858C146.634 191.008 146.258 191.696 145.73 192.32C145.218 192.928 144.578 193.408 143.81 193.76C143.058 194.112 142.202 194.288 141.242 194.288ZM141.266 184.304C140.514 184.304 139.85 184.52 139.274 184.952C138.698 185.368 138.33 186.008 138.17 186.872H144.098C144.05 186.088 143.762 185.464 143.234 185C142.706 184.536 142.05 184.304 141.266 184.304ZM154.774 194.288C153.654 194.288 152.654 194.016 151.774 193.472C150.894 192.928 150.198 192.184 149.686 191.24C149.174 190.296 148.918 189.224 148.918 188.024C148.918 186.824 149.174 185.76 149.686 184.832C150.198 183.888 150.894 183.152 151.774 182.624C152.654 182.08 153.654 181.808 154.774 181.808C155.67 181.808 156.454 181.976 157.126 182.312C157.798 182.648 158.342 183.12 158.758 183.728V176.72H161.83V194H159.094L158.758 192.296C158.374 192.824 157.862 193.288 157.222 193.688C156.598 194.088 155.782 194.288 154.774 194.288ZM155.422 191.6C156.414 191.6 157.222 191.272 157.846 190.616C158.486 189.944 158.806 189.088 158.806 188.048C158.806 187.008 158.486 186.16 157.846 185.504C157.222 184.832 156.414 184.496 155.422 184.496C154.446 184.496 153.638 184.824 152.998 185.48C152.358 186.136 152.038 186.984 152.038 188.024C152.038 189.064 152.358 189.92 152.998 190.592C153.638 191.264 154.446 191.6 155.422 191.6ZM175.485 194.288C174.253 194.288 173.165 194.08 172.221 193.664C171.277 193.232 170.533 192.624 169.989 191.84C169.445 191.04 169.165 190.072 169.149 188.936H172.389C172.421 189.72 172.701 190.384 173.229 190.928C173.773 191.456 174.517 191.72 175.461 191.72C176.277 191.72 176.925 191.528 177.405 191.144C177.885 190.744 178.125 190.216 178.125 189.56C178.125 188.872 177.909 188.336 177.477 187.952C177.061 187.568 176.501 187.256 175.797 187.016C175.093 186.776 174.341 186.52 173.541 186.248C172.245 185.8 171.253 185.224 170.565 184.52C169.893 183.816 169.557 182.88 169.557 181.712C169.541 180.72 169.773 179.872 170.253 179.168C170.749 178.448 171.421 177.896 172.269 177.512C173.117 177.112 174.093 176.912 175.197 176.912C176.317 176.912 177.301 177.112 178.149 177.512C179.013 177.912 179.685 178.472 180.165 179.192C180.661 179.912 180.925 180.768 180.957 181.76H177.669C177.653 181.168 177.421 180.648 176.973 180.2C176.541 179.736 175.933 179.504 175.149 179.504C174.477 179.488 173.909 179.656 173.445 180.008C172.997 180.344 172.773 180.84 172.773 181.496C172.773 182.056 172.949 182.504 173.301 182.84C173.653 183.16 174.133 183.432 174.741 183.656C175.349 183.88 176.045 184.12 176.829 184.376C177.661 184.664 178.421 185 179.109 185.384C179.797 185.768 180.349 186.28 180.765 186.92C181.181 187.544 181.389 188.352 181.389 189.344C181.389 190.224 181.165 191.04 180.717 191.792C180.269 192.544 179.605 193.152 178.725 193.616C177.845 194.064 176.765 194.288 175.485 194.288ZM184.986 199.28L187.746 193.208H187.026L182.394 182.096H185.73L189.066 190.472L192.546 182.096H195.81L188.25 199.28H184.986ZM197.318 194V182.096H200.03L200.294 183.704C200.678 183.128 201.182 182.672 201.806 182.336C202.446 181.984 203.182 181.808 204.014 181.808C205.854 181.808 207.158 182.52 207.926 183.944C208.358 183.288 208.934 182.768 209.654 182.384C210.39 182 211.19 181.808 212.054 181.808C213.606 181.808 214.798 182.272 215.63 183.2C216.462 184.128 216.878 185.488 216.878 187.28V194H213.806V187.568C213.806 186.544 213.606 185.76 213.206 185.216C212.822 184.672 212.222 184.4 211.406 184.4C210.574 184.4 209.902 184.704 209.39 185.312C208.894 185.92 208.646 186.768 208.646 187.856V194H205.574V187.568C205.574 186.544 205.374 185.76 204.974 185.216C204.574 184.672 203.958 184.4 203.126 184.4C202.31 184.4 201.646 184.704 201.134 185.312C200.638 185.92 200.39 186.768 200.39 187.856V194H197.318ZM226.35 194.288C225.454 194.288 224.67 194.12 223.998 193.784C223.326 193.448 222.782 192.976 222.366 192.368L222.03 194H219.294V176.72H222.366V183.8C222.75 183.272 223.254 182.808 223.878 182.408C224.518 182.008 225.342 181.808 226.35 181.808C227.47 181.808 228.47 182.08 229.35 182.624C230.23 183.168 230.926 183.912 231.438 184.856C231.95 185.8 232.206 186.872 232.206 188.072C232.206 189.272 231.95 190.344 231.438 191.288C230.926 192.216 230.23 192.952 229.35 193.496C228.47 194.024 227.47 194.288 226.35 194.288ZM225.702 191.6C226.678 191.6 227.486 191.272 228.126 190.616C228.766 189.96 229.086 189.112 229.086 188.072C229.086 187.032 228.766 186.176 228.126 185.504C227.486 184.832 226.678 184.496 225.702 184.496C224.71 184.496 223.894 184.832 223.254 185.504C222.63 186.16 222.318 187.008 222.318 188.048C222.318 189.088 222.63 189.944 223.254 190.616C223.894 191.272 224.71 191.6 225.702 191.6ZM240.163 194.288C239.011 194.288 237.971 194.024 237.043 193.496C236.131 192.968 235.403 192.24 234.859 191.312C234.331 190.368 234.067 189.28 234.067 188.048C234.067 186.816 234.339 185.736 234.883 184.808C235.427 183.864 236.155 183.128 237.067 182.6C237.995 182.072 239.035 181.808 240.187 181.808C241.323 181.808 242.347 182.072 243.259 182.6C244.187 183.128 244.915 183.864 245.443 184.808C245.987 185.736 246.259 186.816 246.259 188.048C246.259 189.28 245.987 190.368 245.443 191.312C244.915 192.24 244.187 192.968 243.259 193.496C242.331 194.024 241.299 194.288 240.163 194.288ZM240.163 191.624C240.963 191.624 241.659 191.328 242.251 190.736C242.843 190.128 243.139 189.232 243.139 188.048C243.139 186.864 242.843 185.976 242.251 185.384C241.659 184.776 240.971 184.472 240.187 184.472C239.371 184.472 238.667 184.776 238.075 185.384C237.499 185.976 237.211 186.864 237.211 188.048C237.211 189.232 237.499 190.128 238.075 190.736C238.667 191.328 239.363 191.624 240.163 191.624ZM248.505 194V176.72H251.577V194H248.505ZM259.136 194.288C258.08 194.288 257.152 194.12 256.352 193.784C255.552 193.432 254.912 192.952 254.432 192.344C253.952 191.736 253.664 191.032 253.568 190.232H256.664C256.76 190.696 257.016 191.096 257.432 191.432C257.864 191.752 258.416 191.912 259.088 191.912C259.76 191.912 260.248 191.776 260.552 191.504C260.872 191.232 261.032 190.92 261.032 190.568C261.032 190.056 260.808 189.712 260.36 189.536C259.912 189.344 259.288 189.16 258.488 188.984C257.976 188.872 257.456 188.736 256.928 188.576C256.4 188.416 255.912 188.216 255.464 187.976C255.032 187.72 254.68 187.4 254.408 187.016C254.136 186.616 254 186.128 254 185.552C254 184.496 254.416 183.608 255.248 182.888C256.096 182.168 257.28 181.808 258.8 181.808C260.208 181.808 261.328 182.136 262.16 182.792C263.008 183.448 263.512 184.352 263.672 185.504H260.768C260.592 184.624 259.928 184.184 258.776 184.184C258.2 184.184 257.752 184.296 257.432 184.52C257.128 184.744 256.976 185.024 256.976 185.36C256.976 185.712 257.208 185.992 257.672 186.2C258.136 186.408 258.752 186.6 259.52 186.776C260.352 186.968 261.112 187.184 261.8 187.424C262.504 187.648 263.064 187.992 263.48 188.456C263.896 188.904 264.104 189.552 264.104 190.4C264.12 191.136 263.928 191.8 263.528 192.392C263.128 192.984 262.552 193.448 261.8 193.784C261.048 194.12 260.16 194.288 259.136 194.288ZM265.102 196.784L266.47 190.808H269.446L267.118 196.784H265.102ZM95.7258 225V208.2H106.694V210.672H98.7978V215.28H105.974V217.68H98.7978V222.528H106.694V225H95.7258ZM113.133 225.288C112.109 225.288 111.269 225.128 110.613 224.808C109.957 224.472 109.469 224.032 109.149 223.488C108.829 222.944 108.669 222.344 108.669 221.688C108.669 220.584 109.101 219.688 109.965 219C110.829 218.312 112.125 217.968 113.853 217.968H116.877V217.68C116.877 216.864 116.645 216.264 116.181 215.88C115.717 215.496 115.141 215.304 114.453 215.304C113.829 215.304 113.285 215.456 112.821 215.76C112.357 216.048 112.069 216.48 111.957 217.056H108.957C109.037 216.192 109.325 215.44 109.821 214.8C110.333 214.16 110.989 213.672 111.789 213.336C112.589 212.984 113.485 212.808 114.477 212.808C116.173 212.808 117.509 213.232 118.485 214.08C119.461 214.928 119.949 216.128 119.949 217.68V225H117.333L117.045 223.08C116.693 223.72 116.197 224.248 115.557 224.664C114.933 225.08 114.125 225.288 113.133 225.288ZM113.829 222.888C114.709 222.888 115.389 222.6 115.869 222.024C116.365 221.448 116.677 220.736 116.805 219.888H114.189C113.373 219.888 112.789 220.04 112.437 220.344C112.085 220.632 111.909 220.992 111.909 221.424C111.909 221.888 112.085 222.248 112.437 222.504C112.789 222.76 113.253 222.888 113.829 222.888ZM127.3 225.288C126.244 225.288 125.316 225.12 124.516 224.784C123.716 224.432 123.076 223.952 122.596 223.344C122.116 222.736 121.828 222.032 121.732 221.232H124.828C124.924 221.696 125.18 222.096 125.596 222.432C126.028 222.752 126.58 222.912 127.252 222.912C127.924 222.912 128.412 222.776 128.716 222.504C129.036 222.232 129.196 221.92 129.196 221.568C129.196 221.056 128.972 220.712 128.524 220.536C128.076 220.344 127.452 220.16 126.652 219.984C126.14 219.872 125.62 219.736 125.092 219.576C124.564 219.416 124.076 219.216 123.628 218.976C123.196 218.72 122.844 218.4 122.572 218.016C122.3 217.616 122.164 217.128 122.164 216.552C122.164 215.496 122.58 214.608 123.412 213.888C124.26 213.168 125.444 212.808 126.964 212.808C128.372 212.808 129.492 213.136 130.324 213.792C131.172 214.448 131.676 215.352 131.836 216.504H128.932C128.756 215.624 128.092 215.184 126.94 215.184C126.364 215.184 125.916 215.296 125.596 215.52C125.292 215.744 125.14 216.024 125.14 216.36C125.14 216.712 125.372 216.992 125.836 217.2C126.3 217.408 126.916 217.6 127.684 217.776C128.516 217.968 129.276 218.184 129.964 218.424C130.668 218.648 131.228 218.992 131.644 219.456C132.06 219.904 132.268 220.552 132.268 221.4C132.284 222.136 132.092 222.8 131.692 223.392C131.292 223.984 130.716 224.448 129.964 224.784C129.212 225.12 128.324 225.288 127.3 225.288ZM135.345 230.28L138.105 224.208H137.385L132.753 213.096H136.089L139.425 221.472L142.905 213.096H146.169L138.609 230.28H135.345ZM158.2 225C156.952 225 155.952 224.696 155.2 224.088C154.448 223.48 154.072 222.4 154.072 220.848V215.664H152.032V213.096H154.072L154.432 209.904H157.144V213.096H160.36V215.664H157.144V220.872C157.144 221.448 157.264 221.848 157.504 222.072C157.76 222.28 158.192 222.384 158.8 222.384H160.288V225H158.2ZM167.905 225.288C166.753 225.288 165.713 225.024 164.785 224.496C163.873 223.968 163.145 223.24 162.601 222.312C162.073 221.368 161.809 220.28 161.809 219.048C161.809 217.816 162.081 216.736 162.625 215.808C163.169 214.864 163.897 214.128 164.809 213.6C165.737 213.072 166.777 212.808 167.929 212.808C169.065 212.808 170.089 213.072 171.001 213.6C171.929 214.128 172.657 214.864 173.185 215.808C173.729 216.736 174.001 217.816 174.001 219.048C174.001 220.28 173.729 221.368 173.185 222.312C172.657 223.24 171.929 223.968 171.001 224.496C170.073 225.024 169.041 225.288 167.905 225.288ZM167.905 222.624C168.705 222.624 169.401 222.328 169.993 221.736C170.585 221.128 170.881 220.232 170.881 219.048C170.881 217.864 170.585 216.976 169.993 216.384C169.401 215.776 168.713 215.472 167.929 215.472C167.113 215.472 166.409 215.776 165.817 216.384C165.241 216.976 164.953 217.864 164.953 219.048C164.953 220.232 165.241 221.128 165.817 221.736C166.409 222.328 167.105 222.624 167.905 222.624ZM187.25 225.288C186.05 225.288 184.986 225.032 184.058 224.52C183.13 224.008 182.402 223.288 181.874 222.36C181.346 221.432 181.082 220.36 181.082 219.144C181.082 217.912 181.338 216.816 181.85 215.856C182.378 214.896 183.098 214.152 184.01 213.624C184.938 213.08 186.026 212.808 187.274 212.808C188.442 212.808 189.474 213.064 190.37 213.576C191.266 214.088 191.962 214.792 192.458 215.688C192.97 216.568 193.226 217.552 193.226 218.64C193.226 218.816 193.218 219 193.202 219.192C193.202 219.384 193.194 219.584 193.178 219.792H184.13C184.194 220.72 184.514 221.448 185.09 221.976C185.682 222.504 186.394 222.768 187.226 222.768C187.85 222.768 188.37 222.632 188.786 222.36C189.218 222.072 189.538 221.704 189.746 221.256H192.866C192.642 222.008 192.266 222.696 191.738 223.32C191.226 223.928 190.586 224.408 189.818 224.76C189.066 225.112 188.21 225.288 187.25 225.288ZM187.274 215.304C186.522 215.304 185.858 215.52 185.282 215.952C184.706 216.368 184.338 217.008 184.178 217.872H190.106C190.058 217.088 189.77 216.464 189.242 216C188.714 215.536 188.058 215.304 187.274 215.304ZM200.782 225.288C199.662 225.288 198.662 225.016 197.782 224.472C196.902 223.928 196.206 223.184 195.694 222.24C195.182 221.296 194.926 220.224 194.926 219.024C194.926 217.824 195.182 216.76 195.694 215.832C196.206 214.888 196.902 214.152 197.782 213.624C198.662 213.08 199.662 212.808 200.782 212.808C201.678 212.808 202.462 212.976 203.134 213.312C203.806 213.648 204.35 214.12 204.766 214.728V207.72H207.838V225H205.102L204.766 223.296C204.382 223.824 203.87 224.288 203.23 224.688C202.606 225.088 201.79 225.288 200.782 225.288ZM201.43 222.6C202.422 222.6 203.23 222.272 203.854 221.616C204.494 220.944 204.814 220.088 204.814 219.048C204.814 218.008 204.494 217.16 203.854 216.504C203.23 215.832 202.422 215.496 201.43 215.496C200.454 215.496 199.646 215.824 199.006 216.48C198.366 217.136 198.046 217.984 198.046 219.024C198.046 220.064 198.366 220.92 199.006 221.592C199.646 222.264 200.454 222.6 201.43 222.6ZM212.122 211.248C211.562 211.248 211.098 211.08 210.73 210.744C210.378 210.408 210.202 209.984 210.202 209.472C210.202 208.96 210.378 208.544 210.73 208.224C211.098 207.888 211.562 207.72 212.122 207.72C212.682 207.72 213.138 207.888 213.49 208.224C213.858 208.544 214.042 208.96 214.042 209.472C214.042 209.984 213.858 210.408 213.49 210.744C213.138 211.08 212.682 211.248 212.122 211.248ZM210.586 225V213.096H213.658V225H210.586ZM221.669 225C220.421 225 219.421 224.696 218.669 224.088C217.917 223.48 217.541 222.4 217.541 220.848V215.664H215.501V213.096H217.541L217.901 209.904H220.613V213.096H223.829V215.664H220.613V220.872C220.613 221.448 220.733 221.848 220.973 222.072C221.229 222.28 221.661 222.384 222.269 222.384H223.757V225H221.669Z" fill="#141414"/>
<path d="M160 90C158.948 90 157.895 89.8133 157.075 89.4398L145.512 84.1672C144.984 83.9266 143.75 83.2227 143.75 81.8938C143.75 80.5648 144.984 79.8625 145.514 79.6188L157.177 74.3008C158.784 73.5664 161.209 73.5664 162.816 74.3008L174.486 79.6188C175.016 79.8602 176.25 80.5641 176.25 81.8938C176.25 83.2234 175.016 83.925 174.486 84.168L162.923 89.4398C162.105 89.8133 161.052 90 160 90Z" fill="white"/>
<path d="M174.481 87.7195L173.302 87.1875L170.273 88.5734L162.93 91.9328C162.109 92.3078 161.055 92.4945 160.005 92.4945C158.955 92.4945 157.901 92.3078 157.081 91.9328L149.732 88.5734L146.702 87.1875L145.513 87.7219C144.984 87.9633 143.75 88.6719 143.75 90C143.75 91.3281 144.984 92.0375 145.512 92.2789L157.075 97.5625C157.891 97.9375 158.945 98.125 160 98.125C161.055 98.125 162.105 97.9375 162.925 97.5633L174.477 92.2813C175.009 92.0398 176.25 91.3352 176.25 90C176.25 88.6648 175.018 87.9633 174.481 87.7195Z" fill="white"/>
<path d="M174.481 95.8437L173.302 95.3125L170.273 96.6977L162.93 100.053C162.109 100.427 161.055 100.614 160.005 100.614C158.955 100.614 157.901 100.427 157.081 100.053L149.732 96.6937L146.702 95.3125L145.513 95.8469C144.984 96.0883 143.75 96.7969 143.75 98.125C143.75 99.4531 144.984 100.162 145.512 100.402L157.075 105.683C157.891 106.056 158.948 106.25 160 106.25C161.052 106.25 162.1 106.056 162.92 105.682L174.477 100.403C175.009 100.163 176.25 99.4578 176.25 98.125C176.25 96.7922 175.018 96.0883 174.481 95.8437Z" fill="white"/>
</svg>
