<svg width="320" height="280" viewBox="0 0 320 280" fill="none" xmlns="http://www.w3.org/2000/svg">
<rect width="320" height="280" rx="30"/>
<rect x="120" y="50" width="80" height="80" rx="20" fill="#9862F6"/>
<path d="M72.3195 194V177.2H83.1675V179.672H75.3915V184.376H81.6795V186.8H75.3915V194H72.3195ZM89.4303 194.288C87.9423 194.288 86.7903 193.824 85.9743 192.896C85.1743 191.968 84.7743 190.608 84.7743 188.816V182.096H87.8223V188.528C87.8223 189.552 88.0303 190.336 88.4463 190.88C88.8623 191.424 89.5183 191.696 90.4143 191.696C91.2623 191.696 91.9583 191.392 92.5023 190.784C93.0623 190.176 93.3423 189.328 93.3423 188.24V182.096H96.4143V194H93.7023L93.4623 191.984C93.0943 192.688 92.5583 193.248 91.8543 193.664C91.1663 194.08 90.3583 194.288 89.4303 194.288ZM99.0678 194V176.72H102.14V194H99.0678ZM104.779 194V176.72H107.851V194H104.779ZM111.978 199.28L114.738 193.208H114.018L109.386 182.096H112.722L116.058 190.472L119.538 182.096H122.802L115.242 199.28H111.978ZM128.521 194L134.665 177.2H138.121L144.265 194H141.001L139.657 190.112H133.105L131.737 194H128.521ZM133.945 187.712H138.817L136.369 180.728L133.945 187.712ZM150.766 194.288C149.646 194.288 148.646 194.016 147.766 193.472C146.886 192.928 146.19 192.184 145.678 191.24C145.166 190.296 144.91 189.224 144.91 188.024C144.91 186.824 145.166 185.76 145.678 184.832C146.19 183.888 146.886 183.152 147.766 182.624C148.646 182.08 149.646 181.808 150.766 181.808C151.662 181.808 152.446 181.976 153.118 182.312C153.79 182.648 154.334 183.12 154.75 183.728V176.72H157.822V194H155.086L154.75 192.296C154.366 192.824 153.854 193.288 153.214 193.688C152.59 194.088 151.774 194.288 150.766 194.288ZM151.414 191.6C152.406 191.6 153.214 191.272 153.838 190.616C154.478 189.944 154.798 189.088 154.798 188.048C154.798 187.008 154.478 186.16 153.838 185.504C153.214 184.832 152.406 184.496 151.414 184.496C150.438 184.496 149.63 184.824 148.99 185.48C148.35 186.136 148.03 186.984 148.03 188.024C148.03 189.064 148.35 189.92 148.99 190.592C149.63 191.264 150.438 191.6 151.414 191.6ZM162.155 180.248C161.595 180.248 161.131 180.08 160.763 179.744C160.411 179.408 160.235 178.984 160.235 178.472C160.235 177.96 160.411 177.544 160.763 177.224C161.131 176.888 161.595 176.72 162.155 176.72C162.715 176.72 163.171 176.888 163.523 177.224C163.891 177.544 164.075 177.96 164.075 178.472C164.075 178.984 163.891 179.408 163.523 179.744C163.171 180.08 162.715 180.248 162.155 180.248ZM158.195 199.28V196.664H159.131C159.659 196.664 160.035 196.56 160.259 196.352C160.483 196.144 160.595 195.792 160.595 195.296V182.096H163.667V195.296C163.667 196.736 163.299 197.76 162.563 198.368C161.843 198.976 160.859 199.28 159.611 199.28H158.195ZM170.837 194.288C169.349 194.288 168.197 193.824 167.381 192.896C166.581 191.968 166.181 190.608 166.181 188.816V182.096H169.229V188.528C169.229 189.552 169.437 190.336 169.853 190.88C170.269 191.424 170.925 191.696 171.821 191.696C172.669 191.696 173.365 191.392 173.909 190.784C174.469 190.176 174.749 189.328 174.749 188.24V182.096H177.821V194H175.109L174.869 191.984C174.501 192.688 173.965 193.248 173.261 193.664C172.573 194.08 171.765 194.288 170.837 194.288ZM185.394 194.288C184.338 194.288 183.41 194.12 182.61 193.784C181.81 193.432 181.17 192.952 180.69 192.344C180.21 191.736 179.922 191.032 179.826 190.232H182.922C183.018 190.696 183.274 191.096 183.69 191.432C184.122 191.752 184.674 191.912 185.346 191.912C186.018 191.912 186.506 191.776 186.81 191.504C187.13 191.232 187.29 190.92 187.29 190.568C187.29 190.056 187.066 189.712 186.618 189.536C186.17 189.344 185.546 189.16 184.746 188.984C184.234 188.872 183.714 188.736 183.186 188.576C182.658 188.416 182.17 188.216 181.722 187.976C181.29 187.72 180.938 187.4 180.666 187.016C180.394 186.616 180.258 186.128 180.258 185.552C180.258 184.496 180.674 183.608 181.506 182.888C182.354 182.168 183.538 181.808 185.058 181.808C186.466 181.808 187.586 182.136 188.418 182.792C189.266 183.448 189.77 184.352 189.93 185.504H187.026C186.85 184.624 186.186 184.184 185.034 184.184C184.458 184.184 184.01 184.296 183.69 184.52C183.386 184.744 183.234 185.024 183.234 185.36C183.234 185.712 183.466 185.992 183.93 186.2C184.394 186.408 185.01 186.6 185.778 186.776C186.61 186.968 187.37 187.184 188.058 187.424C188.762 187.648 189.322 187.992 189.738 188.456C190.154 188.904 190.362 189.552 190.362 190.4C190.378 191.136 190.186 191.8 189.786 192.392C189.386 192.984 188.81 193.448 188.058 193.784C187.306 194.12 186.418 194.288 185.394 194.288ZM197.512 194C196.264 194 195.264 193.696 194.512 193.088C193.76 192.48 193.384 191.4 193.384 189.848V184.664H191.344V182.096H193.384L193.744 178.904H196.456V182.096H199.672V184.664H196.456V189.872C196.456 190.448 196.576 190.848 196.816 191.072C197.072 191.28 197.504 191.384 198.112 191.384H199.6V194H197.512ZM205.914 194.288C204.89 194.288 204.05 194.128 203.394 193.808C202.738 193.472 202.25 193.032 201.93 192.488C201.61 191.944 201.45 191.344 201.45 190.688C201.45 189.584 201.882 188.688 202.746 188C203.61 187.312 204.906 186.968 206.634 186.968H209.658V186.68C209.658 185.864 209.426 185.264 208.962 184.88C208.498 184.496 207.922 184.304 207.234 184.304C206.61 184.304 206.066 184.456 205.602 184.76C205.138 185.048 204.85 185.48 204.738 186.056H201.738C201.818 185.192 202.106 184.44 202.602 183.8C203.114 183.16 203.77 182.672 204.57 182.336C205.37 181.984 206.266 181.808 207.258 181.808C208.954 181.808 210.29 182.232 211.266 183.08C212.242 183.928 212.73 185.128 212.73 186.68V194H210.114L209.826 192.08C209.474 192.72 208.978 193.248 208.338 193.664C207.714 194.08 206.906 194.288 205.914 194.288ZM206.61 191.888C207.49 191.888 208.17 191.6 208.65 191.024C209.146 190.448 209.458 189.736 209.586 188.888H206.97C206.154 188.888 205.57 189.04 205.218 189.344C204.866 189.632 204.69 189.992 204.69 190.424C204.69 190.888 204.866 191.248 205.218 191.504C205.57 191.76 206.034 191.888 206.61 191.888ZM222.218 194.288C221.322 194.288 220.538 194.12 219.866 193.784C219.194 193.448 218.65 192.976 218.234 192.368L217.898 194H215.162V176.72H218.234V183.8C218.618 183.272 219.122 182.808 219.746 182.408C220.386 182.008 221.21 181.808 222.218 181.808C223.338 181.808 224.338 182.08 225.218 182.624C226.098 183.168 226.794 183.912 227.306 184.856C227.818 185.8 228.074 186.872 228.074 188.072C228.074 189.272 227.818 190.344 227.306 191.288C226.794 192.216 226.098 192.952 225.218 193.496C224.338 194.024 223.338 194.288 222.218 194.288ZM221.57 191.6C222.546 191.6 223.354 191.272 223.994 190.616C224.634 189.96 224.954 189.112 224.954 188.072C224.954 187.032 224.634 186.176 223.994 185.504C223.354 184.832 222.546 184.496 221.57 184.496C220.578 184.496 219.762 184.832 219.122 185.504C218.498 186.16 218.186 187.008 218.186 188.048C218.186 189.088 218.498 189.944 219.122 190.616C219.762 191.272 220.578 191.6 221.57 191.6ZM230.318 194V176.72H233.39V194H230.318ZM241.813 194.288C240.613 194.288 239.549 194.032 238.621 193.52C237.693 193.008 236.965 192.288 236.437 191.36C235.909 190.432 235.645 189.36 235.645 188.144C235.645 186.912 235.901 185.816 236.413 184.856C236.941 183.896 237.661 183.152 238.573 182.624C239.501 182.08 240.589 181.808 241.837 181.808C243.005 181.808 244.037 182.064 244.933 182.576C245.829 183.088 246.525 183.792 247.021 184.688C247.533 185.568 247.789 186.552 247.789 187.64C247.789 187.816 247.781 188 247.765 188.192C247.765 188.384 247.757 188.584 247.741 188.792H238.693C238.757 189.72 239.077 190.448 239.653 190.976C240.245 191.504 240.957 191.768 241.789 191.768C242.413 191.768 242.933 191.632 243.349 191.36C243.781 191.072 244.101 190.704 244.309 190.256H247.429C247.205 191.008 246.829 191.696 246.301 192.32C245.789 192.928 245.149 193.408 244.381 193.76C243.629 194.112 242.773 194.288 241.813 194.288ZM241.837 184.304C241.085 184.304 240.421 184.52 239.845 184.952C239.269 185.368 238.901 186.008 238.741 186.872H244.669C244.621 186.088 244.333 185.464 243.805 185C243.277 184.536 242.621 184.304 241.837 184.304ZM130.803 225.288C129.107 225.288 127.651 224.928 126.435 224.208C125.219 223.472 124.283 222.456 123.627 221.16C122.971 219.848 122.643 218.336 122.643 216.624C122.643 214.912 122.971 213.4 123.627 212.088C124.283 210.776 125.219 209.752 126.435 209.016C127.651 208.28 129.107 207.912 130.803 207.912C132.819 207.912 134.467 208.416 135.747 209.424C137.043 210.416 137.851 211.816 138.171 213.624H134.786C134.579 212.712 134.131 212 133.443 211.488C132.771 210.96 131.875 210.696 130.755 210.696C129.203 210.696 127.987 211.224 127.107 212.28C126.227 213.336 125.787 214.784 125.787 216.624C125.787 218.464 126.227 219.912 127.107 220.968C127.987 222.008 129.203 222.528 130.755 222.528C131.875 222.528 132.771 222.288 133.443 221.808C134.131 221.312 134.579 220.632 134.786 219.768H138.171C137.851 221.496 137.043 222.848 135.747 223.824C134.467 224.8 132.819 225.288 130.803 225.288ZM140.318 225V207.72H143.39V214.92C143.79 214.264 144.326 213.752 144.998 213.384C145.686 213 146.47 212.808 147.35 212.808C148.822 212.808 149.958 213.272 150.758 214.2C151.574 215.128 151.982 216.488 151.982 218.28V225H148.934V218.568C148.934 217.544 148.726 216.76 148.31 216.216C147.91 215.672 147.27 215.4 146.39 215.4C145.526 215.4 144.806 215.704 144.23 216.312C143.67 216.92 143.39 217.768 143.39 218.856V225H140.318ZM158.523 225.288C157.499 225.288 156.659 225.128 156.003 224.808C155.347 224.472 154.859 224.032 154.539 223.488C154.219 222.944 154.059 222.344 154.059 221.688C154.059 220.584 154.491 219.688 155.355 219C156.219 218.312 157.515 217.968 159.243 217.968H162.267V217.68C162.267 216.864 162.035 216.264 161.571 215.88C161.107 215.496 160.531 215.304 159.843 215.304C159.219 215.304 158.675 215.456 158.211 215.76C157.747 216.048 157.459 216.48 157.347 217.056H154.347C154.427 216.192 154.715 215.44 155.211 214.8C155.723 214.16 156.379 213.672 157.179 213.336C157.979 212.984 158.875 212.808 159.867 212.808C161.563 212.808 162.899 213.232 163.875 214.08C164.851 214.928 165.339 216.128 165.339 217.68V225H162.723L162.435 223.08C162.083 223.72 161.587 224.248 160.947 224.664C160.323 225.08 159.515 225.288 158.523 225.288ZM159.219 222.888C160.099 222.888 160.779 222.6 161.259 222.024C161.755 221.448 162.067 220.736 162.195 219.888H159.579C158.763 219.888 158.179 220.04 157.827 220.344C157.475 220.632 157.299 220.992 157.299 221.424C157.299 221.888 157.475 222.248 157.827 222.504C158.179 222.76 158.643 222.888 159.219 222.888ZM167.771 225V213.096H170.507L170.795 215.328C171.227 214.56 171.811 213.952 172.547 213.504C173.299 213.04 174.179 212.808 175.187 212.808V216.048H174.323C173.651 216.048 173.051 216.152 172.523 216.36C171.995 216.568 171.579 216.928 171.275 217.44C170.987 217.952 170.843 218.664 170.843 219.576V225H167.771ZM182.091 225C180.843 225 179.843 224.696 179.091 224.088C178.339 223.48 177.963 222.4 177.963 220.848V215.664H175.923V213.096H177.963L178.323 209.904H181.035V213.096H184.251V215.664H181.035V220.872C181.035 221.448 181.155 221.848 181.395 222.072C181.651 222.28 182.083 222.384 182.691 222.384H184.179V225H182.091ZM191.308 225.288C190.252 225.288 189.324 225.12 188.524 224.784C187.724 224.432 187.084 223.952 186.604 223.344C186.124 222.736 185.836 222.032 185.74 221.232H188.836C188.932 221.696 189.188 222.096 189.604 222.432C190.036 222.752 190.588 222.912 191.26 222.912C191.932 222.912 192.42 222.776 192.724 222.504C193.044 222.232 193.204 221.92 193.204 221.568C193.204 221.056 192.98 220.712 192.532 220.536C192.084 220.344 191.46 220.16 190.66 219.984C190.148 219.872 189.628 219.736 189.1 219.576C188.572 219.416 188.084 219.216 187.636 218.976C187.204 218.72 186.852 218.4 186.58 218.016C186.308 217.616 186.172 217.128 186.172 216.552C186.172 215.496 186.588 214.608 187.42 213.888C188.268 213.168 189.452 212.808 190.972 212.808C192.38 212.808 193.5 213.136 194.332 213.792C195.18 214.448 195.684 215.352 195.844 216.504H192.94C192.764 215.624 192.1 215.184 190.948 215.184C190.372 215.184 189.924 215.296 189.604 215.52C189.3 215.744 189.148 216.024 189.148 216.36C189.148 216.712 189.38 216.992 189.844 217.2C190.308 217.408 190.924 217.6 191.692 217.776C192.524 217.968 193.284 218.184 193.972 218.424C194.676 218.648 195.236 218.992 195.652 219.456C196.068 219.904 196.276 220.552 196.276 221.4C196.292 222.136 196.1 222.8 195.7 223.392C195.3 223.984 194.724 224.448 193.972 224.784C193.22 225.12 192.332 225.288 191.308 225.288Z" fill="#141414"/>
<path d="M177.5 108.75H143.75C143.087 108.75 142.451 108.487 141.982 108.018C141.513 107.549 141.25 106.913 141.25 106.25V72.5C141.25 72.1685 141.382 71.8505 141.616 71.6161C141.851 71.3817 142.168 71.25 142.5 71.25C142.832 71.25 143.149 71.3817 143.384 71.6161C143.618 71.8505 143.75 72.1685 143.75 72.5V106.25H177.5C177.832 106.25 178.149 106.382 178.384 106.616C178.618 106.851 178.75 107.168 178.75 107.5C178.75 107.832 178.618 108.149 178.384 108.384C178.149 108.618 177.832 108.75 177.5 108.75Z" fill="white"/>
<path d="M152.188 103.75H149.062C148.317 103.75 147.601 103.454 147.074 102.926C146.546 102.399 146.25 101.683 146.25 100.938V89.0625C146.25 88.3166 146.546 87.6012 147.074 87.0738C147.601 86.5463 148.317 86.25 149.062 86.25H152.188C152.933 86.25 153.649 86.5463 154.176 87.0738C154.704 87.6012 155 88.3166 155 89.0625V100.938C155 101.683 154.704 102.399 154.176 102.926C153.649 103.454 152.933 103.75 152.188 103.75Z" fill="white"/>
<path d="M163.438 103.75H160.312C159.567 103.75 158.851 103.454 158.324 102.926C157.796 102.399 157.5 101.683 157.5 100.938V85.3125C157.5 84.5666 157.796 83.8512 158.324 83.3238C158.851 82.7963 159.567 82.5 160.312 82.5H163.438C164.183 82.5 164.899 82.7963 165.426 83.3238C165.954 83.8512 166.25 84.5666 166.25 85.3125V100.938C166.25 101.683 165.954 102.399 165.426 102.926C164.899 103.454 164.183 103.75 163.438 103.75Z" fill="white"/>
<path d="M174.658 103.75H171.533C170.787 103.75 170.072 103.454 169.544 102.926C169.017 102.399 168.721 101.683 168.721 100.938V80.3125C168.721 79.5666 169.017 78.8512 169.544 78.3238C170.072 77.7963 170.787 77.5 171.533 77.5H174.658C175.404 77.5 176.119 77.7963 176.647 78.3238C177.174 78.8512 177.471 79.5666 177.471 80.3125V100.938C177.471 101.683 177.174 102.399 176.647 102.926C176.119 103.454 175.404 103.75 174.658 103.75Z" fill="white"/>
</svg>
