<svg width="320" height="280" viewBox="0 0 320 280" fill="none" xmlns="http://www.w3.org/2000/svg">
<rect width="320" height="280" rx="30"/>
<rect x="120" y="50" width="80" height="80" rx="20" fill="#E05A33"/>
<path d="M68.9797 194V177.2H79.8277V179.672H72.0517V184.376H78.3397V186.8H72.0517V194H68.9797ZM86.0904 194.288C84.6024 194.288 83.4504 193.824 82.6344 192.896C81.8344 191.968 81.4344 190.608 81.4344 188.816V182.096H84.4824V188.528C84.4824 189.552 84.6904 190.336 85.1064 190.88C85.5224 191.424 86.1784 191.696 87.0744 191.696C87.9224 191.696 88.6184 191.392 89.1624 190.784C89.7224 190.176 90.0024 189.328 90.0024 188.24V182.096H93.0744V194H90.3624L90.1224 191.984C89.7544 192.688 89.2184 193.248 88.5144 193.664C87.8264 194.08 87.0184 194.288 86.0904 194.288ZM95.728 194V176.72H98.8V194H95.728ZM101.439 194V176.72H104.511V194H101.439ZM108.638 199.28L111.398 193.208H110.678L106.046 182.096H109.382L112.718 190.472L116.198 182.096H119.462L111.902 199.28H108.638ZM126.261 194V177.2H132.429C133.773 177.2 134.877 177.432 135.741 177.896C136.621 178.344 137.277 178.96 137.709 179.744C138.141 180.512 138.357 181.368 138.357 182.312C138.357 183.336 138.085 184.272 137.541 185.12C137.013 185.968 136.181 186.584 135.045 186.968L138.525 194H134.997L131.877 187.376H129.333V194H126.261ZM129.333 185.12H132.237C133.261 185.12 134.013 184.872 134.493 184.376C134.973 183.88 135.213 183.224 135.213 182.408C135.213 181.608 134.973 180.968 134.493 180.488C134.029 180.008 133.269 179.768 132.213 179.768H129.333V185.12ZM145.699 194.288C144.499 194.288 143.435 194.032 142.507 193.52C141.579 193.008 140.851 192.288 140.323 191.36C139.795 190.432 139.531 189.36 139.531 188.144C139.531 186.912 139.787 185.816 140.299 184.856C140.827 183.896 141.547 183.152 142.459 182.624C143.387 182.08 144.475 181.808 145.723 181.808C146.891 181.808 147.923 182.064 148.819 182.576C149.715 183.088 150.411 183.792 150.907 184.688C151.419 185.568 151.675 186.552 151.675 187.64C151.675 187.816 151.667 188 151.651 188.192C151.651 188.384 151.643 188.584 151.627 188.792H142.579C142.643 189.72 142.963 190.448 143.539 190.976C144.131 191.504 144.843 191.768 145.675 191.768C146.299 191.768 146.819 191.632 147.235 191.36C147.667 191.072 147.987 190.704 148.195 190.256H151.315C151.091 191.008 150.715 191.696 150.187 192.32C149.675 192.928 149.035 193.408 148.267 193.76C147.515 194.112 146.659 194.288 145.699 194.288ZM145.723 184.304C144.971 184.304 144.307 184.52 143.731 184.952C143.155 185.368 142.787 186.008 142.627 186.872H148.555C148.507 186.088 148.219 185.464 147.691 185C147.163 184.536 146.507 184.304 145.723 184.304ZM158.679 194.288C157.623 194.288 156.695 194.12 155.895 193.784C155.095 193.432 154.455 192.952 153.975 192.344C153.495 191.736 153.207 191.032 153.111 190.232H156.207C156.303 190.696 156.559 191.096 156.975 191.432C157.407 191.752 157.959 191.912 158.631 191.912C159.303 191.912 159.791 191.776 160.095 191.504C160.415 191.232 160.575 190.92 160.575 190.568C160.575 190.056 160.351 189.712 159.903 189.536C159.455 189.344 158.831 189.16 158.031 188.984C157.519 188.872 156.999 188.736 156.471 188.576C155.943 188.416 155.455 188.216 155.007 187.976C154.575 187.72 154.223 187.4 153.951 187.016C153.679 186.616 153.543 186.128 153.543 185.552C153.543 184.496 153.959 183.608 154.791 182.888C155.639 182.168 156.823 181.808 158.343 181.808C159.751 181.808 160.871 182.136 161.703 182.792C162.551 183.448 163.055 184.352 163.215 185.504H160.311C160.135 184.624 159.471 184.184 158.319 184.184C157.743 184.184 157.295 184.296 156.975 184.52C156.671 184.744 156.519 185.024 156.519 185.36C156.519 185.712 156.751 185.992 157.215 186.2C157.679 186.408 158.295 186.6 159.063 186.776C159.895 186.968 160.655 187.184 161.343 187.424C162.047 187.648 162.607 187.992 163.023 188.456C163.439 188.904 163.647 189.552 163.647 190.4C163.663 191.136 163.471 191.8 163.071 192.392C162.671 192.984 162.095 193.448 161.343 193.784C160.591 194.12 159.703 194.288 158.679 194.288ZM165.869 199.28V182.096H168.605L168.941 183.8C169.325 183.272 169.829 182.808 170.453 182.408C171.093 182.008 171.917 181.808 172.925 181.808C174.045 181.808 175.045 182.08 175.925 182.624C176.805 183.168 177.501 183.912 178.013 184.856C178.525 185.8 178.781 186.872 178.781 188.072C178.781 189.272 178.525 190.344 178.013 191.288C177.501 192.216 176.805 192.952 175.925 193.496C175.045 194.024 174.045 194.288 172.925 194.288C172.029 194.288 171.245 194.12 170.573 193.784C169.901 193.448 169.357 192.976 168.941 192.368V199.28H165.869ZM172.277 191.6C173.253 191.6 174.061 191.272 174.701 190.616C175.341 189.96 175.661 189.112 175.661 188.072C175.661 187.032 175.341 186.176 174.701 185.504C174.061 184.832 173.253 184.496 172.277 184.496C171.285 184.496 170.469 184.832 169.829 185.504C169.205 186.16 168.893 187.008 168.893 188.048C168.893 189.088 169.205 189.944 169.829 190.616C170.469 191.272 171.285 191.6 172.277 191.6ZM186.737 194.288C185.585 194.288 184.545 194.024 183.617 193.496C182.705 192.968 181.977 192.24 181.433 191.312C180.905 190.368 180.641 189.28 180.641 188.048C180.641 186.816 180.913 185.736 181.457 184.808C182.001 183.864 182.729 183.128 183.641 182.6C184.569 182.072 185.609 181.808 186.761 181.808C187.897 181.808 188.921 182.072 189.833 182.6C190.761 183.128 191.489 183.864 192.017 184.808C192.561 185.736 192.833 186.816 192.833 188.048C192.833 189.28 192.561 190.368 192.017 191.312C191.489 192.24 190.761 192.968 189.833 193.496C188.905 194.024 187.873 194.288 186.737 194.288ZM186.737 191.624C187.537 191.624 188.233 191.328 188.825 190.736C189.417 190.128 189.713 189.232 189.713 188.048C189.713 186.864 189.417 185.976 188.825 185.384C188.233 184.776 187.545 184.472 186.761 184.472C185.945 184.472 185.241 184.776 184.649 185.384C184.073 185.976 183.785 186.864 183.785 188.048C183.785 189.232 184.073 190.128 184.649 190.736C185.241 191.328 185.937 191.624 186.737 191.624ZM195.08 194V182.096H197.792L198.032 184.112C198.4 183.408 198.928 182.848 199.616 182.432C200.32 182.016 201.144 181.808 202.088 181.808C203.56 181.808 204.704 182.272 205.52 183.2C206.336 184.128 206.744 185.488 206.744 187.28V194H203.672V187.568C203.672 186.544 203.464 185.76 203.048 185.216C202.632 184.672 201.984 184.4 201.104 184.4C200.24 184.4 199.528 184.704 198.968 185.312C198.424 185.92 198.152 186.768 198.152 187.856V194H195.08ZM214.101 194.288C213.045 194.288 212.117 194.12 211.317 193.784C210.517 193.432 209.877 192.952 209.397 192.344C208.917 191.736 208.629 191.032 208.533 190.232H211.629C211.725 190.696 211.981 191.096 212.397 191.432C212.829 191.752 213.381 191.912 214.053 191.912C214.725 191.912 215.213 191.776 215.517 191.504C215.837 191.232 215.997 190.92 215.997 190.568C215.997 190.056 215.773 189.712 215.325 189.536C214.877 189.344 214.253 189.16 213.453 188.984C212.941 188.872 212.421 188.736 211.893 188.576C211.365 188.416 210.877 188.216 210.429 187.976C209.997 187.72 209.645 187.4 209.373 187.016C209.101 186.616 208.965 186.128 208.965 185.552C208.965 184.496 209.381 183.608 210.213 182.888C211.061 182.168 212.245 181.808 213.765 181.808C215.173 181.808 216.293 182.136 217.125 182.792C217.973 183.448 218.477 184.352 218.637 185.504H215.733C215.557 184.624 214.893 184.184 213.741 184.184C213.165 184.184 212.717 184.296 212.397 184.52C212.093 184.744 211.941 185.024 211.941 185.36C211.941 185.712 212.173 185.992 212.637 186.2C213.101 186.408 213.717 186.6 214.485 186.776C215.317 186.968 216.077 187.184 216.765 187.424C217.469 187.648 218.029 187.992 218.445 188.456C218.861 188.904 219.069 189.552 219.069 190.4C219.085 191.136 218.893 191.8 218.493 192.392C218.093 192.984 217.517 193.448 216.765 193.784C216.013 194.12 215.125 194.288 214.101 194.288ZM222.946 180.248C222.386 180.248 221.922 180.08 221.554 179.744C221.202 179.408 221.026 178.984 221.026 178.472C221.026 177.96 221.202 177.544 221.554 177.224C221.922 176.888 222.386 176.72 222.946 176.72C223.506 176.72 223.962 176.888 224.314 177.224C224.682 177.544 224.866 177.96 224.866 178.472C224.866 178.984 224.682 179.408 224.314 179.744C223.962 180.08 223.506 180.248 222.946 180.248ZM221.41 194V182.096H224.482V194H221.41ZM230.405 194L226.037 182.096H229.253L232.277 191.096L235.301 182.096H238.517L234.125 194H230.405ZM245.153 194.288C243.953 194.288 242.889 194.032 241.961 193.52C241.033 193.008 240.305 192.288 239.777 191.36C239.249 190.432 238.985 189.36 238.985 188.144C238.985 186.912 239.241 185.816 239.753 184.856C240.281 183.896 241.001 183.152 241.913 182.624C242.841 182.08 243.929 181.808 245.177 181.808C246.345 181.808 247.377 182.064 248.273 182.576C249.169 183.088 249.865 183.792 250.361 184.688C250.873 185.568 251.129 186.552 251.129 187.64C251.129 187.816 251.121 188 251.105 188.192C251.105 188.384 251.097 188.584 251.081 188.792H242.033C242.097 189.72 242.417 190.448 242.993 190.976C243.585 191.504 244.297 191.768 245.129 191.768C245.753 191.768 246.273 191.632 246.689 191.36C247.121 191.072 247.441 190.704 247.649 190.256H250.769C250.545 191.008 250.169 191.696 249.641 192.32C249.129 192.928 248.489 193.408 247.721 193.76C246.969 194.112 246.113 194.288 245.153 194.288ZM245.177 184.304C244.425 184.304 243.761 184.52 243.185 184.952C242.609 185.368 242.241 186.008 242.081 186.872H248.009C247.961 186.088 247.673 185.464 247.145 185C246.617 184.536 245.961 184.304 245.177 184.304ZM116.019 225V208.2H122.187C123.531 208.2 124.635 208.432 125.499 208.896C126.379 209.344 127.035 209.96 127.467 210.744C127.899 211.512 128.115 212.368 128.115 213.312C128.115 214.336 127.843 215.272 127.299 216.12C126.771 216.968 125.939 217.584 124.803 217.968L128.283 225H124.755L121.635 218.376H119.091V225H116.019ZM119.091 216.12H121.995C123.019 216.12 123.771 215.872 124.251 215.376C124.731 214.88 124.971 214.224 124.971 213.408C124.971 212.608 124.731 211.968 124.251 211.488C123.787 211.008 123.027 210.768 121.971 210.768H119.091V216.12ZM135.457 225.288C134.257 225.288 133.193 225.032 132.265 224.52C131.337 224.008 130.609 223.288 130.081 222.36C129.553 221.432 129.289 220.36 129.289 219.144C129.289 217.912 129.545 216.816 130.057 215.856C130.585 214.896 131.305 214.152 132.217 213.624C133.145 213.08 134.233 212.808 135.481 212.808C136.649 212.808 137.681 213.064 138.577 213.576C139.473 214.088 140.169 214.792 140.665 215.688C141.177 216.568 141.433 217.552 141.433 218.64C141.433 218.816 141.425 219 141.409 219.192C141.409 219.384 141.401 219.584 141.385 219.792H132.337C132.401 220.72 132.721 221.448 133.297 221.976C133.889 222.504 134.601 222.768 135.433 222.768C136.057 222.768 136.577 222.632 136.993 222.36C137.425 222.072 137.745 221.704 137.953 221.256H141.073C140.849 222.008 140.473 222.696 139.945 223.32C139.433 223.928 138.793 224.408 138.025 224.76C137.273 225.112 136.417 225.288 135.457 225.288ZM135.481 215.304C134.729 215.304 134.065 215.52 133.489 215.952C132.913 216.368 132.545 217.008 132.385 217.872H138.313C138.265 217.088 137.977 216.464 137.449 216C136.921 215.536 136.265 215.304 135.481 215.304ZM148.437 225.288C147.381 225.288 146.453 225.12 145.653 224.784C144.853 224.432 144.213 223.952 143.733 223.344C143.253 222.736 142.965 222.032 142.869 221.232H145.965C146.061 221.696 146.317 222.096 146.733 222.432C147.165 222.752 147.717 222.912 148.389 222.912C149.061 222.912 149.549 222.776 149.853 222.504C150.173 222.232 150.333 221.92 150.333 221.568C150.333 221.056 150.109 220.712 149.661 220.536C149.213 220.344 148.589 220.16 147.789 219.984C147.277 219.872 146.757 219.736 146.229 219.576C145.701 219.416 145.213 219.216 144.765 218.976C144.333 218.72 143.981 218.4 143.709 218.016C143.437 217.616 143.301 217.128 143.301 216.552C143.301 215.496 143.717 214.608 144.549 213.888C145.397 213.168 146.581 212.808 148.101 212.808C149.509 212.808 150.629 213.136 151.461 213.792C152.309 214.448 152.813 215.352 152.973 216.504H150.069C149.893 215.624 149.229 215.184 148.077 215.184C147.501 215.184 147.053 215.296 146.733 215.52C146.429 215.744 146.277 216.024 146.277 216.36C146.277 216.712 146.509 216.992 146.973 217.2C147.437 217.408 148.053 217.6 148.821 217.776C149.653 217.968 150.413 218.184 151.101 218.424C151.805 218.648 152.365 218.992 152.781 219.456C153.197 219.904 153.405 220.552 153.405 221.4C153.421 222.136 153.229 222.8 152.829 223.392C152.429 223.984 151.853 224.448 151.101 224.784C150.349 225.12 149.461 225.288 148.437 225.288ZM157.282 211.248C156.722 211.248 156.258 211.08 155.89 210.744C155.538 210.408 155.362 209.984 155.362 209.472C155.362 208.96 155.538 208.544 155.89 208.224C156.258 207.888 156.722 207.72 157.282 207.72C157.842 207.72 158.298 207.888 158.65 208.224C159.018 208.544 159.202 208.96 159.202 209.472C159.202 209.984 159.018 210.408 158.65 210.744C158.298 211.08 157.842 211.248 157.282 211.248ZM155.746 225V213.096H158.818V225H155.746ZM160.757 225V222.528L166.829 215.64H160.829V213.096H170.333V215.568L164.165 222.456H170.453V225H160.757ZM174.165 211.248C173.605 211.248 173.141 211.08 172.773 210.744C172.421 210.408 172.245 209.984 172.245 209.472C172.245 208.96 172.421 208.544 172.773 208.224C173.141 207.888 173.605 207.72 174.165 207.72C174.725 207.72 175.181 207.888 175.533 208.224C175.901 208.544 176.085 208.96 176.085 209.472C176.085 209.984 175.901 210.408 175.533 210.744C175.181 211.08 174.725 211.248 174.165 211.248ZM172.629 225V213.096H175.701V225H172.629ZM178.408 225V213.096H181.12L181.36 215.112C181.728 214.408 182.256 213.848 182.944 213.432C183.648 213.016 184.472 212.808 185.416 212.808C186.888 212.808 188.032 213.272 188.848 214.2C189.664 215.128 190.072 216.488 190.072 218.28V225H187V218.568C187 217.544 186.792 216.76 186.376 216.216C185.96 215.672 185.312 215.4 184.432 215.4C183.568 215.4 182.856 215.704 182.296 216.312C181.752 216.92 181.48 217.768 181.48 218.856V225H178.408ZM197.549 221.448C196.973 221.448 196.437 221.384 195.941 221.256L195.053 222.144C195.325 222.288 195.693 222.408 196.157 222.504C196.621 222.6 197.373 222.696 198.413 222.792C199.997 222.936 201.149 223.312 201.869 223.92C202.589 224.528 202.949 225.368 202.949 226.44C202.949 227.144 202.757 227.808 202.373 228.432C201.989 229.072 201.397 229.584 200.597 229.968C199.797 230.368 198.773 230.568 197.525 230.568C195.829 230.568 194.461 230.248 193.421 229.608C192.381 228.984 191.861 228.04 191.861 226.776C191.861 225.704 192.381 224.776 193.421 223.992C193.101 223.848 192.821 223.696 192.581 223.536C192.357 223.376 192.157 223.208 191.981 223.032V222.48L194.069 220.272C193.141 219.456 192.677 218.408 192.677 217.128C192.677 216.328 192.869 215.6 193.253 214.944C193.653 214.288 194.213 213.768 194.933 213.384C195.653 213 196.525 212.808 197.549 212.808C198.221 212.808 198.845 212.904 199.421 213.096H203.933V214.968L201.893 215.112C202.213 215.72 202.373 216.392 202.373 217.128C202.373 217.928 202.181 218.656 201.797 219.312C201.413 219.968 200.853 220.488 200.117 220.872C199.397 221.256 198.541 221.448 197.549 221.448ZM197.549 219.096C198.173 219.096 198.685 218.928 199.085 218.592C199.501 218.256 199.709 217.776 199.709 217.152C199.709 216.528 199.501 216.048 199.085 215.712C198.685 215.376 198.173 215.208 197.549 215.208C196.893 215.208 196.365 215.376 195.965 215.712C195.565 216.048 195.365 216.528 195.365 217.152C195.365 217.776 195.565 218.256 195.965 218.592C196.365 218.928 196.893 219.096 197.549 219.096ZM194.669 226.464C194.669 227.056 194.941 227.496 195.485 227.784C196.045 228.088 196.725 228.24 197.525 228.24C198.293 228.24 198.917 228.08 199.397 227.76C199.877 227.456 200.117 227.04 200.117 226.512C200.117 226.08 199.957 225.72 199.637 225.432C199.333 225.144 198.717 224.968 197.789 224.904C197.133 224.856 196.525 224.784 195.965 224.688C195.501 224.944 195.165 225.224 194.957 225.528C194.765 225.832 194.669 226.144 194.669 226.464Z" fill="#141414"/>
<path d="M163.75 102.5V93.75H172.5" stroke="white" stroke-width="2.5" stroke-linecap="round" stroke-linejoin="round"/>
<path d="M164.547 94.5493L173.75 103.75" stroke="white" stroke-width="2.5" stroke-linecap="round" stroke-linejoin="round"/>
<path d="M156.25 77.5V86.25H147.5" stroke="white" stroke-width="2.5" stroke-linecap="round" stroke-linejoin="round"/>
<path d="M155.453 85.4508L146.25 76.25" stroke="white" stroke-width="2.5" stroke-linecap="round" stroke-linejoin="round"/>
<path d="M172.5 86.25H163.75V77.5" stroke="white" stroke-width="2.5" stroke-linecap="round" stroke-linejoin="round"/>
<path d="M164.549 85.4531L173.75 76.25" stroke="white" stroke-width="2.5" stroke-linecap="round" stroke-linejoin="round"/>
<path d="M147.5 93.75H156.25V102.5" stroke="white" stroke-width="2.5" stroke-linecap="round" stroke-linejoin="round"/>
<path d="M155.451 94.5469L146.25 103.75" stroke="white" stroke-width="2.5" stroke-linecap="round" stroke-linejoin="round"/>
</svg>
