<svg width="320" height="280" viewBox="0 0 320 280" fill="none" xmlns="http://www.w3.org/2000/svg">
<rect width="320" height="280" rx="30"/>
<rect x="120" y="50" width="80" height="80" rx="20" fill="#60E033"/>
<path d="M93.7306 194.288C92.0506 194.288 90.5786 193.92 89.3146 193.184C88.0666 192.448 87.0826 191.432 86.3626 190.136C85.6586 188.824 85.3066 187.312 85.3066 185.6C85.3066 183.888 85.6586 182.384 86.3626 181.088C87.0826 179.776 88.0666 178.752 89.3146 178.016C90.5786 177.28 92.0506 176.912 93.7306 176.912C95.3946 176.912 96.8586 177.28 98.1226 178.016C99.3866 178.752 100.371 179.776 101.075 181.088C101.779 182.384 102.131 183.888 102.131 185.6C102.131 187.312 101.779 188.824 101.075 190.136C100.371 191.432 99.3866 192.448 98.1226 193.184C96.8586 193.92 95.3946 194.288 93.7306 194.288ZM93.7306 191.528C95.3306 191.528 96.6026 191 97.5466 189.944C98.5066 188.888 98.9866 187.44 98.9866 185.6C98.9866 183.76 98.5066 182.312 97.5466 181.256C96.6026 180.2 95.3306 179.672 93.7306 179.672C92.1306 179.672 90.8506 180.2 89.8906 181.256C88.9306 182.312 88.4506 183.76 88.4506 185.6C88.4506 187.44 88.9306 188.888 89.8906 189.944C90.8506 191 92.1306 191.528 93.7306 191.528ZM104.271 199.28V182.096H107.007L107.343 183.8C107.727 183.272 108.231 182.808 108.855 182.408C109.495 182.008 110.319 181.808 111.327 181.808C112.447 181.808 113.447 182.08 114.327 182.624C115.207 183.168 115.903 183.912 116.415 184.856C116.927 185.8 117.183 186.872 117.183 188.072C117.183 189.272 116.927 190.344 116.415 191.288C115.903 192.216 115.207 192.952 114.327 193.496C113.447 194.024 112.447 194.288 111.327 194.288C110.431 194.288 109.647 194.12 108.975 193.784C108.303 193.448 107.759 192.976 107.343 192.368V199.28H104.271ZM110.679 191.6C111.655 191.6 112.463 191.272 113.103 190.616C113.743 189.96 114.063 189.112 114.063 188.072C114.063 187.032 113.743 186.176 113.103 185.504C112.463 184.832 111.655 184.496 110.679 184.496C109.687 184.496 108.871 184.832 108.231 185.504C107.607 186.16 107.295 187.008 107.295 188.048C107.295 189.088 107.607 189.944 108.231 190.616C108.871 191.272 109.687 191.6 110.679 191.6ZM125.211 194.288C124.011 194.288 122.947 194.032 122.019 193.52C121.091 193.008 120.363 192.288 119.835 191.36C119.307 190.432 119.043 189.36 119.043 188.144C119.043 186.912 119.299 185.816 119.811 184.856C120.339 183.896 121.059 183.152 121.971 182.624C122.899 182.08 123.987 181.808 125.235 181.808C126.403 181.808 127.435 182.064 128.331 182.576C129.227 183.088 129.923 183.792 130.419 184.688C130.931 185.568 131.187 186.552 131.187 187.64C131.187 187.816 131.179 188 131.163 188.192C131.163 188.384 131.155 188.584 131.139 188.792H122.091C122.155 189.72 122.475 190.448 123.051 190.976C123.643 191.504 124.355 191.768 125.187 191.768C125.811 191.768 126.331 191.632 126.747 191.36C127.179 191.072 127.499 190.704 127.707 190.256H130.827C130.603 191.008 130.227 191.696 129.699 192.32C129.187 192.928 128.547 193.408 127.779 193.76C127.027 194.112 126.171 194.288 125.211 194.288ZM125.235 184.304C124.483 184.304 123.819 184.52 123.243 184.952C122.667 185.368 122.299 186.008 122.139 186.872H128.067C128.019 186.088 127.731 185.464 127.203 185C126.675 184.536 126.019 184.304 125.235 184.304ZM133.271 194V182.096H135.983L136.223 184.112C136.591 183.408 137.119 182.848 137.807 182.432C138.511 182.016 139.335 181.808 140.279 181.808C141.751 181.808 142.895 182.272 143.711 183.2C144.527 184.128 144.935 185.488 144.935 187.28V194H141.863V187.568C141.863 186.544 141.655 185.76 141.239 185.216C140.823 184.672 140.175 184.4 139.295 184.4C138.431 184.4 137.719 184.704 137.159 185.312C136.615 185.92 136.343 186.768 136.343 187.856V194H133.271ZM147.109 188.336V185.768H157.165V188.336H147.109ZM164.449 194.288C163.393 194.288 162.465 194.12 161.665 193.784C160.865 193.432 160.225 192.952 159.745 192.344C159.265 191.736 158.977 191.032 158.881 190.232H161.977C162.073 190.696 162.329 191.096 162.745 191.432C163.177 191.752 163.729 191.912 164.401 191.912C165.073 191.912 165.561 191.776 165.865 191.504C166.185 191.232 166.345 190.92 166.345 190.568C166.345 190.056 166.121 189.712 165.673 189.536C165.225 189.344 164.601 189.16 163.801 188.984C163.289 188.872 162.769 188.736 162.241 188.576C161.713 188.416 161.225 188.216 160.777 187.976C160.345 187.72 159.993 187.4 159.721 187.016C159.449 186.616 159.313 186.128 159.313 185.552C159.313 184.496 159.729 183.608 160.561 182.888C161.409 182.168 162.593 181.808 164.113 181.808C165.521 181.808 166.641 182.136 167.473 182.792C168.321 183.448 168.825 184.352 168.985 185.504H166.081C165.905 184.624 165.241 184.184 164.089 184.184C163.513 184.184 163.065 184.296 162.745 184.52C162.441 184.744 162.289 185.024 162.289 185.36C162.289 185.712 162.521 185.992 162.985 186.2C163.449 186.408 164.065 186.6 164.833 186.776C165.665 186.968 166.425 187.184 167.113 187.424C167.817 187.648 168.377 187.992 168.793 188.456C169.209 188.904 169.417 189.552 169.417 190.4C169.433 191.136 169.241 191.8 168.841 192.392C168.441 192.984 167.865 193.448 167.113 193.784C166.361 194.12 165.473 194.288 164.449 194.288ZM177.35 194.288C176.198 194.288 175.158 194.024 174.23 193.496C173.318 192.968 172.59 192.24 172.046 191.312C171.518 190.368 171.254 189.28 171.254 188.048C171.254 186.816 171.526 185.736 172.07 184.808C172.614 183.864 173.342 183.128 174.254 182.6C175.182 182.072 176.222 181.808 177.374 181.808C178.51 181.808 179.534 182.072 180.446 182.6C181.374 183.128 182.102 183.864 182.63 184.808C183.174 185.736 183.446 186.816 183.446 188.048C183.446 189.28 183.174 190.368 182.63 191.312C182.102 192.24 181.374 192.968 180.446 193.496C179.518 194.024 178.486 194.288 177.35 194.288ZM177.35 191.624C178.15 191.624 178.846 191.328 179.438 190.736C180.03 190.128 180.326 189.232 180.326 188.048C180.326 186.864 180.03 185.976 179.438 185.384C178.846 184.776 178.158 184.472 177.374 184.472C176.558 184.472 175.854 184.776 175.262 185.384C174.686 185.976 174.398 186.864 174.398 188.048C174.398 189.232 174.686 190.128 175.262 190.736C175.854 191.328 176.55 191.624 177.35 191.624ZM190.157 194.288C188.669 194.288 187.517 193.824 186.701 192.896C185.901 191.968 185.501 190.608 185.501 188.816V182.096H188.549V188.528C188.549 189.552 188.757 190.336 189.173 190.88C189.589 191.424 190.245 191.696 191.141 191.696C191.989 191.696 192.685 191.392 193.229 190.784C193.789 190.176 194.069 189.328 194.069 188.24V182.096H197.141V194H194.429L194.189 191.984C193.821 192.688 193.285 193.248 192.581 193.664C191.893 194.08 191.085 194.288 190.157 194.288ZM199.794 194V182.096H202.53L202.818 184.328C203.25 183.56 203.834 182.952 204.57 182.504C205.322 182.04 206.202 181.808 207.21 181.808V185.048H206.346C205.674 185.048 205.074 185.152 204.546 185.36C204.018 185.568 203.602 185.928 203.298 186.44C203.01 186.952 202.866 187.664 202.866 188.576V194H199.794ZM214.431 194.288C213.215 194.288 212.143 194.024 211.215 193.496C210.287 192.968 209.551 192.232 209.007 191.288C208.479 190.344 208.215 189.264 208.215 188.048C208.215 186.832 208.479 185.752 209.007 184.808C209.551 183.864 210.287 183.128 211.215 182.6C212.143 182.072 213.215 181.808 214.431 181.808C215.951 181.808 217.231 182.208 218.271 183.008C219.311 183.792 219.975 184.88 220.263 186.272H217.023C216.863 185.696 216.543 185.248 216.063 184.928C215.599 184.592 215.047 184.424 214.407 184.424C213.559 184.424 212.839 184.744 212.247 185.384C211.655 186.024 211.359 186.912 211.359 188.048C211.359 189.184 211.655 190.072 212.247 190.712C212.839 191.352 213.559 191.672 214.407 191.672C215.047 191.672 215.599 191.512 216.063 191.192C216.543 190.872 216.863 190.416 217.023 189.824H220.263C219.975 191.168 219.311 192.248 218.271 193.064C217.231 193.88 215.951 194.288 214.431 194.288ZM228.274 194.288C227.074 194.288 226.01 194.032 225.082 193.52C224.154 193.008 223.426 192.288 222.898 191.36C222.37 190.432 222.106 189.36 222.106 188.144C222.106 186.912 222.362 185.816 222.874 184.856C223.402 183.896 224.122 183.152 225.034 182.624C225.962 182.08 227.05 181.808 228.298 181.808C229.466 181.808 230.498 182.064 231.394 182.576C232.29 183.088 232.986 183.792 233.482 184.688C233.994 185.568 234.25 186.552 234.25 187.64C234.25 187.816 234.242 188 234.226 188.192C234.226 188.384 234.218 188.584 234.202 188.792H225.154C225.218 189.72 225.538 190.448 226.114 190.976C226.706 191.504 227.418 191.768 228.25 191.768C228.874 191.768 229.394 191.632 229.81 191.36C230.242 191.072 230.562 190.704 230.77 190.256H233.89C233.666 191.008 233.29 191.696 232.762 192.32C232.25 192.928 231.61 193.408 230.842 193.76C230.09 194.112 229.234 194.288 228.274 194.288ZM228.298 184.304C227.546 184.304 226.882 184.52 226.306 184.952C225.73 185.368 225.362 186.008 225.202 186.872H231.13C231.082 186.088 230.794 185.464 230.266 185C229.738 184.536 229.082 184.304 228.298 184.304ZM101.624 225.288C100.04 225.288 98.6564 224.928 97.4724 224.208C96.2884 223.488 95.3684 222.488 94.7124 221.208C94.0564 219.912 93.7284 218.408 93.7284 216.696C93.7284 214.968 94.0644 213.448 94.7364 212.136C95.4244 210.808 96.3924 209.776 97.6404 209.04C98.9044 208.288 100.4 207.912 102.128 207.912C104.096 207.912 105.728 208.384 107.024 209.328C108.32 210.272 109.16 211.576 109.544 213.24H106.112C105.856 212.456 105.392 211.848 104.72 211.416C104.048 210.968 103.184 210.744 102.128 210.744C100.448 210.744 99.1524 211.28 98.2404 212.352C97.3284 213.408 96.8724 214.864 96.8724 216.72C96.8724 218.576 97.3204 220.016 98.2164 221.04C99.1284 222.048 100.36 222.552 101.912 222.552C103.432 222.552 104.576 222.144 105.344 221.328C106.128 220.496 106.6 219.408 106.76 218.064H102.512V215.76H109.856V225H107.024L106.784 222.792C106.24 223.592 105.56 224.208 104.744 224.64C103.928 225.072 102.888 225.288 101.624 225.288ZM117.983 225.288C116.831 225.288 115.791 225.024 114.863 224.496C113.951 223.968 113.223 223.24 112.679 222.312C112.151 221.368 111.887 220.28 111.887 219.048C111.887 217.816 112.159 216.736 112.703 215.808C113.247 214.864 113.975 214.128 114.887 213.6C115.815 213.072 116.855 212.808 118.007 212.808C119.143 212.808 120.167 213.072 121.079 213.6C122.007 214.128 122.735 214.864 123.263 215.808C123.807 216.736 124.079 217.816 124.079 219.048C124.079 220.28 123.807 221.368 123.263 222.312C122.735 223.24 122.007 223.968 121.079 224.496C120.151 225.024 119.119 225.288 117.983 225.288ZM117.983 222.624C118.783 222.624 119.479 222.328 120.071 221.736C120.663 221.128 120.959 220.232 120.959 219.048C120.959 217.864 120.663 216.976 120.071 216.384C119.479 215.776 118.791 215.472 118.007 215.472C117.191 215.472 116.487 215.776 115.895 216.384C115.319 216.976 115.031 217.864 115.031 219.048C115.031 220.232 115.319 221.128 115.895 221.736C116.487 222.328 117.183 222.624 117.983 222.624ZM132.038 225.288C130.886 225.288 129.846 225.024 128.918 224.496C128.006 223.968 127.278 223.24 126.734 222.312C126.206 221.368 125.942 220.28 125.942 219.048C125.942 217.816 126.214 216.736 126.758 215.808C127.302 214.864 128.03 214.128 128.942 213.6C129.87 213.072 130.91 212.808 132.062 212.808C133.198 212.808 134.222 213.072 135.134 213.6C136.062 214.128 136.79 214.864 137.318 215.808C137.862 216.736 138.134 217.816 138.134 219.048C138.134 220.28 137.862 221.368 137.318 222.312C136.79 223.24 136.062 223.968 135.134 224.496C134.206 225.024 133.174 225.288 132.038 225.288ZM132.038 222.624C132.838 222.624 133.534 222.328 134.126 221.736C134.718 221.128 135.014 220.232 135.014 219.048C135.014 217.864 134.718 216.976 134.126 216.384C133.534 215.776 132.846 215.472 132.062 215.472C131.246 215.472 130.542 215.776 129.95 216.384C129.374 216.976 129.086 217.864 129.086 219.048C129.086 220.232 129.374 221.128 129.95 221.736C130.542 222.328 131.238 222.624 132.038 222.624ZM144.67 221.448C144.094 221.448 143.558 221.384 143.062 221.256L142.174 222.144C142.446 222.288 142.814 222.408 143.278 222.504C143.742 222.6 144.494 222.696 145.534 222.792C147.118 222.936 148.27 223.312 148.99 223.92C149.71 224.528 150.07 225.368 150.07 226.44C150.07 227.144 149.878 227.808 149.494 228.432C149.11 229.072 148.518 229.584 147.718 229.968C146.918 230.368 145.894 230.568 144.646 230.568C142.95 230.568 141.582 230.248 140.542 229.608C139.502 228.984 138.982 228.04 138.982 226.776C138.982 225.704 139.502 224.776 140.542 223.992C140.222 223.848 139.942 223.696 139.702 223.536C139.478 223.376 139.278 223.208 139.102 223.032V222.48L141.19 220.272C140.262 219.456 139.798 218.408 139.798 217.128C139.798 216.328 139.99 215.6 140.374 214.944C140.774 214.288 141.334 213.768 142.054 213.384C142.774 213 143.646 212.808 144.67 212.808C145.342 212.808 145.966 212.904 146.542 213.096H151.054V214.968L149.014 215.112C149.334 215.72 149.494 216.392 149.494 217.128C149.494 217.928 149.302 218.656 148.918 219.312C148.534 219.968 147.974 220.488 147.238 220.872C146.518 221.256 145.662 221.448 144.67 221.448ZM144.67 219.096C145.294 219.096 145.806 218.928 146.206 218.592C146.622 218.256 146.83 217.776 146.83 217.152C146.83 216.528 146.622 216.048 146.206 215.712C145.806 215.376 145.294 215.208 144.67 215.208C144.014 215.208 143.486 215.376 143.086 215.712C142.686 216.048 142.486 216.528 142.486 217.152C142.486 217.776 142.686 218.256 143.086 218.592C143.486 218.928 144.014 219.096 144.67 219.096ZM141.79 226.464C141.79 227.056 142.062 227.496 142.606 227.784C143.166 228.088 143.846 228.24 144.646 228.24C145.414 228.24 146.038 228.08 146.518 227.76C146.998 227.456 147.238 227.04 147.238 226.512C147.238 226.08 147.078 225.72 146.758 225.432C146.454 225.144 145.838 224.968 144.91 224.904C144.254 224.856 143.646 224.784 143.086 224.688C142.622 224.944 142.286 225.224 142.078 225.528C141.886 225.832 141.79 226.144 141.79 226.464ZM152.794 225V207.72H155.866V225H152.794ZM164.289 225.288C163.089 225.288 162.025 225.032 161.097 224.52C160.169 224.008 159.441 223.288 158.913 222.36C158.385 221.432 158.121 220.36 158.121 219.144C158.121 217.912 158.377 216.816 158.889 215.856C159.417 214.896 160.137 214.152 161.049 213.624C161.977 213.08 163.065 212.808 164.313 212.808C165.481 212.808 166.513 213.064 167.409 213.576C168.305 214.088 169.001 214.792 169.497 215.688C170.009 216.568 170.265 217.552 170.265 218.64C170.265 218.816 170.257 219 170.241 219.192C170.241 219.384 170.233 219.584 170.217 219.792H161.169C161.233 220.72 161.553 221.448 162.129 221.976C162.721 222.504 163.433 222.768 164.265 222.768C164.889 222.768 165.409 222.632 165.825 222.36C166.257 222.072 166.577 221.704 166.785 221.256H169.905C169.681 222.008 169.305 222.696 168.777 223.32C168.265 223.928 167.625 224.408 166.857 224.76C166.105 225.112 165.249 225.288 164.289 225.288ZM164.313 215.304C163.561 215.304 162.897 215.52 162.321 215.952C161.745 216.368 161.377 217.008 161.217 217.872H167.145C167.097 217.088 166.809 216.464 166.281 216C165.753 215.536 165.097 215.304 164.313 215.304ZM177.64 225V208.2H188.488V210.672H180.712V215.376H187V217.8H180.712V225H177.64ZM195.366 225.288C194.214 225.288 193.174 225.024 192.246 224.496C191.334 223.968 190.606 223.24 190.062 222.312C189.534 221.368 189.27 220.28 189.27 219.048C189.27 217.816 189.542 216.736 190.086 215.808C190.63 214.864 191.358 214.128 192.27 213.6C193.198 213.072 194.238 212.808 195.39 212.808C196.526 212.808 197.55 213.072 198.462 213.6C199.39 214.128 200.118 214.864 200.646 215.808C201.19 216.736 201.462 217.816 201.462 219.048C201.462 220.28 201.19 221.368 200.646 222.312C200.118 223.24 199.39 223.968 198.462 224.496C197.534 225.024 196.502 225.288 195.366 225.288ZM195.366 222.624C196.166 222.624 196.862 222.328 197.454 221.736C198.046 221.128 198.342 220.232 198.342 219.048C198.342 217.864 198.046 216.976 197.454 216.384C196.862 215.776 196.174 215.472 195.39 215.472C194.574 215.472 193.87 215.776 193.278 216.384C192.702 216.976 192.414 217.864 192.414 219.048C192.414 220.232 192.702 221.128 193.278 221.736C193.87 222.328 194.566 222.624 195.366 222.624ZM203.708 225V213.096H206.42L206.66 215.112C207.028 214.408 207.556 213.848 208.244 213.432C208.948 213.016 209.772 212.808 210.716 212.808C212.188 212.808 213.332 213.272 214.148 214.2C214.964 215.128 215.372 216.488 215.372 218.28V225H212.3V218.568C212.3 217.544 212.092 216.76 211.676 216.216C211.26 215.672 210.612 215.4 209.732 215.4C208.868 215.4 208.156 215.704 207.596 216.312C207.052 216.92 206.78 217.768 206.78 218.856V225H203.708ZM223.114 225C221.866 225 220.866 224.696 220.114 224.088C219.362 223.48 218.986 222.4 218.986 220.848V215.664H216.946V213.096H218.986L219.346 209.904H222.058V213.096H225.274V215.664H222.058V220.872C222.058 221.448 222.178 221.848 222.418 222.072C222.674 222.28 223.106 222.384 223.714 222.384H225.202V225H223.114Z" fill="#141414"/>
<path d="M162.858 101.858L153.483 76.8576C153.36 76.53 153.14 76.2476 152.852 76.0483C152.565 75.849 152.223 75.7422 151.873 75.7422C151.523 75.7422 151.182 75.849 150.894 76.0483C150.607 76.2476 150.387 76.53 150.264 76.8576L140.889 101.858C140.734 102.283 140.753 102.753 140.943 103.165C141.132 103.576 141.476 103.896 141.901 104.055C142.325 104.214 142.795 104.199 143.208 104.014C143.621 103.828 143.945 103.487 144.108 103.064L146.933 95.531C146.944 95.5013 146.964 95.4756 146.99 95.4574C147.016 95.4393 147.047 95.4295 147.079 95.4295H156.668C156.7 95.4295 156.731 95.4393 156.757 95.4574C156.783 95.4756 156.803 95.5013 156.814 95.531L159.639 103.064C159.802 103.487 160.125 103.828 160.538 104.014C160.952 104.199 161.422 104.214 161.846 104.055C162.27 103.896 162.614 103.576 162.804 103.165C162.993 102.753 163.013 102.283 162.858 101.858ZM148.339 91.7795L151.727 82.7443C151.738 82.7147 151.758 82.6892 151.785 82.6711C151.811 82.6531 151.842 82.6435 151.873 82.6435C151.905 82.6435 151.936 82.6531 151.962 82.6711C151.988 82.6892 152.008 82.7147 152.019 82.7443L155.408 91.781C155.417 91.8047 155.419 91.8301 155.416 91.8551C155.413 91.8801 155.404 91.904 155.39 91.9247C155.375 91.9454 155.356 91.9624 155.334 91.9741C155.312 91.9858 155.287 91.9919 155.262 91.992H148.485C148.46 91.9919 148.435 91.9858 148.413 91.9741C148.39 91.9624 148.371 91.9454 148.357 91.9247C148.343 91.904 148.333 91.8801 148.33 91.8551C148.327 91.8301 148.33 91.8047 148.339 91.781V91.7795Z" fill="white"/>
<path d="M171.31 83.2424C168.051 83.219 165.132 85.1072 163.888 88.0393C163.71 88.4589 163.706 88.932 163.877 89.3547C164.047 89.7774 164.379 90.115 164.798 90.2932C165.218 90.4714 165.691 90.4756 166.114 90.3049C166.537 90.1342 166.874 89.8026 167.052 89.383C167.746 87.751 169.378 86.6924 171.218 86.6799C173.743 86.6627 175.781 88.7502 175.781 91.2776C175.781 91.308 175.769 91.3372 175.748 91.3591C175.727 91.3809 175.698 91.3937 175.668 91.3947C173.955 91.4424 171.924 91.5565 170.112 91.7697C165.834 92.2729 163.281 94.6049 163.281 98.008C163.281 99.8197 163.966 101.446 165.209 102.592C166.375 103.667 167.969 104.258 169.688 104.258C172.109 104.258 174.195 103.633 175.777 102.444H175.781C175.78 102.67 175.824 102.893 175.909 103.102C175.995 103.311 176.12 103.501 176.279 103.661C176.438 103.822 176.627 103.949 176.835 104.036C177.044 104.124 177.267 104.169 177.493 104.17C177.718 104.171 177.942 104.128 178.151 104.042C178.36 103.957 178.55 103.831 178.71 103.672C178.87 103.513 178.998 103.324 179.085 103.116C179.172 102.908 179.218 102.685 179.219 102.459V91.2869C179.219 86.8979 175.703 83.2744 171.31 83.2424ZM169.688 100.821C168.318 100.821 166.719 100.084 166.719 98.008C166.719 97.1744 167.018 96.5908 167.69 96.1151C168.344 95.6518 169.346 95.3213 170.513 95.1838C172.163 94.9893 174.015 94.8822 175.602 94.8346C175.624 94.8346 175.645 94.8389 175.664 94.8472C175.683 94.8555 175.701 94.8677 175.716 94.8831C175.73 94.8984 175.742 94.9166 175.749 94.9365C175.756 94.9563 175.76 94.9775 175.759 94.9987C175.547 98.9143 173.552 100.821 169.688 100.821Z" fill="white"/>
</svg>
