<svg width="195" height="152" viewBox="0 0 195 152" fill="none" xmlns="http://www.w3.org/2000/svg">
<path d="M25.836 112L19.692 95.2H22.98L27.732 108.856L32.508 95.2H35.748L29.604 112H25.836ZM39.7538 112.288C38.7298 112.288 37.8898 112.128 37.2338 111.808C36.5778 111.472 36.0898 111.032 35.7698 110.488C35.4498 109.944 35.2898 109.344 35.2898 108.688C35.2898 107.584 35.7218 106.688 36.5858 106C37.4498 105.312 38.7458 104.968 40.4738 104.968H43.4978V104.68C43.4978 103.864 43.2658 103.264 42.8018 102.88C42.3378 102.496 41.7618 102.304 41.0738 102.304C40.4498 102.304 39.9058 102.456 39.4418 102.76C38.9778 103.048 38.6898 103.48 38.5778 104.056H35.5778C35.6578 103.192 35.9458 102.44 36.4418 101.8C36.9538 101.16 37.6098 100.672 38.4098 100.336C39.2098 99.984 40.1058 99.808 41.0978 99.808C42.7938 99.808 44.1298 100.232 45.1058 101.08C46.0818 101.928 46.5698 103.128 46.5698 104.68V112H43.9538L43.6658 110.08C43.3138 110.72 42.8178 111.248 42.1778 111.664C41.5538 112.08 40.7458 112.288 39.7538 112.288ZM40.4498 109.888C41.3298 109.888 42.0098 109.6 42.4898 109.024C42.9858 108.448 43.2978 107.736 43.4258 106.888H40.8098C39.9938 106.888 39.4098 107.04 39.0578 107.344C38.7058 107.632 38.5298 107.992 38.5298 108.424C38.5298 108.888 38.7058 109.248 39.0578 109.504C39.4098 109.76 39.8738 109.888 40.4498 109.888ZM49.0014 112V100.096H51.7374L52.0254 102.328C52.4574 101.56 53.0414 100.952 53.7774 100.504C54.5294 100.04 55.4094 99.808 56.4174 99.808V103.048H55.5534C54.8814 103.048 54.2814 103.152 53.7534 103.36C53.2254 103.568 52.8094 103.928 52.5054 104.44C52.2174 104.952 52.0734 105.664 52.0734 106.576V112H49.0014ZM59.673 98.248C59.113 98.248 58.649 98.08 58.281 97.744C57.929 97.408 57.753 96.984 57.753 96.472C57.753 95.96 57.929 95.544 58.281 95.224C58.649 94.888 59.113 94.72 59.673 94.72C60.233 94.72 60.689 94.888 61.041 95.224C61.409 95.544 61.593 95.96 61.593 96.472C61.593 96.984 61.409 97.408 61.041 97.744C60.689 98.08 60.233 98.248 59.673 98.248ZM58.137 112V100.096H61.209V112H58.137ZM68.0195 112.288C66.9955 112.288 66.1555 112.128 65.4995 111.808C64.8435 111.472 64.3555 111.032 64.0355 110.488C63.7155 109.944 63.5555 109.344 63.5555 108.688C63.5555 107.584 63.9875 106.688 64.8515 106C65.7155 105.312 67.0115 104.968 68.7395 104.968H71.7635V104.68C71.7635 103.864 71.5315 103.264 71.0675 102.88C70.6035 102.496 70.0275 102.304 69.3395 102.304C68.7155 102.304 68.1715 102.456 67.7075 102.76C67.2435 103.048 66.9555 103.48 66.8435 104.056H63.8435C63.9235 103.192 64.2115 102.44 64.7075 101.8C65.2195 101.16 65.8755 100.672 66.6755 100.336C67.4755 99.984 68.3715 99.808 69.3635 99.808C71.0595 99.808 72.3955 100.232 73.3715 101.08C74.3475 101.928 74.8355 103.128 74.8355 104.68V112H72.2195L71.9315 110.08C71.5795 110.72 71.0835 111.248 70.4435 111.664C69.8195 112.08 69.0115 112.288 68.0195 112.288ZM68.7155 109.888C69.5955 109.888 70.2755 109.6 70.7555 109.024C71.2515 108.448 71.5635 107.736 71.6915 106.888H69.0755C68.2595 106.888 67.6755 107.04 67.3235 107.344C66.9715 107.632 66.7955 107.992 66.7955 108.424C66.7955 108.888 66.9715 109.248 67.3235 109.504C67.6755 109.76 68.1395 109.888 68.7155 109.888ZM84.323 112.288C83.427 112.288 82.643 112.12 81.971 111.784C81.299 111.448 80.755 110.976 80.339 110.368L80.003 112H77.267V94.72H80.339V101.8C80.723 101.272 81.227 100.808 81.851 100.408C82.491 100.008 83.315 99.808 84.323 99.808C85.443 99.808 86.443 100.08 87.323 100.624C88.203 101.168 88.899 101.912 89.411 102.856C89.923 103.8 90.179 104.872 90.179 106.072C90.179 107.272 89.923 108.344 89.411 109.288C88.899 110.216 88.203 110.952 87.323 111.496C86.443 112.024 85.443 112.288 84.323 112.288ZM83.675 109.6C84.651 109.6 85.459 109.272 86.099 108.616C86.739 107.96 87.059 107.112 87.059 106.072C87.059 105.032 86.739 104.176 86.099 103.504C85.459 102.832 84.651 102.496 83.675 102.496C82.683 102.496 81.867 102.832 81.227 103.504C80.603 104.16 80.291 105.008 80.291 106.048C80.291 107.088 80.603 107.944 81.227 108.616C81.867 109.272 82.683 109.6 83.675 109.6ZM92.4233 112V94.72H95.4953V112H92.4233ZM103.918 112.288C102.718 112.288 101.654 112.032 100.726 111.52C99.7982 111.008 99.0702 110.288 98.5422 109.36C98.0142 108.432 97.7502 107.36 97.7502 106.144C97.7502 104.912 98.0062 103.816 98.5182 102.856C99.0462 101.896 99.7662 101.152 100.678 100.624C101.606 100.08 102.694 99.808 103.942 99.808C105.11 99.808 106.142 100.064 107.038 100.576C107.934 101.088 108.63 101.792 109.126 102.688C109.638 103.568 109.894 104.552 109.894 105.64C109.894 105.816 109.886 106 109.87 106.192C109.87 106.384 109.862 106.584 109.846 106.792H100.798C100.862 107.72 101.182 108.448 101.758 108.976C102.35 109.504 103.062 109.768 103.894 109.768C104.518 109.768 105.038 109.632 105.454 109.36C105.886 109.072 106.206 108.704 106.414 108.256H109.534C109.31 109.008 108.934 109.696 108.406 110.32C107.894 110.928 107.254 111.408 106.486 111.76C105.734 112.112 104.878 112.288 103.918 112.288ZM103.942 102.304C103.19 102.304 102.526 102.52 101.95 102.952C101.374 103.368 101.006 104.008 100.846 104.872H106.774C106.726 104.088 106.438 103.464 105.91 103C105.382 102.536 104.726 102.304 103.942 102.304ZM124.877 112.288C123.181 112.288 121.725 111.928 120.509 111.208C119.293 110.472 118.357 109.456 117.701 108.16C117.045 106.848 116.717 105.336 116.717 103.624C116.717 101.912 117.045 100.4 117.701 99.088C118.357 97.776 119.293 96.752 120.509 96.016C121.725 95.28 123.181 94.912 124.877 94.912C126.893 94.912 128.541 95.416 129.821 96.424C131.117 97.416 131.925 98.816 132.245 100.624H128.861C128.653 99.712 128.205 99 127.517 98.488C126.845 97.96 125.949 97.696 124.829 97.696C123.277 97.696 122.061 98.224 121.181 99.28C120.301 100.336 119.861 101.784 119.861 103.624C119.861 105.464 120.301 106.912 121.181 107.968C122.061 109.008 123.277 109.528 124.829 109.528C125.949 109.528 126.845 109.288 127.517 108.808C128.205 108.312 128.653 107.632 128.861 106.768H132.245C131.925 108.496 131.117 109.848 129.821 110.824C128.541 111.8 126.893 112.288 124.877 112.288ZM140.104 112.288C138.952 112.288 137.912 112.024 136.984 111.496C136.072 110.968 135.344 110.24 134.8 109.312C134.272 108.368 134.008 107.28 134.008 106.048C134.008 104.816 134.28 103.736 134.824 102.808C135.368 101.864 136.096 101.128 137.008 100.6C137.936 100.072 138.976 99.808 140.128 99.808C141.264 99.808 142.288 100.072 143.2 100.6C144.128 101.128 144.856 101.864 145.384 102.808C145.928 103.736 146.2 104.816 146.2 106.048C146.2 107.28 145.928 108.368 145.384 109.312C144.856 110.24 144.128 110.968 143.2 111.496C142.272 112.024 141.24 112.288 140.104 112.288ZM140.104 109.624C140.904 109.624 141.6 109.328 142.192 108.736C142.784 108.128 143.08 107.232 143.08 106.048C143.08 104.864 142.784 103.976 142.192 103.384C141.6 102.776 140.912 102.472 140.128 102.472C139.312 102.472 138.608 102.776 138.016 103.384C137.44 103.976 137.152 104.864 137.152 106.048C137.152 107.232 137.44 108.128 138.016 108.736C138.608 109.328 139.304 109.624 140.104 109.624ZM148.447 112V94.72H151.519V112H148.447ZM159.87 112.288C158.718 112.288 157.678 112.024 156.75 111.496C155.838 110.968 155.11 110.24 154.566 109.312C154.038 108.368 153.774 107.28 153.774 106.048C153.774 104.816 154.046 103.736 154.59 102.808C155.134 101.864 155.862 101.128 156.774 100.6C157.702 100.072 158.742 99.808 159.894 99.808C161.03 99.808 162.054 100.072 162.966 100.6C163.894 101.128 164.622 101.864 165.15 102.808C165.694 103.736 165.966 104.816 165.966 106.048C165.966 107.28 165.694 108.368 165.15 109.312C164.622 110.24 163.894 110.968 162.966 111.496C162.038 112.024 161.006 112.288 159.87 112.288ZM159.87 109.624C160.67 109.624 161.366 109.328 161.958 108.736C162.55 108.128 162.846 107.232 162.846 106.048C162.846 104.864 162.55 103.976 161.958 103.384C161.366 102.776 160.678 102.472 159.894 102.472C159.078 102.472 158.374 102.776 157.782 103.384C157.206 103.976 156.918 104.864 156.918 106.048C156.918 107.232 157.206 108.128 157.782 108.736C158.374 109.328 159.07 109.624 159.87 109.624ZM168.212 112V100.096H170.948L171.236 102.328C171.668 101.56 172.252 100.952 172.988 100.504C173.74 100.04 174.62 99.808 175.628 99.808V103.048H174.764C174.092 103.048 173.492 103.152 172.964 103.36C172.436 103.568 172.02 103.928 171.716 104.44C171.428 104.952 171.284 105.664 171.284 106.576V112H168.212ZM59.4992 144V127.2H65.7152C67.0592 127.2 68.1712 127.424 69.0512 127.872C69.9312 128.32 70.5872 128.936 71.0192 129.72C71.4512 130.504 71.6672 131.384 71.6672 132.36C71.6672 133.288 71.4592 134.144 71.0432 134.928C70.6272 135.696 69.9792 136.32 69.0992 136.8C68.2192 137.264 67.0912 137.496 65.7152 137.496H62.5712V144H59.4992ZM62.5712 135H65.5232C66.5952 135 67.3632 134.768 67.8272 134.304C68.3072 133.824 68.5472 133.176 68.5472 132.36C68.5472 131.528 68.3072 130.88 67.8272 130.416C67.3632 129.936 66.5952 129.696 65.5232 129.696H62.5712V135ZM76.8593 144.288C75.8353 144.288 74.9953 144.128 74.3393 143.808C73.6833 143.472 73.1953 143.032 72.8753 142.488C72.5553 141.944 72.3953 141.344 72.3953 140.688C72.3953 139.584 72.8273 138.688 73.6913 138C74.5553 137.312 75.8513 136.968 77.5793 136.968H80.6033V136.68C80.6033 135.864 80.3713 135.264 79.9073 134.88C79.4433 134.496 78.8673 134.304 78.1793 134.304C77.5553 134.304 77.0113 134.456 76.5473 134.76C76.0833 135.048 75.7953 135.48 75.6833 136.056H72.6833C72.7633 135.192 73.0513 134.44 73.5473 133.8C74.0593 133.16 74.7153 132.672 75.5153 132.336C76.3153 131.984 77.2113 131.808 78.2033 131.808C79.8993 131.808 81.2353 132.232 82.2113 133.08C83.1873 133.928 83.6753 135.128 83.6753 136.68V144H81.0593L80.7713 142.08C80.4193 142.72 79.9233 143.248 79.2833 143.664C78.6593 144.08 77.8513 144.288 76.8593 144.288ZM77.5553 141.888C78.4353 141.888 79.1153 141.6 79.5953 141.024C80.0913 140.448 80.4033 139.736 80.5313 138.888H77.9153C77.0993 138.888 76.5153 139.04 76.1633 139.344C75.8113 139.632 75.6353 139.992 75.6353 140.424C75.6353 140.888 75.8113 141.248 76.1633 141.504C76.5153 141.76 76.9793 141.888 77.5553 141.888ZM86.1069 144V126.72H89.1789V144H86.1069ZM97.6018 144.288C96.4018 144.288 95.3378 144.032 94.4098 143.52C93.4818 143.008 92.7538 142.288 92.2258 141.36C91.6978 140.432 91.4338 139.36 91.4338 138.144C91.4338 136.912 91.6898 135.816 92.2018 134.856C92.7298 133.896 93.4498 133.152 94.3618 132.624C95.2898 132.08 96.3778 131.808 97.6258 131.808C98.7938 131.808 99.8258 132.064 100.722 132.576C101.618 133.088 102.314 133.792 102.81 134.688C103.322 135.568 103.578 136.552 103.578 137.64C103.578 137.816 103.57 138 103.554 138.192C103.554 138.384 103.546 138.584 103.53 138.792H94.4818C94.5458 139.72 94.8658 140.448 95.4418 140.976C96.0338 141.504 96.7458 141.768 97.5778 141.768C98.2018 141.768 98.7218 141.632 99.1378 141.36C99.5698 141.072 99.8898 140.704 100.098 140.256H103.218C102.994 141.008 102.618 141.696 102.09 142.32C101.578 142.928 100.938 143.408 100.17 143.76C99.4178 144.112 98.5618 144.288 97.6018 144.288ZM97.6258 134.304C96.8738 134.304 96.2098 134.52 95.6338 134.952C95.0578 135.368 94.6898 136.008 94.5298 136.872H100.458C100.41 136.088 100.122 135.464 99.5938 135C99.0658 134.536 98.4098 134.304 97.6258 134.304ZM110.755 144C109.507 144 108.507 143.696 107.755 143.088C107.003 142.48 106.627 141.4 106.627 139.848V134.664H104.587V132.096H106.627L106.987 128.904H109.699V132.096H112.915V134.664H109.699V139.872C109.699 140.448 109.819 140.848 110.059 141.072C110.315 141.28 110.747 141.384 111.355 141.384H112.843V144H110.755ZM120.356 144C119.108 144 118.108 143.696 117.356 143.088C116.604 142.48 116.228 141.4 116.228 139.848V134.664H114.188V132.096H116.228L116.588 128.904H119.3V132.096H122.516V134.664H119.3V139.872C119.3 140.448 119.42 140.848 119.66 141.072C119.916 141.28 120.348 141.384 120.956 141.384H122.444V144H120.356ZM130.133 144.288C128.933 144.288 127.869 144.032 126.941 143.52C126.013 143.008 125.285 142.288 124.757 141.36C124.229 140.432 123.965 139.36 123.965 138.144C123.965 136.912 124.221 135.816 124.733 134.856C125.261 133.896 125.981 133.152 126.893 132.624C127.821 132.08 128.909 131.808 130.157 131.808C131.325 131.808 132.357 132.064 133.253 132.576C134.149 133.088 134.845 133.792 135.341 134.688C135.853 135.568 136.109 136.552 136.109 137.64C136.109 137.816 136.101 138 136.085 138.192C136.085 138.384 136.077 138.584 136.061 138.792H127.013C127.077 139.72 127.397 140.448 127.973 140.976C128.565 141.504 129.277 141.768 130.109 141.768C130.733 141.768 131.253 141.632 131.669 141.36C132.101 141.072 132.421 140.704 132.629 140.256H135.749C135.525 141.008 135.149 141.696 134.621 142.32C134.109 142.928 133.469 143.408 132.701 143.76C131.949 144.112 131.093 144.288 130.133 144.288ZM130.157 134.304C129.405 134.304 128.741 134.52 128.165 134.952C127.589 135.368 127.221 136.008 127.061 136.872H132.989C132.941 136.088 132.653 135.464 132.125 135C131.597 134.536 130.941 134.304 130.157 134.304Z" fill="white"/>
<path opacity="0.3" fill-rule="evenodd" clip-rule="evenodd" d="M123 33.3824C123 32.895 122.605 32.5 122.118 32.5H88C82.4772 32.5 78 36.9772 78 42.5C78 48.0228 82.4772 52.5 88 52.5H122.118C122.605 52.5 123 52.105 123 51.6176V33.3824ZM90.5 42.5C90.5 45.2614 88.2614 47.5 85.5 47.5C82.7386 47.5 80.5 45.2614 80.5 42.5C80.5 39.7386 82.7386 37.5 85.5 37.5C88.2614 37.5 90.5 39.7386 90.5 42.5Z" fill="white"/>
<path opacity="0.3" fill-rule="evenodd" clip-rule="evenodd" d="M103.942 11.3385C103.598 10.9939 103.039 10.9939 102.694 11.3385L78.5696 35.4633C74.6643 39.3685 74.6643 45.7002 78.5696 49.6054C82.4748 53.5106 88.8064 53.5107 92.7117 49.6054L116.837 25.4806C117.181 25.136 117.181 24.5773 116.837 24.2328L103.942 11.3385ZM90.4999 42.5C90.4999 45.2614 88.2614 47.5 85.4999 47.5C82.7385 47.5 80.4999 45.2614 80.4999 42.5C80.4999 39.7386 82.7385 37.5 85.4999 37.5C88.2614 37.5 90.4999 39.7386 90.4999 42.5Z" fill="white"/>
<path fill-rule="evenodd" clip-rule="evenodd" d="M76.3824 7.5C75.895 7.5 75.5 7.89505 75.5 8.38236V42.5C75.5 48.0228 79.9772 52.5 85.5 52.5C91.0228 52.5 95.5 48.0228 95.5 42.5V8.38235C95.5 7.89504 95.105 7.5 94.6176 7.5H76.3824ZM90.5 42.5C90.5 45.2614 88.2614 47.5 85.5 47.5C82.7386 47.5 80.5 45.2614 80.5 42.5C80.5 39.7386 82.7386 37.5 85.5 37.5C88.2614 37.5 90.5 39.7386 90.5 42.5Z" fill="white"/>
</svg>
