<svg width="161" height="152" viewBox="0 0 161 152" fill="none" xmlns="http://www.w3.org/2000/svg">
<path d="M57.6384 112.288C55.9424 112.288 54.4864 111.928 53.2704 111.208C52.0544 110.472 51.1184 109.456 50.4624 108.16C49.8064 106.848 49.4784 105.336 49.4784 103.624C49.4784 101.912 49.8064 100.4 50.4624 99.088C51.1184 97.776 52.0544 96.752 53.2704 96.016C54.4864 95.28 55.9424 94.912 57.6384 94.912C59.6544 94.912 61.3024 95.416 62.5824 96.424C63.8784 97.416 64.6864 98.816 65.0064 100.624H61.6224C61.4144 99.712 60.9664 99 60.2784 98.488C59.6064 97.96 58.7104 97.696 57.5904 97.696C56.0384 97.696 54.8224 98.224 53.9424 99.28C53.0624 100.336 52.6224 101.784 52.6224 103.624C52.6224 105.464 53.0624 106.912 53.9424 107.968C54.8224 109.008 56.0384 109.528 57.5904 109.528C58.7104 109.528 59.6064 109.288 60.2784 108.808C60.9664 108.312 61.4144 107.632 61.6224 106.768H65.0064C64.6864 108.496 63.8784 109.848 62.5824 110.824C61.3024 111.8 59.6544 112.288 57.6384 112.288ZM67.1538 112V94.72H70.2258V112H67.1538ZM78.6487 112.288C77.4487 112.288 76.3847 112.032 75.4567 111.52C74.5287 111.008 73.8007 110.288 73.2727 109.36C72.7447 108.432 72.4807 107.36 72.4807 106.144C72.4807 104.912 72.7367 103.816 73.2487 102.856C73.7767 101.896 74.4967 101.152 75.4087 100.624C76.3367 100.08 77.4247 99.808 78.6727 99.808C79.8407 99.808 80.8727 100.064 81.7687 100.576C82.6647 101.088 83.3607 101.792 83.8567 102.688C84.3687 103.568 84.6247 104.552 84.6247 105.64C84.6247 105.816 84.6167 106 84.6007 106.192C84.6007 106.384 84.5927 106.584 84.5767 106.792H75.5287C75.5927 107.72 75.9127 108.448 76.4887 108.976C77.0807 109.504 77.7927 109.768 78.6247 109.768C79.2487 109.768 79.7687 109.632 80.1847 109.36C80.6167 109.072 80.9367 108.704 81.1447 108.256H84.2647C84.0407 109.008 83.6647 109.696 83.1367 110.32C82.6247 110.928 81.9847 111.408 81.2167 111.76C80.4647 112.112 79.6087 112.288 78.6487 112.288ZM78.6727 102.304C77.9207 102.304 77.2567 102.52 76.6807 102.952C76.1047 103.368 75.7367 104.008 75.5767 104.872H81.5047C81.4567 104.088 81.1687 103.464 80.6407 103C80.1127 102.536 79.4567 102.304 78.6727 102.304ZM90.8124 112.288C89.7884 112.288 88.9484 112.128 88.2924 111.808C87.6364 111.472 87.1484 111.032 86.8284 110.488C86.5084 109.944 86.3484 109.344 86.3484 108.688C86.3484 107.584 86.7804 106.688 87.6444 106C88.5084 105.312 89.8044 104.968 91.5324 104.968H94.5564V104.68C94.5564 103.864 94.3244 103.264 93.8604 102.88C93.3964 102.496 92.8204 102.304 92.1324 102.304C91.5084 102.304 90.9644 102.456 90.5004 102.76C90.0364 103.048 89.7484 103.48 89.6364 104.056H86.6364C86.7164 103.192 87.0044 102.44 87.5004 101.8C88.0124 101.16 88.6684 100.672 89.4684 100.336C90.2684 99.984 91.1644 99.808 92.1564 99.808C93.8524 99.808 95.1884 100.232 96.1644 101.08C97.1404 101.928 97.6284 103.128 97.6284 104.68V112H95.0124L94.7244 110.08C94.3724 110.72 93.8764 111.248 93.2364 111.664C92.6124 112.08 91.8044 112.288 90.8124 112.288ZM91.5084 109.888C92.3884 109.888 93.0684 109.6 93.5484 109.024C94.0444 108.448 94.3564 107.736 94.4844 106.888H91.8684C91.0524 106.888 90.4684 107.04 90.1164 107.344C89.7644 107.632 89.5884 107.992 89.5884 108.424C89.5884 108.888 89.7644 109.248 90.1164 109.504C90.4684 109.76 90.9324 109.888 91.5084 109.888ZM100.06 112V100.096H102.772L103.012 102.112C103.38 101.408 103.908 100.848 104.596 100.432C105.3 100.016 106.124 99.808 107.068 99.808C108.54 99.808 109.684 100.272 110.5 101.2C111.316 102.128 111.724 103.488 111.724 105.28V112H108.652V105.568C108.652 104.544 108.444 103.76 108.028 103.216C107.612 102.672 106.964 102.4 106.084 102.4C105.22 102.4 104.508 102.704 103.948 103.312C103.404 103.92 103.132 104.768 103.132 105.856V112H100.06ZM19.3057 144V129.672H14.4097V127.2H27.2977V129.672H22.3777V144H19.3057ZM29.2941 149.28L32.0541 143.208H31.3341L26.7021 132.096H30.0381L33.3741 140.472L36.8541 132.096H40.1181L32.5581 149.28H29.2941ZM41.6264 149.28V132.096H44.3624L44.6984 133.8C45.0824 133.272 45.5864 132.808 46.2104 132.408C46.8504 132.008 47.6744 131.808 48.6824 131.808C49.8024 131.808 50.8024 132.08 51.6824 132.624C52.5624 133.168 53.2584 133.912 53.7704 134.856C54.2824 135.8 54.5384 136.872 54.5384 138.072C54.5384 139.272 54.2824 140.344 53.7704 141.288C53.2584 142.216 52.5624 142.952 51.6824 143.496C50.8024 144.024 49.8024 144.288 48.6824 144.288C47.7864 144.288 47.0024 144.12 46.3304 143.784C45.6584 143.448 45.1144 142.976 44.6984 142.368V149.28H41.6264ZM48.0344 141.6C49.0104 141.6 49.8184 141.272 50.4584 140.616C51.0984 139.96 51.4184 139.112 51.4184 138.072C51.4184 137.032 51.0984 136.176 50.4584 135.504C49.8184 134.832 49.0104 134.496 48.0344 134.496C47.0424 134.496 46.2264 134.832 45.5864 135.504C44.9624 136.16 44.6504 137.008 44.6504 138.048C44.6504 139.088 44.9624 139.944 45.5864 140.616C46.2264 141.272 47.0424 141.6 48.0344 141.6ZM62.4947 144.288C61.3427 144.288 60.3027 144.024 59.3747 143.496C58.4627 142.968 57.7347 142.24 57.1907 141.312C56.6627 140.368 56.3987 139.28 56.3987 138.048C56.3987 136.816 56.6707 135.736 57.2147 134.808C57.7587 133.864 58.4867 133.128 59.3987 132.6C60.3267 132.072 61.3667 131.808 62.5187 131.808C63.6547 131.808 64.6787 132.072 65.5907 132.6C66.5187 133.128 67.2467 133.864 67.7747 134.808C68.3187 135.736 68.5907 136.816 68.5907 138.048C68.5907 139.28 68.3187 140.368 67.7747 141.312C67.2467 142.24 66.5187 142.968 65.5907 143.496C64.6627 144.024 63.6307 144.288 62.4947 144.288ZM62.4947 141.624C63.2947 141.624 63.9907 141.328 64.5827 140.736C65.1747 140.128 65.4707 139.232 65.4707 138.048C65.4707 136.864 65.1747 135.976 64.5827 135.384C63.9907 134.776 63.3027 134.472 62.5187 134.472C61.7027 134.472 60.9987 134.776 60.4067 135.384C59.8307 135.976 59.5427 136.864 59.5427 138.048C59.5427 139.232 59.8307 140.128 60.4067 140.736C60.9987 141.328 61.6947 141.624 62.4947 141.624ZM75.1273 140.448C74.5513 140.448 74.0153 140.384 73.5193 140.256L72.6313 141.144C72.9033 141.288 73.2713 141.408 73.7353 141.504C74.1993 141.6 74.9513 141.696 75.9913 141.792C77.5753 141.936 78.7273 142.312 79.4473 142.92C80.1673 143.528 80.5273 144.368 80.5273 145.44C80.5273 146.144 80.3353 146.808 79.9513 147.432C79.5673 148.072 78.9753 148.584 78.1753 148.968C77.3753 149.368 76.3513 149.568 75.1033 149.568C73.4073 149.568 72.0393 149.248 70.9993 148.608C69.9593 147.984 69.4393 147.04 69.4393 145.776C69.4393 144.704 69.9593 143.776 70.9993 142.992C70.6793 142.848 70.3993 142.696 70.1593 142.536C69.9353 142.376 69.7353 142.208 69.5593 142.032V141.48L71.6473 139.272C70.7193 138.456 70.2553 137.408 70.2553 136.128C70.2553 135.328 70.4473 134.6 70.8313 133.944C71.2313 133.288 71.7913 132.768 72.5113 132.384C73.2313 132 74.1033 131.808 75.1273 131.808C75.7993 131.808 76.4233 131.904 76.9993 132.096H81.5113V133.968L79.4713 134.112C79.7913 134.72 79.9513 135.392 79.9513 136.128C79.9513 136.928 79.7593 137.656 79.3753 138.312C78.9913 138.968 78.4313 139.488 77.6953 139.872C76.9753 140.256 76.1193 140.448 75.1273 140.448ZM75.1273 138.096C75.7513 138.096 76.2633 137.928 76.6633 137.592C77.0793 137.256 77.2873 136.776 77.2873 136.152C77.2873 135.528 77.0793 135.048 76.6633 134.712C76.2633 134.376 75.7513 134.208 75.1273 134.208C74.4713 134.208 73.9433 134.376 73.5433 134.712C73.1433 135.048 72.9433 135.528 72.9433 136.152C72.9433 136.776 73.1433 137.256 73.5433 137.592C73.9433 137.928 74.4713 138.096 75.1273 138.096ZM72.2473 145.464C72.2473 146.056 72.5193 146.496 73.0633 146.784C73.6233 147.088 74.3033 147.24 75.1033 147.24C75.8713 147.24 76.4953 147.08 76.9753 146.76C77.4553 146.456 77.6953 146.04 77.6953 145.512C77.6953 145.08 77.5353 144.72 77.2153 144.432C76.9113 144.144 76.2953 143.968 75.3673 143.904C74.7113 143.856 74.1033 143.784 73.5433 143.688C73.0793 143.944 72.7433 144.224 72.5353 144.528C72.3433 144.832 72.2473 145.144 72.2473 145.464ZM83.2514 144V132.096H85.9874L86.2754 134.328C86.7074 133.56 87.2914 132.952 88.0274 132.504C88.7794 132.04 89.6594 131.808 90.6674 131.808V135.048H89.8034C89.1314 135.048 88.5314 135.152 88.0034 135.36C87.4754 135.568 87.0594 135.928 86.7554 136.44C86.4674 136.952 86.3234 137.664 86.3234 138.576V144H83.2514ZM96.371 144.288C95.347 144.288 94.507 144.128 93.851 143.808C93.195 143.472 92.707 143.032 92.387 142.488C92.067 141.944 91.907 141.344 91.907 140.688C91.907 139.584 92.339 138.688 93.203 138C94.067 137.312 95.363 136.968 97.091 136.968H100.115V136.68C100.115 135.864 99.883 135.264 99.419 134.88C98.955 134.496 98.379 134.304 97.691 134.304C97.067 134.304 96.523 134.456 96.059 134.76C95.595 135.048 95.307 135.48 95.195 136.056H92.195C92.275 135.192 92.563 134.44 93.059 133.8C93.571 133.16 94.227 132.672 95.027 132.336C95.827 131.984 96.723 131.808 97.715 131.808C99.411 131.808 100.747 132.232 101.723 133.08C102.699 133.928 103.187 135.128 103.187 136.68V144H100.571L100.283 142.08C99.931 142.72 99.435 143.248 98.795 143.664C98.171 144.08 97.363 144.288 96.371 144.288ZM97.067 141.888C97.947 141.888 98.627 141.6 99.107 141.024C99.603 140.448 99.915 139.736 100.043 138.888H97.427C96.611 138.888 96.027 139.04 95.675 139.344C95.323 139.632 95.147 139.992 95.147 140.424C95.147 140.888 95.323 141.248 95.675 141.504C96.027 141.76 96.491 141.888 97.067 141.888ZM105.619 149.28V132.096H108.355L108.691 133.8C109.075 133.272 109.579 132.808 110.203 132.408C110.843 132.008 111.667 131.808 112.675 131.808C113.795 131.808 114.795 132.08 115.675 132.624C116.555 133.168 117.251 133.912 117.763 134.856C118.275 135.8 118.531 136.872 118.531 138.072C118.531 139.272 118.275 140.344 117.763 141.288C117.251 142.216 116.555 142.952 115.675 143.496C114.795 144.024 113.795 144.288 112.675 144.288C111.779 144.288 110.995 144.12 110.323 143.784C109.651 143.448 109.107 142.976 108.691 142.368V149.28H105.619ZM112.027 141.6C113.003 141.6 113.811 141.272 114.451 140.616C115.091 139.96 115.411 139.112 115.411 138.072C115.411 137.032 115.091 136.176 114.451 135.504C113.811 134.832 113.003 134.496 112.027 134.496C111.035 134.496 110.219 134.832 109.579 135.504C108.955 136.16 108.643 137.008 108.643 138.048C108.643 139.088 108.955 139.944 109.579 140.616C110.219 141.272 111.035 141.6 112.027 141.6ZM120.775 144V126.72H123.847V133.92C124.247 133.264 124.783 132.752 125.455 132.384C126.143 132 126.927 131.808 127.807 131.808C129.279 131.808 130.415 132.272 131.215 133.2C132.031 134.128 132.439 135.488 132.439 137.28V144H129.391V137.568C129.391 136.544 129.183 135.76 128.767 135.216C128.367 134.672 127.727 134.4 126.847 134.4C125.983 134.4 125.263 134.704 124.687 135.312C124.127 135.92 123.847 136.768 123.847 137.856V144H120.775ZM135.966 149.28L138.726 143.208H138.006L133.374 132.096H136.71L140.046 140.472L143.526 132.096H146.79L139.23 149.28H135.966Z" fill="white"/>
<path fill-rule="evenodd" clip-rule="evenodd" d="M51.4492 47.5L68.7492 11.6L86.0492 47.5H81.1492L76.7492 38.2H60.7492L56.3492 47.5H51.4492ZM68.7485 21.3L62.7485 34H74.7485L68.7485 21.3Z" fill="white"/>
<path opacity="0.3" fill-rule="evenodd" clip-rule="evenodd" d="M104.35 45V47.5H108.65V22.5H104.35V25C102.25 23.1 99.4504 22.1 96.4004 22.1C89.0504 22.1 83.6504 27.75 83.6504 35C83.6504 42.25 89.0504 47.9 96.4004 47.9C99.4504 47.9 102.25 46.9 104.35 45ZM104.349 39.8C102.899 42.15 100.099 43.85 96.4993 43.85C91.5993 43.85 88.0993 39.95 88.0993 35C88.0993 30.05 91.5993 26.15 96.4993 26.15C100.099 26.15 102.899 27.85 104.349 30.2V39.8Z" fill="white"/>
</svg>
