<svg width="173" height="152" viewBox="0 0 173 152" fill="none" xmlns="http://www.w3.org/2000/svg">
<path d="M59.9852 112.288C58.7532 112.288 57.6652 112.08 56.7212 111.664C55.7772 111.232 55.0332 110.624 54.4892 109.84C53.9452 109.04 53.6652 108.072 53.6492 106.936H56.8892C56.9212 107.72 57.2012 108.384 57.7292 108.928C58.2732 109.456 59.0172 109.72 59.9612 109.72C60.7772 109.72 61.4252 109.528 61.9052 109.144C62.3852 108.744 62.6252 108.216 62.6252 107.56C62.6252 106.872 62.4092 106.336 61.9772 105.952C61.5612 105.568 61.0012 105.256 60.2972 105.016C59.5932 104.776 58.8412 104.52 58.0412 104.248C56.7452 103.8 55.7532 103.224 55.0652 102.52C54.3932 101.816 54.0572 100.88 54.0572 99.712C54.0412 98.72 54.2732 97.872 54.7532 97.168C55.2492 96.448 55.9212 95.896 56.7692 95.512C57.6172 95.112 58.5932 94.912 59.6972 94.912C60.8172 94.912 61.8012 95.112 62.6492 95.512C63.5132 95.912 64.1852 96.472 64.6652 97.192C65.1612 97.912 65.4252 98.768 65.4572 99.76H62.1692C62.1532 99.168 61.9212 98.648 61.4732 98.2C61.0412 97.736 60.4332 97.504 59.6492 97.504C58.9772 97.488 58.4092 97.656 57.9452 98.008C57.4972 98.344 57.2732 98.84 57.2732 99.496C57.2732 100.056 57.4492 100.504 57.8012 100.84C58.1532 101.16 58.6332 101.432 59.2412 101.656C59.8492 101.88 60.5452 102.12 61.3292 102.376C62.1612 102.664 62.9212 103 63.6092 103.384C64.2972 103.768 64.8492 104.28 65.2652 104.92C65.6812 105.544 65.8892 106.352 65.8892 107.344C65.8892 108.224 65.6652 109.04 65.2172 109.792C64.7692 110.544 64.1052 111.152 63.2252 111.616C62.3452 112.064 61.2652 112.288 59.9852 112.288ZM67.9975 112V100.096H70.7095L70.9735 101.704C71.3575 101.128 71.8615 100.672 72.4855 100.336C73.1255 99.984 73.8615 99.808 74.6935 99.808C76.5335 99.808 77.8375 100.52 78.6055 101.944C79.0375 101.288 79.6135 100.768 80.3335 100.384C81.0695 100 81.8695 99.808 82.7335 99.808C84.2855 99.808 85.4775 100.272 86.3095 101.2C87.1415 102.128 87.5575 103.488 87.5575 105.28V112H84.4855V105.568C84.4855 104.544 84.2855 103.76 83.8855 103.216C83.5015 102.672 82.9015 102.4 82.0855 102.4C81.2535 102.4 80.5815 102.704 80.0695 103.312C79.5735 103.92 79.3255 104.768 79.3255 105.856V112H76.2535V105.568C76.2535 104.544 76.0535 103.76 75.6535 103.216C75.2535 102.672 74.6375 102.4 73.8055 102.4C72.9895 102.4 72.3255 102.704 71.8135 103.312C71.3175 103.92 71.0695 104.768 71.0695 105.856V112H67.9975ZM94.0781 112.288C93.0541 112.288 92.2141 112.128 91.5581 111.808C90.9021 111.472 90.4141 111.032 90.0941 110.488C89.7741 109.944 89.6141 109.344 89.6141 108.688C89.6141 107.584 90.0461 106.688 90.9101 106C91.7741 105.312 93.0701 104.968 94.7981 104.968H97.8221V104.68C97.8221 103.864 97.5901 103.264 97.1261 102.88C96.6621 102.496 96.0861 102.304 95.3981 102.304C94.7741 102.304 94.2301 102.456 93.7661 102.76C93.3021 103.048 93.0141 103.48 92.9021 104.056H89.9021C89.9821 103.192 90.2701 102.44 90.7661 101.8C91.2781 101.16 91.9341 100.672 92.7341 100.336C93.5341 99.984 94.4301 99.808 95.4221 99.808C97.1181 99.808 98.4541 100.232 99.4301 101.08C100.406 101.928 100.894 103.128 100.894 104.68V112H98.2781L97.9901 110.08C97.6381 110.72 97.1421 111.248 96.5021 111.664C95.8781 112.08 95.0701 112.288 94.0781 112.288ZM94.7741 109.888C95.6541 109.888 96.3341 109.6 96.8141 109.024C97.3101 108.448 97.6221 107.736 97.7501 106.888H95.1341C94.3181 106.888 93.7341 107.04 93.3821 107.344C93.0301 107.632 92.8541 107.992 92.8541 108.424C92.8541 108.888 93.0301 109.248 93.3821 109.504C93.7341 109.76 94.1981 109.888 94.7741 109.888ZM103.326 112V100.096H106.062L106.35 102.328C106.782 101.56 107.366 100.952 108.102 100.504C108.854 100.04 109.734 99.808 110.742 99.808V103.048H109.878C109.206 103.048 108.606 103.152 108.078 103.36C107.55 103.568 107.134 103.928 106.83 104.44C106.542 104.952 106.398 105.664 106.398 106.576V112H103.326ZM117.645 112C116.397 112 115.397 111.696 114.645 111.088C113.893 110.48 113.517 109.4 113.517 107.848V102.664H111.477V100.096H113.517L113.877 96.904H116.589V100.096H119.805V102.664H116.589V107.872C116.589 108.448 116.709 108.848 116.949 109.072C117.205 109.28 117.637 109.384 118.245 109.384H119.733V112H117.645ZM19.3684 144L25.5124 127.2H28.9684L35.1124 144H31.8484L30.5044 140.112H23.9524L22.5844 144H19.3684ZM24.7924 137.712H29.6644L27.2164 130.728L24.7924 137.712ZM40.9342 144.288C39.4462 144.288 38.2942 143.824 37.4782 142.896C36.6782 141.968 36.2782 140.608 36.2782 138.816V132.096H39.3262V138.528C39.3262 139.552 39.5342 140.336 39.9502 140.88C40.3662 141.424 41.0222 141.696 41.9182 141.696C42.7662 141.696 43.4622 141.392 44.0062 140.784C44.5662 140.176 44.8462 139.328 44.8462 138.24V132.096H47.9182V144H45.2062L44.9662 141.984C44.5982 142.688 44.0622 143.248 43.3582 143.664C42.6702 144.08 41.8622 144.288 40.9342 144.288ZM55.8757 144C54.6277 144 53.6277 143.696 52.8757 143.088C52.1237 142.48 51.7477 141.4 51.7477 139.848V134.664H49.7077V132.096H51.7477L52.1077 128.904H54.8197V132.096H58.0357V134.664H54.8197V139.872C54.8197 140.448 54.9397 140.848 55.1797 141.072C55.4357 141.28 55.8677 141.384 56.4757 141.384H57.9637V144H55.8757ZM65.5806 144.288C64.4286 144.288 63.3886 144.024 62.4606 143.496C61.5486 142.968 60.8206 142.24 60.2766 141.312C59.7486 140.368 59.4846 139.28 59.4846 138.048C59.4846 136.816 59.7566 135.736 60.3006 134.808C60.8446 133.864 61.5726 133.128 62.4846 132.6C63.4126 132.072 64.4526 131.808 65.6046 131.808C66.7406 131.808 67.7646 132.072 68.6766 132.6C69.6046 133.128 70.3326 133.864 70.8606 134.808C71.4046 135.736 71.6766 136.816 71.6766 138.048C71.6766 139.28 71.4046 140.368 70.8606 141.312C70.3326 142.24 69.6046 142.968 68.6766 143.496C67.7486 144.024 66.7166 144.288 65.5806 144.288ZM65.5806 141.624C66.3806 141.624 67.0766 141.328 67.6686 140.736C68.2606 140.128 68.5566 139.232 68.5566 138.048C68.5566 136.864 68.2606 135.976 67.6686 135.384C67.0766 134.776 66.3886 134.472 65.6046 134.472C64.7886 134.472 64.0846 134.776 63.4926 135.384C62.9166 135.976 62.6286 136.864 62.6286 138.048C62.6286 139.232 62.9166 140.128 63.4926 140.736C64.0846 141.328 64.7806 141.624 65.5806 141.624ZM73.9233 144V126.72H76.9953V144H73.9233ZM83.7382 144.288C82.7142 144.288 81.8742 144.128 81.2182 143.808C80.5622 143.472 80.0742 143.032 79.7542 142.488C79.4342 141.944 79.2742 141.344 79.2742 140.688C79.2742 139.584 79.7062 138.688 80.5702 138C81.4342 137.312 82.7302 136.968 84.4582 136.968H87.4822V136.68C87.4822 135.864 87.2502 135.264 86.7862 134.88C86.3222 134.496 85.7462 134.304 85.0582 134.304C84.4342 134.304 83.8902 134.456 83.4262 134.76C82.9622 135.048 82.6742 135.48 82.5622 136.056H79.5622C79.6422 135.192 79.9302 134.44 80.4262 133.8C80.9382 133.16 81.5942 132.672 82.3942 132.336C83.1942 131.984 84.0902 131.808 85.0822 131.808C86.7782 131.808 88.1142 132.232 89.0902 133.08C90.0662 133.928 90.5542 135.128 90.5542 136.68V144H87.9382L87.6502 142.08C87.2982 142.72 86.8022 143.248 86.1622 143.664C85.5382 144.08 84.7302 144.288 83.7382 144.288ZM84.4342 141.888C85.3142 141.888 85.9942 141.6 86.4742 141.024C86.9702 140.448 87.2822 139.736 87.4102 138.888H84.7942C83.9782 138.888 83.3942 139.04 83.0422 139.344C82.6902 139.632 82.5142 139.992 82.5142 140.424C82.5142 140.888 82.6902 141.248 83.0422 141.504C83.3942 141.76 83.8582 141.888 84.4342 141.888ZM94.0753 149.28L96.8353 143.208H96.1153L91.4833 132.096H94.8193L98.1553 140.472L101.635 132.096H104.899L97.3393 149.28H94.0753ZM111.088 144.288C109.936 144.288 108.896 144.024 107.968 143.496C107.056 142.968 106.328 142.24 105.784 141.312C105.256 140.368 104.992 139.28 104.992 138.048C104.992 136.816 105.264 135.736 105.808 134.808C106.352 133.864 107.08 133.128 107.992 132.6C108.92 132.072 109.96 131.808 111.112 131.808C112.248 131.808 113.272 132.072 114.184 132.6C115.112 133.128 115.84 133.864 116.368 134.808C116.912 135.736 117.184 136.816 117.184 138.048C117.184 139.28 116.912 140.368 116.368 141.312C115.84 142.24 115.112 142.968 114.184 143.496C113.256 144.024 112.224 144.288 111.088 144.288ZM111.088 141.624C111.888 141.624 112.584 141.328 113.176 140.736C113.768 140.128 114.064 139.232 114.064 138.048C114.064 136.864 113.768 135.976 113.176 135.384C112.584 134.776 111.896 134.472 111.112 134.472C110.296 134.472 109.592 134.776 109 135.384C108.424 135.976 108.136 136.864 108.136 138.048C108.136 139.232 108.424 140.128 109 140.736C109.592 141.328 110.288 141.624 111.088 141.624ZM123.895 144.288C122.407 144.288 121.255 143.824 120.439 142.896C119.639 141.968 119.239 140.608 119.239 138.816V132.096H122.287V138.528C122.287 139.552 122.495 140.336 122.911 140.88C123.327 141.424 123.983 141.696 124.879 141.696C125.727 141.696 126.423 141.392 126.967 140.784C127.527 140.176 127.807 139.328 127.807 138.24V132.096H130.879V144H128.167L127.927 141.984C127.559 142.688 127.023 143.248 126.319 143.664C125.631 144.08 124.823 144.288 123.895 144.288ZM138.837 144C137.589 144 136.589 143.696 135.837 143.088C135.085 142.48 134.709 141.4 134.709 139.848V134.664H132.669V132.096H134.709L135.069 128.904H137.781V132.096H140.997V134.664H137.781V139.872C137.781 140.448 137.901 140.848 138.141 141.072C138.397 141.28 138.829 141.384 139.437 141.384H140.925V144H138.837ZM148.054 144.288C146.998 144.288 146.07 144.12 145.27 143.784C144.47 143.432 143.83 142.952 143.35 142.344C142.87 141.736 142.582 141.032 142.486 140.232H145.582C145.678 140.696 145.934 141.096 146.35 141.432C146.782 141.752 147.334 141.912 148.006 141.912C148.678 141.912 149.166 141.776 149.47 141.504C149.79 141.232 149.95 140.92 149.95 140.568C149.95 140.056 149.726 139.712 149.278 139.536C148.83 139.344 148.206 139.16 147.406 138.984C146.894 138.872 146.374 138.736 145.846 138.576C145.318 138.416 144.83 138.216 144.382 137.976C143.95 137.72 143.598 137.4 143.326 137.016C143.054 136.616 142.918 136.128 142.918 135.552C142.918 134.496 143.334 133.608 144.166 132.888C145.014 132.168 146.198 131.808 147.718 131.808C149.126 131.808 150.246 132.136 151.078 132.792C151.926 133.448 152.43 134.352 152.59 135.504H149.686C149.51 134.624 148.846 134.184 147.694 134.184C147.118 134.184 146.67 134.296 146.35 134.52C146.046 134.744 145.894 135.024 145.894 135.36C145.894 135.712 146.126 135.992 146.59 136.2C147.054 136.408 147.67 136.6 148.438 136.776C149.27 136.968 150.03 137.184 150.718 137.424C151.422 137.648 151.982 137.992 152.398 138.456C152.814 138.904 153.022 139.552 153.022 140.4C153.038 141.136 152.846 141.8 152.446 142.392C152.046 142.984 151.47 143.448 150.718 143.784C149.966 144.12 149.078 144.288 148.054 144.288Z" fill="white"/>
<path opacity="0.3" fill-rule="evenodd" clip-rule="evenodd" d="M91.5455 10H72.4545C68.9188 10 67 11.9188 67 15.4545V34.5455C67 37.9266 68.7546 39.8291 72 39.989V18C72 16.3431 73.3431 15 75 15H96.989C96.8291 11.7546 94.9266 10 91.5455 10Z" fill="white"/>
<path fill-rule="evenodd" clip-rule="evenodd" d="M82.4545 20H101.545C105.081 20 107 21.9188 107 25.4545V44.5455C107 48.0812 105.081 50 101.545 50H82.4545C78.9188 50 77 48.0812 77 44.5455V25.4545C77 21.9188 78.9188 20 82.4545 20Z" fill="white"/>
</svg>
