<svg width="169" height="152" viewBox="0 0 169 152" fill="none" xmlns="http://www.w3.org/2000/svg">
<path d="M27.4211 112V95.2H33.1571C35.1251 95.2 36.7411 95.552 38.0051 96.256C39.2851 96.944 40.2291 97.92 40.8371 99.184C41.4611 100.432 41.7731 101.904 41.7731 103.6C41.7731 105.296 41.4611 106.776 40.8371 108.04C40.2291 109.288 39.2851 110.264 38.0051 110.968C36.7411 111.656 35.1251 112 33.1571 112H27.4211ZM30.4931 109.36H33.0131C34.4211 109.36 35.5331 109.136 36.3491 108.688C37.1651 108.224 37.7491 107.568 38.1011 106.72C38.4531 105.856 38.6291 104.816 38.6291 103.6C38.6291 102.4 38.4531 101.368 38.1011 100.504C37.7491 99.64 37.1651 98.976 36.3491 98.512C35.5331 98.048 34.4211 97.816 33.0131 97.816H30.4931V109.36ZM49.6956 112.288C48.4956 112.288 47.4316 112.032 46.5036 111.52C45.5756 111.008 44.8476 110.288 44.3196 109.36C43.7916 108.432 43.5276 107.36 43.5276 106.144C43.5276 104.912 43.7836 103.816 44.2956 102.856C44.8236 101.896 45.5436 101.152 46.4556 100.624C47.3836 100.08 48.4716 99.808 49.7196 99.808C50.8876 99.808 51.9196 100.064 52.8156 100.576C53.7116 101.088 54.4076 101.792 54.9036 102.688C55.4156 103.568 55.6716 104.552 55.6716 105.64C55.6716 105.816 55.6636 106 55.6476 106.192C55.6476 106.384 55.6396 106.584 55.6236 106.792H46.5756C46.6396 107.72 46.9596 108.448 47.5356 108.976C48.1276 109.504 48.8396 109.768 49.6716 109.768C50.2956 109.768 50.8156 109.632 51.2316 109.36C51.6636 109.072 51.9836 108.704 52.1916 108.256H55.3116C55.0876 109.008 54.7116 109.696 54.1836 110.32C53.6716 110.928 53.0316 111.408 52.2636 111.76C51.5116 112.112 50.6556 112.288 49.6956 112.288ZM49.7196 102.304C48.9676 102.304 48.3036 102.52 47.7276 102.952C47.1516 103.368 46.7836 104.008 46.6236 104.872H52.5516C52.5036 104.088 52.2156 103.464 51.6876 103C51.1596 102.536 50.5036 102.304 49.7196 102.304ZM62.6753 112.288C61.6193 112.288 60.6913 112.12 59.8913 111.784C59.0913 111.432 58.4513 110.952 57.9713 110.344C57.4913 109.736 57.2033 109.032 57.1073 108.232H60.2033C60.2993 108.696 60.5553 109.096 60.9713 109.432C61.4033 109.752 61.9553 109.912 62.6273 109.912C63.2993 109.912 63.7873 109.776 64.0913 109.504C64.4113 109.232 64.5713 108.92 64.5713 108.568C64.5713 108.056 64.3473 107.712 63.8993 107.536C63.4513 107.344 62.8273 107.16 62.0273 106.984C61.5153 106.872 60.9953 106.736 60.4673 106.576C59.9393 106.416 59.4513 106.216 59.0033 105.976C58.5713 105.72 58.2193 105.4 57.9473 105.016C57.6753 104.616 57.5393 104.128 57.5393 103.552C57.5393 102.496 57.9553 101.608 58.7873 100.888C59.6353 100.168 60.8193 99.808 62.3393 99.808C63.7473 99.808 64.8673 100.136 65.6993 100.792C66.5473 101.448 67.0513 102.352 67.2113 103.504H64.3073C64.1313 102.624 63.4673 102.184 62.3153 102.184C61.7393 102.184 61.2913 102.296 60.9713 102.52C60.6673 102.744 60.5153 103.024 60.5153 103.36C60.5153 103.712 60.7473 103.992 61.2113 104.2C61.6753 104.408 62.2913 104.6 63.0593 104.776C63.8913 104.968 64.6513 105.184 65.3393 105.424C66.0433 105.648 66.6033 105.992 67.0193 106.456C67.4353 106.904 67.6433 107.552 67.6433 108.4C67.6593 109.136 67.4673 109.8 67.0673 110.392C66.6673 110.984 66.0913 111.448 65.3393 111.784C64.5873 112.12 63.6993 112.288 62.6753 112.288ZM69.8647 112V94.72H72.9367V104.92L77.1607 100.096H80.8087L75.9367 105.52L81.6007 112H77.7607L72.9367 106.024V112H69.8647ZM88.3093 112C87.0613 112 86.0613 111.696 85.3093 111.088C84.5573 110.48 84.1813 109.4 84.1813 107.848V102.664H82.1413V100.096H84.1813L84.5413 96.904H87.2533V100.096H90.4693V102.664H87.2533V107.872C87.2533 108.448 87.3733 108.848 87.6133 109.072C87.8693 109.28 88.3013 109.384 88.9093 109.384H90.3973V112H88.3093ZM98.0142 112.288C96.8622 112.288 95.8222 112.024 94.8942 111.496C93.9822 110.968 93.2542 110.24 92.7102 109.312C92.1822 108.368 91.9182 107.28 91.9182 106.048C91.9182 104.816 92.1902 103.736 92.7342 102.808C93.2782 101.864 94.0062 101.128 94.9182 100.6C95.8462 100.072 96.8862 99.808 98.0382 99.808C99.1742 99.808 100.198 100.072 101.11 100.6C102.038 101.128 102.766 101.864 103.294 102.808C103.838 103.736 104.11 104.816 104.11 106.048C104.11 107.28 103.838 108.368 103.294 109.312C102.766 110.24 102.038 110.968 101.11 111.496C100.182 112.024 99.1502 112.288 98.0142 112.288ZM98.0142 109.624C98.8142 109.624 99.5102 109.328 100.102 108.736C100.694 108.128 100.99 107.232 100.99 106.048C100.99 104.864 100.694 103.976 100.102 103.384C99.5102 102.776 98.8222 102.472 98.0382 102.472C97.2222 102.472 96.5182 102.776 95.9262 103.384C95.3502 103.976 95.0622 104.864 95.0622 106.048C95.0622 107.232 95.3502 108.128 95.9262 108.736C96.5182 109.328 97.2142 109.624 98.0142 109.624ZM106.357 117.28V100.096H109.093L109.429 101.8C109.813 101.272 110.317 100.808 110.941 100.408C111.581 100.008 112.405 99.808 113.413 99.808C114.533 99.808 115.533 100.08 116.413 100.624C117.293 101.168 117.989 101.912 118.501 102.856C119.013 103.8 119.269 104.872 119.269 106.072C119.269 107.272 119.013 108.344 118.501 109.288C117.989 110.216 117.293 110.952 116.413 111.496C115.533 112.024 114.533 112.288 113.413 112.288C112.517 112.288 111.733 112.12 111.061 111.784C110.389 111.448 109.845 110.976 109.429 110.368V117.28H106.357ZM112.765 109.6C113.741 109.6 114.549 109.272 115.189 108.616C115.829 107.96 116.149 107.112 116.149 106.072C116.149 105.032 115.829 104.176 115.189 103.504C114.549 102.832 113.741 102.496 112.765 102.496C111.773 102.496 110.957 102.832 110.317 103.504C109.693 104.16 109.381 105.008 109.381 106.048C109.381 107.088 109.693 107.944 110.317 108.616C110.957 109.272 111.773 109.6 112.765 109.6ZM132.18 112.264C130.948 112.264 129.876 112.056 128.964 111.64C128.052 111.208 127.34 110.608 126.828 109.84C126.332 109.072 126.084 108.176 126.084 107.152C126.084 106.064 126.388 105.08 126.996 104.2C127.604 103.32 128.508 102.616 129.708 102.088C129.228 101.528 128.884 101 128.676 100.504C128.468 100.008 128.364 99.48 128.364 98.92C128.364 98.152 128.556 97.472 128.94 96.88C129.324 96.272 129.868 95.792 130.572 95.44C131.292 95.088 132.148 94.912 133.14 94.912C134.148 94.912 135.004 95.096 135.708 95.464C136.412 95.832 136.94 96.328 137.292 96.952C137.66 97.576 137.828 98.272 137.796 99.04H134.868C134.868 98.448 134.692 98.008 134.34 97.72C134.004 97.416 133.596 97.264 133.116 97.264C132.572 97.264 132.132 97.416 131.796 97.72C131.476 98.024 131.316 98.416 131.316 98.896C131.316 99.296 131.444 99.704 131.7 100.12C131.956 100.536 132.332 101.016 132.828 101.56L137.532 106.216C137.868 105.672 138.22 105.04 138.588 104.32L139.116 103.264H142.26L141.42 104.896C140.78 106.192 140.14 107.288 139.5 108.184L143.364 112H139.692L137.82 110.128C137.004 110.88 136.132 111.424 135.204 111.76C134.292 112.096 133.284 112.264 132.18 112.264ZM129.06 106.96C129.06 107.744 129.348 108.408 129.924 108.952C130.516 109.48 131.3 109.744 132.276 109.744C133.668 109.744 134.876 109.248 135.9 108.256L131.46 103.864C130.644 104.216 130.036 104.656 129.636 105.184C129.252 105.712 129.06 106.304 129.06 106.96ZM15.4758 144V127.2H19.1238L24.4758 137.856L29.7558 127.2H33.4038V144H30.3318V132.408L25.6518 141.6H23.2278L18.5478 132.408V144H15.4758ZM41.8033 144.288C40.6513 144.288 39.6113 144.024 38.6833 143.496C37.7713 142.968 37.0433 142.24 36.4993 141.312C35.9713 140.368 35.7073 139.28 35.7073 138.048C35.7073 136.816 35.9793 135.736 36.5233 134.808C37.0673 133.864 37.7953 133.128 38.7073 132.6C39.6353 132.072 40.6753 131.808 41.8273 131.808C42.9633 131.808 43.9873 132.072 44.8993 132.6C45.8273 133.128 46.5553 133.864 47.0833 134.808C47.6273 135.736 47.8993 136.816 47.8993 138.048C47.8993 139.28 47.6273 140.368 47.0833 141.312C46.5553 142.24 45.8273 142.968 44.8993 143.496C43.9713 144.024 42.9393 144.288 41.8033 144.288ZM41.8033 141.624C42.6033 141.624 43.2993 141.328 43.8913 140.736C44.4833 140.128 44.7793 139.232 44.7793 138.048C44.7793 136.864 44.4833 135.976 43.8913 135.384C43.2993 134.776 42.6113 134.472 41.8273 134.472C41.0113 134.472 40.3073 134.776 39.7153 135.384C39.1393 135.976 38.8513 136.864 38.8513 138.048C38.8513 139.232 39.1393 140.128 39.7153 140.736C40.3073 141.328 41.0033 141.624 41.8033 141.624ZM57.2019 144.288C56.3059 144.288 55.5219 144.12 54.8499 143.784C54.1779 143.448 53.6339 142.976 53.2179 142.368L52.8819 144H50.1459V126.72H53.2179V133.8C53.6019 133.272 54.1059 132.808 54.7299 132.408C55.3699 132.008 56.1939 131.808 57.2019 131.808C58.3219 131.808 59.3219 132.08 60.2019 132.624C61.0819 133.168 61.7779 133.912 62.2899 134.856C62.8019 135.8 63.0579 136.872 63.0579 138.072C63.0579 139.272 62.8019 140.344 62.2899 141.288C61.7779 142.216 61.0819 142.952 60.2019 143.496C59.3219 144.024 58.3219 144.288 57.2019 144.288ZM56.5539 141.6C57.5299 141.6 58.3379 141.272 58.9779 140.616C59.6179 139.96 59.9379 139.112 59.9379 138.072C59.9379 137.032 59.6179 136.176 58.9779 135.504C58.3379 134.832 57.5299 134.496 56.5539 134.496C55.5619 134.496 54.7459 134.832 54.1059 135.504C53.4819 136.16 53.1699 137.008 53.1699 138.048C53.1699 139.088 53.4819 139.944 54.1059 140.616C54.7459 141.272 55.5619 141.6 56.5539 141.6ZM66.9582 130.248C66.3982 130.248 65.9342 130.08 65.5662 129.744C65.2142 129.408 65.0382 128.984 65.0382 128.472C65.0382 127.96 65.2142 127.544 65.5662 127.224C65.9342 126.888 66.3982 126.72 66.9582 126.72C67.5182 126.72 67.9742 126.888 68.3262 127.224C68.6942 127.544 68.8782 127.96 68.8782 128.472C68.8782 128.984 68.6942 129.408 68.3262 129.744C67.9742 130.08 67.5182 130.248 66.9582 130.248ZM65.4222 144V132.096H68.4942V144H65.4222ZM71.2006 144V126.72H74.2726V144H71.2006ZM82.6956 144.288C81.4956 144.288 80.4316 144.032 79.5036 143.52C78.5756 143.008 77.8476 142.288 77.3196 141.36C76.7916 140.432 76.5276 139.36 76.5276 138.144C76.5276 136.912 76.7836 135.816 77.2956 134.856C77.8236 133.896 78.5436 133.152 79.4556 132.624C80.3836 132.08 81.4716 131.808 82.7196 131.808C83.8876 131.808 84.9196 132.064 85.8156 132.576C86.7116 133.088 87.4076 133.792 87.9036 134.688C88.4156 135.568 88.6716 136.552 88.6716 137.64C88.6716 137.816 88.6636 138 88.6476 138.192C88.6476 138.384 88.6396 138.584 88.6236 138.792H79.5756C79.6396 139.72 79.9596 140.448 80.5356 140.976C81.1276 141.504 81.8396 141.768 82.6716 141.768C83.2956 141.768 83.8156 141.632 84.2316 141.36C84.6636 141.072 84.9836 140.704 85.1916 140.256H88.3116C88.0876 141.008 87.7116 141.696 87.1836 142.32C86.6716 142.928 86.0316 143.408 85.2636 143.76C84.5116 144.112 83.6556 144.288 82.6956 144.288ZM82.7196 134.304C81.9676 134.304 81.3036 134.52 80.7276 134.952C80.1516 135.368 79.7836 136.008 79.6236 136.872H85.5516C85.5036 136.088 85.2156 135.464 84.6876 135C84.1596 134.536 83.5036 134.304 82.7196 134.304ZM103.39 144.288C101.806 144.288 100.422 143.928 99.2381 143.208C98.0541 142.488 97.1341 141.488 96.4781 140.208C95.8221 138.912 95.4941 137.408 95.4941 135.696C95.4941 133.968 95.8301 132.448 96.5021 131.136C97.1901 129.808 98.1581 128.776 99.4061 128.04C100.67 127.288 102.166 126.912 103.894 126.912C105.862 126.912 107.494 127.384 108.79 128.328C110.086 129.272 110.926 130.576 111.31 132.24H107.878C107.622 131.456 107.158 130.848 106.486 130.416C105.814 129.968 104.95 129.744 103.894 129.744C102.214 129.744 100.918 130.28 100.006 131.352C99.0941 132.408 98.6381 133.864 98.6381 135.72C98.6381 137.576 99.0861 139.016 99.9821 140.04C100.894 141.048 102.126 141.552 103.678 141.552C105.198 141.552 106.342 141.144 107.11 140.328C107.894 139.496 108.366 138.408 108.526 137.064H104.278V134.76H111.622V144H108.79L108.55 141.792C108.006 142.592 107.326 143.208 106.51 143.64C105.694 144.072 104.654 144.288 103.39 144.288ZM114.037 144V132.096H116.773L117.061 134.328C117.493 133.56 118.077 132.952 118.813 132.504C119.565 132.04 120.445 131.808 121.453 131.808V135.048H120.589C119.917 135.048 119.317 135.152 118.789 135.36C118.261 135.568 117.845 135.928 117.541 136.44C117.253 136.952 117.109 137.664 117.109 138.576V144H114.037ZM124.708 130.248C124.148 130.248 123.684 130.08 123.316 129.744C122.964 129.408 122.788 128.984 122.788 128.472C122.788 127.96 122.964 127.544 123.316 127.224C123.684 126.888 124.148 126.72 124.708 126.72C125.268 126.72 125.724 126.888 126.076 127.224C126.444 127.544 126.628 127.96 126.628 128.472C126.628 128.984 126.444 129.408 126.076 129.744C125.724 130.08 125.268 130.248 124.708 130.248ZM123.172 144V132.096H126.244V144H123.172ZM134.423 144.288C133.303 144.288 132.303 144.016 131.423 143.472C130.543 142.928 129.847 142.184 129.335 141.24C128.823 140.296 128.567 139.224 128.567 138.024C128.567 136.824 128.823 135.76 129.335 134.832C129.847 133.888 130.543 133.152 131.423 132.624C132.303 132.08 133.303 131.808 134.423 131.808C135.319 131.808 136.103 131.976 136.775 132.312C137.447 132.648 137.991 133.12 138.407 133.728V126.72H141.479V144H138.743L138.407 142.296C138.023 142.824 137.511 143.288 136.871 143.688C136.247 144.088 135.431 144.288 134.423 144.288ZM135.071 141.6C136.063 141.6 136.871 141.272 137.495 140.616C138.135 139.944 138.455 139.088 138.455 138.048C138.455 137.008 138.135 136.16 137.495 135.504C136.871 134.832 136.063 134.496 135.071 134.496C134.095 134.496 133.287 134.824 132.647 135.48C132.007 136.136 131.687 136.984 131.687 138.024C131.687 139.064 132.007 139.92 132.647 140.592C133.287 141.264 134.095 141.6 135.071 141.6ZM149.027 144.288C147.971 144.288 147.043 144.12 146.243 143.784C145.443 143.432 144.803 142.952 144.323 142.344C143.843 141.736 143.555 141.032 143.459 140.232H146.555C146.651 140.696 146.907 141.096 147.323 141.432C147.755 141.752 148.307 141.912 148.979 141.912C149.651 141.912 150.139 141.776 150.443 141.504C150.763 141.232 150.923 140.92 150.923 140.568C150.923 140.056 150.699 139.712 150.251 139.536C149.803 139.344 149.179 139.16 148.379 138.984C147.867 138.872 147.347 138.736 146.819 138.576C146.291 138.416 145.803 138.216 145.355 137.976C144.923 137.72 144.571 137.4 144.299 137.016C144.027 136.616 143.891 136.128 143.891 135.552C143.891 134.496 144.307 133.608 145.139 132.888C145.987 132.168 147.171 131.808 148.691 131.808C150.099 131.808 151.219 132.136 152.051 132.792C152.899 133.448 153.403 134.352 153.563 135.504H150.659C150.483 134.624 149.819 134.184 148.667 134.184C148.091 134.184 147.643 134.296 147.323 134.52C147.019 134.744 146.867 135.024 146.867 135.36C146.867 135.712 147.099 135.992 147.563 136.2C148.027 136.408 148.643 136.6 149.411 136.776C150.243 136.968 151.003 137.184 151.691 137.424C152.395 137.648 152.955 137.992 153.371 138.456C153.787 138.904 153.995 139.552 153.995 140.4C154.011 141.136 153.819 141.8 153.419 142.392C153.019 142.984 152.443 143.448 151.691 143.784C150.939 144.12 150.051 144.288 149.027 144.288Z" fill="white"/>
<path fill-rule="evenodd" clip-rule="evenodd" d="M61 10C60.4477 10 60 10.4477 60 11V19C60 19.5523 60.4477 20 61 20H106.5C107.052 20 107.5 19.5523 107.5 19V11C107.5 10.4477 107.052 10 106.5 10H61ZM78.5 25C77.9477 25 77.5 25.4477 77.5 26V49C77.5 49.5523 77.9477 50 78.5 50H106.5C107.052 50 107.5 49.5523 107.5 49V26C107.5 25.4477 107.052 25 106.5 25H78.5Z" fill="white"/>
<rect opacity="0.3" x="60" y="25" width="12.5" height="25" rx="1" fill="white"/>
</svg>
