<svg width="240" height="240" viewBox="0 0 240 240" fill="none" xmlns="http://www.w3.org/2000/svg">
<rect width="240" height="240" rx="120" fill="#FFECE3"/>
<path opacity="0.5" d="M139.25 102.625H102.125C101.396 102.625 100.696 102.335 100.18 101.82C99.6647 101.304 99.375 100.604 99.375 99.875V62.75C99.375 62.3853 99.5199 62.0356 99.7777 61.7777C100.036 61.5199 100.385 61.375 100.75 61.375C101.115 61.375 101.464 61.5199 101.722 61.7777C101.98 62.0356 102.125 62.3853 102.125 62.75V99.875H139.25C139.615 99.875 139.964 100.02 140.222 100.278C140.48 100.536 140.625 100.885 140.625 101.25C140.625 101.615 140.48 101.964 140.222 102.222C139.964 102.48 139.615 102.625 139.25 102.625Z" fill="#FF6726"/>
<path d="M111.406 97.125H107.969C107.148 97.125 106.361 96.7991 105.781 96.2189C105.201 95.6387 104.875 94.8518 104.875 94.0312V80.9688C104.875 80.1482 105.201 79.3613 105.781 78.7811C106.361 78.2009 107.148 77.875 107.969 77.875H111.406C112.227 77.875 113.014 78.2009 113.594 78.7811C114.174 79.3613 114.5 80.1482 114.5 80.9688V94.0312C114.5 94.8518 114.174 95.6387 113.594 96.2189C113.014 96.7991 112.227 97.125 111.406 97.125Z" fill="#FF6726"/>
<path d="M123.781 97.125H120.344C119.523 97.125 118.736 96.7991 118.156 96.2189C117.576 95.6387 117.25 94.8518 117.25 94.0312V76.8438C117.25 76.0232 117.576 75.2363 118.156 74.6561C118.736 74.0759 119.523 73.75 120.344 73.75H123.781C124.602 73.75 125.389 74.0759 125.969 74.6561C126.549 75.2363 126.875 76.0232 126.875 76.8438V94.0312C126.875 94.8518 126.549 95.6387 125.969 96.2189C125.389 96.7991 124.602 97.125 123.781 97.125Z" fill="#FF6726"/>
<path d="M136.124 97.125H132.687C131.866 97.125 131.079 96.7991 130.499 96.2189C129.919 95.6387 129.593 94.8518 129.593 94.0312V71.3438C129.593 70.5232 129.919 69.7363 130.499 69.1561C131.079 68.5759 131.866 68.25 132.687 68.25H136.124C136.945 68.25 137.731 68.5759 138.312 69.1561C138.892 69.7363 139.218 70.5232 139.218 71.3438V94.0312C139.218 94.8518 138.892 95.6387 138.312 96.2189C137.731 96.7991 136.945 97.125 136.124 97.125Z" fill="#FF6726"/>
<path d="M69.8098 143L75.9538 126.2H79.4098L85.5538 143H82.2898L80.9458 139.112H74.3938L73.0258 143H69.8098ZM75.2338 136.712H80.1058L77.6578 129.728L75.2338 136.712ZM92.0554 143.288C90.9354 143.288 89.9354 143.016 89.0554 142.472C88.1754 141.928 87.4794 141.184 86.9674 140.24C86.4554 139.296 86.1994 138.224 86.1994 137.024C86.1994 135.824 86.4554 134.76 86.9674 133.832C87.4794 132.888 88.1754 132.152 89.0554 131.624C89.9354 131.08 90.9354 130.808 92.0554 130.808C92.9514 130.808 93.7354 130.976 94.4074 131.312C95.0794 131.648 95.6234 132.12 96.0394 132.728V125.72H99.1114V143H96.3754L96.0394 141.296C95.6554 141.824 95.1434 142.288 94.5034 142.688C93.8794 143.088 93.0634 143.288 92.0554 143.288ZM92.7034 140.6C93.6954 140.6 94.5034 140.272 95.1274 139.616C95.7674 138.944 96.0874 138.088 96.0874 137.048C96.0874 136.008 95.7674 135.16 95.1274 134.504C94.5034 133.832 93.6954 133.496 92.7034 133.496C91.7274 133.496 90.9194 133.824 90.2794 134.48C89.6394 135.136 89.3194 135.984 89.3194 137.024C89.3194 138.064 89.6394 138.92 90.2794 139.592C90.9194 140.264 91.7274 140.6 92.7034 140.6ZM105.844 143.288C104.82 143.288 103.98 143.128 103.324 142.808C102.668 142.472 102.18 142.032 101.86 141.488C101.54 140.944 101.38 140.344 101.38 139.688C101.38 138.584 101.812 137.688 102.676 137C103.54 136.312 104.836 135.968 106.564 135.968H109.588V135.68C109.588 134.864 109.356 134.264 108.892 133.88C108.428 133.496 107.852 133.304 107.164 133.304C106.54 133.304 105.996 133.456 105.532 133.76C105.068 134.048 104.78 134.48 104.668 135.056H101.668C101.748 134.192 102.036 133.44 102.532 132.8C103.044 132.16 103.7 131.672 104.5 131.336C105.3 130.984 106.196 130.808 107.188 130.808C108.884 130.808 110.22 131.232 111.196 132.08C112.172 132.928 112.66 134.128 112.66 135.68V143H110.044L109.756 141.08C109.404 141.72 108.908 142.248 108.268 142.664C107.644 143.08 106.836 143.288 105.844 143.288ZM106.54 140.888C107.42 140.888 108.1 140.6 108.58 140.024C109.076 139.448 109.388 138.736 109.516 137.888H106.9C106.084 137.888 105.5 138.04 105.148 138.344C104.796 138.632 104.62 138.992 104.62 139.424C104.62 139.888 104.796 140.248 105.148 140.504C105.5 140.76 105.964 140.888 106.54 140.888ZM115.091 148.28V131.096H117.827L118.163 132.8C118.547 132.272 119.051 131.808 119.675 131.408C120.315 131.008 121.139 130.808 122.147 130.808C123.267 130.808 124.267 131.08 125.147 131.624C126.027 132.168 126.723 132.912 127.235 133.856C127.747 134.8 128.003 135.872 128.003 137.072C128.003 138.272 127.747 139.344 127.235 140.288C126.723 141.216 126.027 141.952 125.147 142.496C124.267 143.024 123.267 143.288 122.147 143.288C121.251 143.288 120.467 143.12 119.795 142.784C119.123 142.448 118.579 141.976 118.163 141.368V148.28H115.091ZM121.499 140.6C122.475 140.6 123.283 140.272 123.923 139.616C124.563 138.96 124.883 138.112 124.883 137.072C124.883 136.032 124.563 135.176 123.923 134.504C123.283 133.832 122.475 133.496 121.499 133.496C120.507 133.496 119.691 133.832 119.051 134.504C118.427 135.16 118.115 136.008 118.115 137.048C118.115 138.088 118.427 138.944 119.051 139.616C119.691 140.272 120.507 140.6 121.499 140.6ZM135.083 143C133.835 143 132.835 142.696 132.083 142.088C131.331 141.48 130.955 140.4 130.955 138.848V133.664H128.915V131.096H130.955L131.315 127.904H134.027V131.096H137.243V133.664H134.027V138.872C134.027 139.448 134.147 139.848 134.387 140.072C134.643 140.28 135.075 140.384 135.683 140.384H137.171V143H135.083ZM141.036 129.248C140.476 129.248 140.012 129.08 139.644 128.744C139.292 128.408 139.116 127.984 139.116 127.472C139.116 126.96 139.292 126.544 139.644 126.224C140.012 125.888 140.476 125.72 141.036 125.72C141.596 125.72 142.052 125.888 142.404 126.224C142.772 126.544 142.956 126.96 142.956 127.472C142.956 127.984 142.772 128.408 142.404 128.744C142.052 129.08 141.596 129.248 141.036 129.248ZM139.5 143V131.096H142.572V143H139.5ZM148.495 143L144.127 131.096H147.343L150.367 140.096L153.391 131.096H156.607L152.215 143H148.495ZM163.242 143.288C162.042 143.288 160.978 143.032 160.05 142.52C159.122 142.008 158.394 141.288 157.866 140.36C157.338 139.432 157.074 138.36 157.074 137.144C157.074 135.912 157.33 134.816 157.842 133.856C158.37 132.896 159.09 132.152 160.002 131.624C160.93 131.08 162.018 130.808 163.266 130.808C164.434 130.808 165.466 131.064 166.362 131.576C167.258 132.088 167.954 132.792 168.45 133.688C168.962 134.568 169.218 135.552 169.218 136.64C169.218 136.816 169.21 137 169.194 137.192C169.194 137.384 169.186 137.584 169.17 137.792H160.122C160.186 138.72 160.506 139.448 161.082 139.976C161.674 140.504 162.386 140.768 163.218 140.768C163.842 140.768 164.362 140.632 164.778 140.36C165.21 140.072 165.53 139.704 165.738 139.256H168.858C168.634 140.008 168.258 140.696 167.73 141.32C167.218 141.928 166.578 142.408 165.81 142.76C165.058 143.112 164.202 143.288 163.242 143.288ZM163.266 133.304C162.514 133.304 161.85 133.52 161.274 133.952C160.698 134.368 160.33 135.008 160.17 135.872H166.098C166.05 135.088 165.762 134.464 165.234 134C164.706 133.536 164.05 133.304 163.266 133.304ZM90.6068 172.288C89.3908 172.288 88.3188 172.024 87.3908 171.496C86.4628 170.968 85.7268 170.232 85.1828 169.288C84.6548 168.344 84.3908 167.264 84.3908 166.048C84.3908 164.832 84.6548 163.752 85.1828 162.808C85.7268 161.864 86.4628 161.128 87.3908 160.6C88.3188 160.072 89.3908 159.808 90.6068 159.808C92.1268 159.808 93.4068 160.208 94.4468 161.008C95.4868 161.792 96.1508 162.88 96.4388 164.272H93.1988C93.0388 163.696 92.7188 163.248 92.2388 162.928C91.7748 162.592 91.2228 162.424 90.5828 162.424C89.7348 162.424 89.0148 162.744 88.4228 163.384C87.8308 164.024 87.5348 164.912 87.5348 166.048C87.5348 167.184 87.8308 168.072 88.4228 168.712C89.0148 169.352 89.7348 169.672 90.5828 169.672C91.2228 169.672 91.7748 169.512 92.2388 169.192C92.7188 168.872 93.0388 168.416 93.1988 167.824H96.4388C96.1508 169.168 95.4868 170.248 94.4468 171.064C93.4068 171.88 92.1268 172.288 90.6068 172.288ZM98.6655 172V154.72H101.737V161.92C102.137 161.264 102.673 160.752 103.345 160.384C104.033 160 104.817 159.808 105.697 159.808C107.169 159.808 108.305 160.272 109.105 161.2C109.921 162.128 110.329 163.488 110.329 165.28V172H107.281V165.568C107.281 164.544 107.073 163.76 106.657 163.216C106.257 162.672 105.617 162.4 104.737 162.4C103.873 162.4 103.153 162.704 102.577 163.312C102.017 163.92 101.737 164.768 101.737 165.856V172H98.6655ZM116.871 172.288C115.847 172.288 115.007 172.128 114.351 171.808C113.695 171.472 113.207 171.032 112.887 170.488C112.567 169.944 112.407 169.344 112.407 168.688C112.407 167.584 112.839 166.688 113.703 166C114.567 165.312 115.863 164.968 117.591 164.968H120.615V164.68C120.615 163.864 120.383 163.264 119.919 162.88C119.455 162.496 118.879 162.304 118.191 162.304C117.567 162.304 117.023 162.456 116.559 162.76C116.095 163.048 115.807 163.48 115.695 164.056H112.695C112.775 163.192 113.063 162.44 113.559 161.8C114.071 161.16 114.727 160.672 115.527 160.336C116.327 159.984 117.223 159.808 118.215 159.808C119.911 159.808 121.247 160.232 122.223 161.08C123.199 161.928 123.687 163.128 123.687 164.68V172H121.071L120.783 170.08C120.431 170.72 119.935 171.248 119.295 171.664C118.671 172.08 117.863 172.288 116.871 172.288ZM117.567 169.888C118.447 169.888 119.127 169.6 119.607 169.024C120.103 168.448 120.415 167.736 120.543 166.888H117.927C117.111 166.888 116.527 167.04 116.175 167.344C115.823 167.632 115.647 167.992 115.647 168.424C115.647 168.888 115.823 169.248 116.175 169.504C116.527 169.76 116.991 169.888 117.567 169.888ZM126.119 172V160.096H128.855L129.143 162.328C129.575 161.56 130.159 160.952 130.895 160.504C131.647 160.04 132.527 159.808 133.535 159.808V163.048H132.671C131.999 163.048 131.399 163.152 130.871 163.36C130.343 163.568 129.927 163.928 129.623 164.44C129.335 164.952 129.191 165.664 129.191 166.576V172H126.119ZM140.438 172C139.19 172 138.19 171.696 137.438 171.088C136.686 170.48 136.31 169.4 136.31 167.848V162.664H134.27V160.096H136.31L136.67 156.904H139.382V160.096H142.598V162.664H139.382V167.872C139.382 168.448 139.502 168.848 139.742 169.072C139.998 169.28 140.43 169.384 141.038 169.384H142.526V172H140.438ZM149.656 172.288C148.6 172.288 147.672 172.12 146.872 171.784C146.072 171.432 145.432 170.952 144.952 170.344C144.472 169.736 144.184 169.032 144.088 168.232H147.184C147.28 168.696 147.536 169.096 147.952 169.432C148.384 169.752 148.936 169.912 149.608 169.912C150.28 169.912 150.768 169.776 151.072 169.504C151.392 169.232 151.552 168.92 151.552 168.568C151.552 168.056 151.328 167.712 150.88 167.536C150.432 167.344 149.808 167.16 149.008 166.984C148.496 166.872 147.976 166.736 147.448 166.576C146.92 166.416 146.432 166.216 145.984 165.976C145.552 165.72 145.2 165.4 144.928 165.016C144.656 164.616 144.52 164.128 144.52 163.552C144.52 162.496 144.936 161.608 145.768 160.888C146.616 160.168 147.8 159.808 149.32 159.808C150.728 159.808 151.848 160.136 152.68 160.792C153.528 161.448 154.032 162.352 154.192 163.504H151.288C151.112 162.624 150.448 162.184 149.296 162.184C148.72 162.184 148.272 162.296 147.952 162.52C147.648 162.744 147.496 163.024 147.496 163.36C147.496 163.712 147.728 163.992 148.192 164.2C148.656 164.408 149.272 164.6 150.04 164.776C150.872 164.968 151.632 165.184 152.32 165.424C153.024 165.648 153.584 165.992 154 166.456C154.416 166.904 154.624 167.552 154.624 168.4C154.64 169.136 154.448 169.8 154.048 170.392C153.648 170.984 153.072 171.448 152.32 171.784C151.568 172.12 150.68 172.288 149.656 172.288Z" fill="#FF6726"/>
</svg>
