<svg width="240" height="240" viewBox="0 0 240 240" fill="none" xmlns="http://www.w3.org/2000/svg">
<rect width="240" height="240" rx="120" fill="#ECECEC"/>
<path d="M38.3508 143V126.2H49.1988V128.672H41.4228V133.376H47.7108V135.8H41.4228V143H38.3508ZM55.4615 143.288C53.9735 143.288 52.8215 142.824 52.0055 141.896C51.2055 140.968 50.8055 139.608 50.8055 137.816V131.096H53.8535V137.528C53.8535 138.552 54.0615 139.336 54.4775 139.88C54.8935 140.424 55.5495 140.696 56.4455 140.696C57.2935 140.696 57.9895 140.392 58.5335 139.784C59.0935 139.176 59.3735 138.328 59.3735 137.24V131.096H62.4455V143H59.7335L59.4935 140.984C59.1255 141.688 58.5895 142.248 57.8855 142.664C57.1975 143.08 56.3895 143.288 55.4615 143.288ZM65.0991 143V125.72H68.1711V143H65.0991ZM70.81 143V125.72H73.882V143H70.81ZM81.7397 143V131.096H84.4757L84.7637 133.328C85.1957 132.56 85.7797 131.952 86.5157 131.504C87.2677 131.04 88.1477 130.808 89.1557 130.808V134.048H88.2917C87.6197 134.048 87.0197 134.152 86.4917 134.36C85.9637 134.568 85.5477 134.928 85.2437 135.44C84.9557 135.952 84.8117 136.664 84.8117 137.576V143H81.7397ZM96.3284 143.288C95.1284 143.288 94.0644 143.032 93.1364 142.52C92.2084 142.008 91.4804 141.288 90.9524 140.36C90.4244 139.432 90.1604 138.36 90.1604 137.144C90.1604 135.912 90.4164 134.816 90.9284 133.856C91.4564 132.896 92.1764 132.152 93.0884 131.624C94.0164 131.08 95.1044 130.808 96.3524 130.808C97.5204 130.808 98.5524 131.064 99.4484 131.576C100.344 132.088 101.04 132.792 101.536 133.688C102.048 134.568 102.304 135.552 102.304 136.64C102.304 136.816 102.296 137 102.28 137.192C102.28 137.384 102.272 137.584 102.256 137.792H93.2084C93.2724 138.72 93.5924 139.448 94.1684 139.976C94.7604 140.504 95.4724 140.768 96.3044 140.768C96.9284 140.768 97.4484 140.632 97.8644 140.36C98.2964 140.072 98.6164 139.704 98.8244 139.256H101.944C101.72 140.008 101.344 140.696 100.816 141.32C100.304 141.928 99.6644 142.408 98.8964 142.76C98.1444 143.112 97.2884 143.288 96.3284 143.288ZM96.3524 133.304C95.6004 133.304 94.9364 133.52 94.3604 133.952C93.7844 134.368 93.4164 135.008 93.2564 135.872H99.1844C99.1364 135.088 98.8484 134.464 98.3204 134C97.7924 133.536 97.1364 133.304 96.3524 133.304ZM109.308 143.288C108.252 143.288 107.324 143.12 106.524 142.784C105.724 142.432 105.084 141.952 104.604 141.344C104.124 140.736 103.836 140.032 103.74 139.232H106.836C106.932 139.696 107.188 140.096 107.604 140.432C108.036 140.752 108.588 140.912 109.26 140.912C109.932 140.912 110.42 140.776 110.724 140.504C111.044 140.232 111.204 139.92 111.204 139.568C111.204 139.056 110.98 138.712 110.532 138.536C110.084 138.344 109.46 138.16 108.66 137.984C108.148 137.872 107.628 137.736 107.1 137.576C106.572 137.416 106.084 137.216 105.636 136.976C105.204 136.72 104.852 136.4 104.58 136.016C104.308 135.616 104.172 135.128 104.172 134.552C104.172 133.496 104.588 132.608 105.42 131.888C106.268 131.168 107.452 130.808 108.972 130.808C110.38 130.808 111.5 131.136 112.332 131.792C113.18 132.448 113.684 133.352 113.844 134.504H110.94C110.764 133.624 110.1 133.184 108.948 133.184C108.372 133.184 107.924 133.296 107.604 133.52C107.3 133.744 107.148 134.024 107.148 134.36C107.148 134.712 107.38 134.992 107.844 135.2C108.308 135.408 108.924 135.6 109.692 135.776C110.524 135.968 111.284 136.184 111.972 136.424C112.676 136.648 113.236 136.992 113.652 137.456C114.068 137.904 114.276 138.552 114.276 139.4C114.292 140.136 114.1 140.8 113.7 141.392C113.3 141.984 112.724 142.448 111.972 142.784C111.22 143.12 110.332 143.288 109.308 143.288ZM116.498 148.28V131.096H119.234L119.57 132.8C119.954 132.272 120.458 131.808 121.082 131.408C121.722 131.008 122.546 130.808 123.554 130.808C124.674 130.808 125.674 131.08 126.554 131.624C127.434 132.168 128.13 132.912 128.642 133.856C129.154 134.8 129.41 135.872 129.41 137.072C129.41 138.272 129.154 139.344 128.642 140.288C128.13 141.216 127.434 141.952 126.554 142.496C125.674 143.024 124.674 143.288 123.554 143.288C122.658 143.288 121.874 143.12 121.202 142.784C120.53 142.448 119.986 141.976 119.57 141.368V148.28H116.498ZM122.906 140.6C123.882 140.6 124.69 140.272 125.33 139.616C125.97 138.96 126.29 138.112 126.29 137.072C126.29 136.032 125.97 135.176 125.33 134.504C124.69 133.832 123.882 133.496 122.906 133.496C121.914 133.496 121.098 133.832 120.458 134.504C119.834 135.16 119.522 136.008 119.522 137.048C119.522 138.088 119.834 138.944 120.458 139.616C121.098 140.272 121.914 140.6 122.906 140.6ZM137.366 143.288C136.214 143.288 135.174 143.024 134.246 142.496C133.334 141.968 132.606 141.24 132.062 140.312C131.534 139.368 131.27 138.28 131.27 137.048C131.27 135.816 131.542 134.736 132.086 133.808C132.63 132.864 133.358 132.128 134.27 131.6C135.198 131.072 136.238 130.808 137.39 130.808C138.526 130.808 139.55 131.072 140.462 131.6C141.39 132.128 142.118 132.864 142.646 133.808C143.19 134.736 143.462 135.816 143.462 137.048C143.462 138.28 143.19 139.368 142.646 140.312C142.118 141.24 141.39 141.968 140.462 142.496C139.534 143.024 138.502 143.288 137.366 143.288ZM137.366 140.624C138.166 140.624 138.862 140.328 139.454 139.736C140.046 139.128 140.342 138.232 140.342 137.048C140.342 135.864 140.046 134.976 139.454 134.384C138.862 133.776 138.174 133.472 137.39 133.472C136.574 133.472 135.87 133.776 135.278 134.384C134.702 134.976 134.414 135.864 134.414 137.048C134.414 138.232 134.702 139.128 135.278 139.736C135.87 140.328 136.566 140.624 137.366 140.624ZM145.708 143V131.096H148.42L148.66 133.112C149.028 132.408 149.556 131.848 150.244 131.432C150.948 131.016 151.772 130.808 152.716 130.808C154.188 130.808 155.332 131.272 156.148 132.2C156.964 133.128 157.372 134.488 157.372 136.28V143H154.3V136.568C154.3 135.544 154.092 134.76 153.676 134.216C153.26 133.672 152.612 133.4 151.732 133.4C150.868 133.4 150.156 133.704 149.596 134.312C149.052 134.92 148.78 135.768 148.78 136.856V143H145.708ZM164.73 143.288C163.674 143.288 162.746 143.12 161.946 142.784C161.146 142.432 160.506 141.952 160.026 141.344C159.546 140.736 159.258 140.032 159.162 139.232H162.258C162.354 139.696 162.61 140.096 163.026 140.432C163.458 140.752 164.01 140.912 164.682 140.912C165.354 140.912 165.842 140.776 166.146 140.504C166.466 140.232 166.626 139.92 166.626 139.568C166.626 139.056 166.402 138.712 165.954 138.536C165.506 138.344 164.882 138.16 164.082 137.984C163.57 137.872 163.05 137.736 162.522 137.576C161.994 137.416 161.506 137.216 161.058 136.976C160.626 136.72 160.274 136.4 160.002 136.016C159.73 135.616 159.594 135.128 159.594 134.552C159.594 133.496 160.01 132.608 160.842 131.888C161.69 131.168 162.874 130.808 164.394 130.808C165.802 130.808 166.922 131.136 167.754 131.792C168.602 132.448 169.106 133.352 169.266 134.504H166.362C166.186 133.624 165.522 133.184 164.37 133.184C163.794 133.184 163.346 133.296 163.026 133.52C162.722 133.744 162.57 134.024 162.57 134.36C162.57 134.712 162.802 134.992 163.266 135.2C163.73 135.408 164.346 135.6 165.114 135.776C165.946 135.968 166.706 136.184 167.394 136.424C168.098 136.648 168.658 136.992 169.074 137.456C169.49 137.904 169.698 138.552 169.698 139.4C169.714 140.136 169.522 140.8 169.122 141.392C168.722 141.984 168.146 142.448 167.394 142.784C166.642 143.12 165.754 143.288 164.73 143.288ZM173.575 129.248C173.015 129.248 172.551 129.08 172.183 128.744C171.831 128.408 171.655 127.984 171.655 127.472C171.655 126.96 171.831 126.544 172.183 126.224C172.551 125.888 173.015 125.72 173.575 125.72C174.135 125.72 174.591 125.888 174.943 126.224C175.311 126.544 175.495 126.96 175.495 127.472C175.495 127.984 175.311 128.408 174.943 128.744C174.591 129.08 174.135 129.248 173.575 129.248ZM172.039 143V131.096H175.111V143H172.039ZM181.034 143L176.666 131.096H179.882L182.906 140.096L185.93 131.096H189.146L184.754 143H181.034ZM195.782 143.288C194.582 143.288 193.518 143.032 192.59 142.52C191.662 142.008 190.934 141.288 190.406 140.36C189.878 139.432 189.614 138.36 189.614 137.144C189.614 135.912 189.87 134.816 190.382 133.856C190.91 132.896 191.63 132.152 192.542 131.624C193.47 131.08 194.558 130.808 195.806 130.808C196.974 130.808 198.006 131.064 198.902 131.576C199.798 132.088 200.494 132.792 200.99 133.688C201.502 134.568 201.758 135.552 201.758 136.64C201.758 136.816 201.75 137 201.734 137.192C201.734 137.384 201.726 137.584 201.71 137.792H192.662C192.726 138.72 193.046 139.448 193.622 139.976C194.214 140.504 194.926 140.768 195.758 140.768C196.382 140.768 196.902 140.632 197.318 140.36C197.75 140.072 198.07 139.704 198.278 139.256H201.398C201.174 140.008 200.798 140.696 200.27 141.32C199.758 141.928 199.118 142.408 198.35 142.76C197.598 143.112 196.742 143.288 195.782 143.288ZM195.806 133.304C195.054 133.304 194.39 133.52 193.814 133.952C193.238 134.368 192.87 135.008 192.71 135.872H198.638C198.59 135.088 198.302 134.464 197.774 134C197.246 133.536 196.59 133.304 195.806 133.304ZM88.0678 172V160.096H90.8038L91.0918 162.328C91.5238 161.56 92.1078 160.952 92.8438 160.504C93.5958 160.04 94.4758 159.808 95.4838 159.808V163.048H94.6198C93.9478 163.048 93.3478 163.152 92.8198 163.36C92.2918 163.568 91.8758 163.928 91.5718 164.44C91.2838 164.952 91.1398 165.664 91.1398 166.576V172H88.0678ZM102.657 172.288C101.457 172.288 100.393 172.032 99.4645 171.52C98.5365 171.008 97.8085 170.288 97.2805 169.36C96.7525 168.432 96.4885 167.36 96.4885 166.144C96.4885 164.912 96.7445 163.816 97.2565 162.856C97.7845 161.896 98.5045 161.152 99.4165 160.624C100.345 160.08 101.433 159.808 102.681 159.808C103.849 159.808 104.881 160.064 105.777 160.576C106.673 161.088 107.369 161.792 107.865 162.688C108.377 163.568 108.633 164.552 108.633 165.64C108.633 165.816 108.625 166 108.609 166.192C108.609 166.384 108.601 166.584 108.585 166.792H99.5365C99.6005 167.72 99.9205 168.448 100.497 168.976C101.089 169.504 101.801 169.768 102.633 169.768C103.257 169.768 103.777 169.632 104.193 169.36C104.625 169.072 104.945 168.704 105.153 168.256H108.273C108.049 169.008 107.673 169.696 107.145 170.32C106.633 170.928 105.993 171.408 105.225 171.76C104.473 172.112 103.617 172.288 102.657 172.288ZM102.681 162.304C101.929 162.304 101.265 162.52 100.689 162.952C100.113 163.368 99.7445 164.008 99.5845 164.872H105.513C105.465 164.088 105.177 163.464 104.649 163C104.121 162.536 103.465 162.304 102.681 162.304ZM115.636 172.288C114.58 172.288 113.652 172.12 112.852 171.784C112.052 171.432 111.412 170.952 110.932 170.344C110.452 169.736 110.164 169.032 110.068 168.232H113.164C113.26 168.696 113.516 169.096 113.932 169.432C114.364 169.752 114.916 169.912 115.588 169.912C116.26 169.912 116.748 169.776 117.052 169.504C117.372 169.232 117.532 168.92 117.532 168.568C117.532 168.056 117.308 167.712 116.86 167.536C116.412 167.344 115.788 167.16 114.988 166.984C114.476 166.872 113.956 166.736 113.428 166.576C112.9 166.416 112.412 166.216 111.964 165.976C111.532 165.72 111.18 165.4 110.908 165.016C110.636 164.616 110.5 164.128 110.5 163.552C110.5 162.496 110.916 161.608 111.748 160.888C112.596 160.168 113.78 159.808 115.3 159.808C116.708 159.808 117.828 160.136 118.66 160.792C119.508 161.448 120.012 162.352 120.172 163.504H117.268C117.092 162.624 116.428 162.184 115.276 162.184C114.7 162.184 114.252 162.296 113.932 162.52C113.628 162.744 113.476 163.024 113.476 163.36C113.476 163.712 113.708 163.992 114.172 164.2C114.636 164.408 115.252 164.6 116.02 164.776C116.852 164.968 117.612 165.184 118.3 165.424C119.004 165.648 119.564 165.992 119.98 166.456C120.396 166.904 120.604 167.552 120.604 168.4C120.62 169.136 120.428 169.8 120.028 170.392C119.628 170.984 119.052 171.448 118.3 171.784C117.548 172.12 116.66 172.288 115.636 172.288ZM124.482 158.248C123.922 158.248 123.458 158.08 123.09 157.744C122.738 157.408 122.562 156.984 122.562 156.472C122.562 155.96 122.738 155.544 123.09 155.224C123.458 154.888 123.922 154.72 124.482 154.72C125.042 154.72 125.498 154.888 125.85 155.224C126.218 155.544 126.402 155.96 126.402 156.472C126.402 156.984 126.218 157.408 125.85 157.744C125.498 158.08 125.042 158.248 124.482 158.248ZM122.946 172V160.096H126.018V172H122.946ZM127.956 172V169.528L134.028 162.64H128.028V160.096H137.532V162.568L131.364 169.456H137.652V172H127.956ZM145.492 172.288C144.292 172.288 143.228 172.032 142.3 171.52C141.372 171.008 140.644 170.288 140.116 169.36C139.588 168.432 139.324 167.36 139.324 166.144C139.324 164.912 139.58 163.816 140.092 162.856C140.62 161.896 141.34 161.152 142.252 160.624C143.18 160.08 144.268 159.808 145.516 159.808C146.684 159.808 147.716 160.064 148.612 160.576C149.508 161.088 150.204 161.792 150.7 162.688C151.212 163.568 151.468 164.552 151.468 165.64C151.468 165.816 151.46 166 151.444 166.192C151.444 166.384 151.436 166.584 151.42 166.792H142.372C142.436 167.72 142.756 168.448 143.332 168.976C143.924 169.504 144.636 169.768 145.468 169.768C146.092 169.768 146.612 169.632 147.028 169.36C147.46 169.072 147.78 168.704 147.988 168.256H151.108C150.884 169.008 150.508 169.696 149.98 170.32C149.468 170.928 148.828 171.408 148.06 171.76C147.308 172.112 146.452 172.288 145.492 172.288ZM145.516 162.304C144.764 162.304 144.1 162.52 143.524 162.952C142.948 163.368 142.58 164.008 142.42 164.872H148.348C148.3 164.088 148.012 163.464 147.484 163C146.956 162.536 146.3 162.304 145.516 162.304Z" fill="black"/>
<path d="M125.25 93.75V80.625H138.375" stroke="black" stroke-width="3" stroke-linecap="round" stroke-linejoin="round"/>
<path d="M126.446 81.824L140.251 95.6251" stroke="black" stroke-width="3" stroke-linecap="round" stroke-linejoin="round"/>
<g opacity="0.4">
<path d="M114 56.25V69.375H100.875" stroke="black" stroke-width="3" stroke-linecap="round" stroke-linejoin="round"/>
<path d="M112.805 68.1762L99 54.375" stroke="black" stroke-width="3" stroke-linecap="round" stroke-linejoin="round"/>
</g>
<path d="M138.375 69.375H125.25V56.25" stroke="black" stroke-width="3" stroke-linecap="round" stroke-linejoin="round"/>
<path d="M126.448 68.1797L140.249 54.375" stroke="black" stroke-width="3" stroke-linecap="round" stroke-linejoin="round"/>
<path d="M100.875 80.625H114V93.75" stroke="black" stroke-width="3" stroke-linecap="round" stroke-linejoin="round"/>
<path d="M112.801 81.8201L99 95.6248" stroke="black" stroke-width="3" stroke-linecap="round" stroke-linejoin="round"/>
</svg>
