<svg width="240" height="240" viewBox="0 0 240 240" fill="none" xmlns="http://www.w3.org/2000/svg">
<rect width="240" height="240" rx="120" fill="#F0EAFA"/>
<path d="M92.9852 143.288C91.7532 143.288 90.6652 143.08 89.7212 142.664C88.7772 142.232 88.0332 141.624 87.4892 140.84C86.9452 140.04 86.6652 139.072 86.6492 137.936H89.8892C89.9212 138.72 90.2012 139.384 90.7292 139.928C91.2732 140.456 92.0172 140.72 92.9612 140.72C93.7772 140.72 94.4252 140.528 94.9052 140.144C95.3852 139.744 95.6252 139.216 95.6252 138.56C95.6252 137.872 95.4092 137.336 94.9772 136.952C94.5612 136.568 94.0012 136.256 93.2972 136.016C92.5932 135.776 91.8412 135.52 91.0412 135.248C89.7452 134.8 88.7532 134.224 88.0652 133.52C87.3932 132.816 87.0572 131.88 87.0572 130.712C87.0412 129.72 87.2732 128.872 87.7532 128.168C88.2492 127.448 88.9212 126.896 89.7692 126.512C90.6172 126.112 91.5932 125.912 92.6972 125.912C93.8172 125.912 94.8012 126.112 95.6492 126.512C96.5132 126.912 97.1852 127.472 97.6652 128.192C98.1612 128.912 98.4252 129.768 98.4572 130.76H95.1692C95.1532 130.168 94.9212 129.648 94.4732 129.2C94.0412 128.736 93.4332 128.504 92.6492 128.504C91.9772 128.488 91.4092 128.656 90.9452 129.008C90.4972 129.344 90.2732 129.84 90.2732 130.496C90.2732 131.056 90.4492 131.504 90.8012 131.84C91.1532 132.16 91.6332 132.432 92.2412 132.656C92.8492 132.88 93.5452 133.12 94.3292 133.376C95.1612 133.664 95.9212 134 96.6092 134.384C97.2972 134.768 97.8492 135.28 98.2652 135.92C98.6812 136.544 98.8892 137.352 98.8892 138.344C98.8892 139.224 98.6652 140.04 98.2172 140.792C97.7692 141.544 97.1052 142.152 96.2252 142.616C95.3452 143.064 94.2652 143.288 92.9852 143.288ZM100.998 143V131.096H103.71L103.974 132.704C104.358 132.128 104.862 131.672 105.486 131.336C106.126 130.984 106.862 130.808 107.694 130.808C109.534 130.808 110.838 131.52 111.606 132.944C112.038 132.288 112.614 131.768 113.334 131.384C114.07 131 114.87 130.808 115.734 130.808C117.286 130.808 118.478 131.272 119.31 132.2C120.142 133.128 120.558 134.488 120.558 136.28V143H117.486V136.568C117.486 135.544 117.286 134.76 116.886 134.216C116.502 133.672 115.902 133.4 115.086 133.4C114.254 133.4 113.582 133.704 113.07 134.312C112.574 134.92 112.326 135.768 112.326 136.856V143H109.254V136.568C109.254 135.544 109.054 134.76 108.654 134.216C108.254 133.672 107.638 133.4 106.806 133.4C105.99 133.4 105.326 133.704 104.814 134.312C104.318 134.92 104.07 135.768 104.07 136.856V143H100.998ZM127.078 143.288C126.054 143.288 125.214 143.128 124.558 142.808C123.902 142.472 123.414 142.032 123.094 141.488C122.774 140.944 122.614 140.344 122.614 139.688C122.614 138.584 123.046 137.688 123.91 137C124.774 136.312 126.07 135.968 127.798 135.968H130.822V135.68C130.822 134.864 130.59 134.264 130.126 133.88C129.662 133.496 129.086 133.304 128.398 133.304C127.774 133.304 127.23 133.456 126.766 133.76C126.302 134.048 126.014 134.48 125.902 135.056H122.902C122.982 134.192 123.27 133.44 123.766 132.8C124.278 132.16 124.934 131.672 125.734 131.336C126.534 130.984 127.43 130.808 128.422 130.808C130.118 130.808 131.454 131.232 132.43 132.08C133.406 132.928 133.894 134.128 133.894 135.68V143H131.278L130.99 141.08C130.638 141.72 130.142 142.248 129.502 142.664C128.878 143.08 128.07 143.288 127.078 143.288ZM127.774 140.888C128.654 140.888 129.334 140.6 129.814 140.024C130.31 139.448 130.622 138.736 130.75 137.888H128.134C127.318 137.888 126.734 138.04 126.382 138.344C126.03 138.632 125.854 138.992 125.854 139.424C125.854 139.888 126.03 140.248 126.382 140.504C126.734 140.76 127.198 140.888 127.774 140.888ZM136.326 143V131.096H139.062L139.35 133.328C139.782 132.56 140.366 131.952 141.102 131.504C141.854 131.04 142.734 130.808 143.742 130.808V134.048H142.878C142.206 134.048 141.606 134.152 141.078 134.36C140.55 134.568 140.134 134.928 139.83 135.44C139.542 135.952 139.398 136.664 139.398 137.576V143H136.326ZM150.645 143C149.397 143 148.397 142.696 147.645 142.088C146.893 141.48 146.517 140.4 146.517 138.848V133.664H144.477V131.096H146.517L146.877 127.904H149.589V131.096H152.805V133.664H149.589V138.872C149.589 139.448 149.709 139.848 149.949 140.072C150.205 140.28 150.637 140.384 151.245 140.384H152.733V143H150.645ZM46.2903 172L52.4343 155.2H55.8903L62.0343 172H58.7703L57.4263 168.112H50.8743L49.5063 172H46.2903ZM51.7143 165.712H56.5863L54.1383 158.728L51.7143 165.712ZM74.864 160.096V172H72.152L71.912 169.984C71.544 170.688 71.008 171.248 70.304 171.664C69.616 172.08 68.8 172.288 67.856 172.288C66.384 172.288 65.24 171.824 64.424 170.896C63.608 169.968 63.2 168.608 63.2 166.816V160.096H66.272V166.528C66.272 167.552 66.48 168.336 66.896 168.88C67.312 169.424 67.96 169.696 68.84 169.696C69.704 169.696 70.408 169.392 70.952 168.784C71.512 168.176 71.792 167.328 71.792 166.24V160.096H74.864ZM82.7976 172C81.5496 172 80.5496 171.696 79.7976 171.088C79.0456 170.48 78.6696 169.4 78.6696 167.848V162.664H76.6296V160.096H78.6696L79.0296 156.904H81.7416V160.096H84.9576V162.664H81.7416V167.872C81.7416 168.448 81.8616 168.848 82.1016 169.072C82.3576 169.28 82.7896 169.384 83.3976 169.384H84.8856V172H82.7976ZM92.5025 172.288C91.3505 172.288 90.3105 172.024 89.3825 171.496C88.4705 170.968 87.7425 170.24 87.1985 169.312C86.6705 168.368 86.4065 167.28 86.4065 166.048C86.4065 164.816 86.6785 163.736 87.2225 162.808C87.7665 161.864 88.4945 161.128 89.4065 160.6C90.3345 160.072 91.3745 159.808 92.5265 159.808C93.6625 159.808 94.6865 160.072 95.5985 160.6C96.5265 161.128 97.2545 161.864 97.7825 162.808C98.3265 163.736 98.5985 164.816 98.5985 166.048C98.5985 167.28 98.3265 168.368 97.7825 169.312C97.2545 170.24 96.5265 170.968 95.5985 171.496C94.6705 172.024 93.6385 172.288 92.5025 172.288ZM92.5025 169.624C93.3025 169.624 93.9985 169.328 94.5905 168.736C95.1825 168.128 95.4785 167.232 95.4785 166.048C95.4785 164.864 95.1825 163.976 94.5905 163.384C93.9985 162.776 93.3105 162.472 92.5265 162.472C91.7105 162.472 91.0065 162.776 90.4145 163.384C89.8385 163.976 89.5505 164.864 89.5505 166.048C89.5505 167.232 89.8385 168.128 90.4145 168.736C91.0065 169.328 91.7025 169.624 92.5025 169.624ZM100.581 166.336V163.768H110.637V166.336H100.581ZM113.001 172V154.72H116.073V172H113.001ZM122.816 172.288C121.792 172.288 120.952 172.128 120.296 171.808C119.64 171.472 119.152 171.032 118.832 170.488C118.512 169.944 118.352 169.344 118.352 168.688C118.352 167.584 118.784 166.688 119.648 166C120.512 165.312 121.808 164.968 123.536 164.968H126.56V164.68C126.56 163.864 126.328 163.264 125.864 162.88C125.4 162.496 124.824 162.304 124.136 162.304C123.512 162.304 122.968 162.456 122.504 162.76C122.04 163.048 121.752 163.48 121.64 164.056H118.64C118.72 163.192 119.008 162.44 119.504 161.8C120.016 161.16 120.672 160.672 121.472 160.336C122.272 159.984 123.168 159.808 124.16 159.808C125.856 159.808 127.192 160.232 128.168 161.08C129.144 161.928 129.632 163.128 129.632 164.68V172H127.016L126.728 170.08C126.376 170.72 125.88 171.248 125.24 171.664C124.616 172.08 123.808 172.288 122.816 172.288ZM123.512 169.888C124.392 169.888 125.072 169.6 125.552 169.024C126.048 168.448 126.36 167.736 126.488 166.888H123.872C123.056 166.888 122.472 167.04 122.12 167.344C121.768 167.632 121.592 167.992 121.592 168.424C121.592 168.888 121.768 169.248 122.12 169.504C122.472 169.76 122.936 169.888 123.512 169.888ZM133.153 177.28L135.913 171.208H135.193L130.561 160.096H133.897L137.233 168.472L140.713 160.096H143.977L136.417 177.28H133.153ZM150.167 172.288C149.015 172.288 147.975 172.024 147.047 171.496C146.135 170.968 145.407 170.24 144.863 169.312C144.335 168.368 144.071 167.28 144.071 166.048C144.071 164.816 144.343 163.736 144.887 162.808C145.431 161.864 146.159 161.128 147.071 160.6C147.999 160.072 149.039 159.808 150.191 159.808C151.327 159.808 152.351 160.072 153.263 160.6C154.191 161.128 154.919 161.864 155.447 162.808C155.991 163.736 156.263 164.816 156.263 166.048C156.263 167.28 155.991 168.368 155.447 169.312C154.919 170.24 154.191 170.968 153.263 171.496C152.335 172.024 151.303 172.288 150.167 172.288ZM150.167 169.624C150.967 169.624 151.663 169.328 152.255 168.736C152.847 168.128 153.143 167.232 153.143 166.048C153.143 164.864 152.847 163.976 152.255 163.384C151.663 162.776 150.975 162.472 150.191 162.472C149.375 162.472 148.671 162.776 148.079 163.384C147.503 163.976 147.215 164.864 147.215 166.048C147.215 167.232 147.503 168.128 148.079 168.736C148.671 169.328 149.367 169.624 150.167 169.624ZM169.981 160.096V172H167.269L167.029 169.984C166.661 170.688 166.125 171.248 165.421 171.664C164.733 172.08 163.917 172.288 162.973 172.288C161.501 172.288 160.357 171.824 159.541 170.896C158.725 169.968 158.317 168.608 158.317 166.816V160.096H161.389V166.528C161.389 167.552 161.597 168.336 162.013 168.88C162.429 169.424 163.077 169.696 163.957 169.696C164.821 169.696 165.525 169.392 166.069 168.784C166.629 168.176 166.909 167.328 166.909 166.24V160.096H169.981ZM177.915 172C176.667 172 175.667 171.696 174.915 171.088C174.163 170.48 173.787 169.4 173.787 167.848V162.664H171.747V160.096H173.787L174.147 156.904H176.859V160.096H180.075V162.664H176.859V167.872C176.859 168.448 176.979 168.848 177.219 169.072C177.475 169.28 177.907 169.384 178.515 169.384H180.003V172H177.915ZM187.132 172.288C186.076 172.288 185.148 172.12 184.348 171.784C183.548 171.432 182.908 170.952 182.428 170.344C181.948 169.736 181.66 169.032 181.564 168.232H184.66C184.756 168.696 185.012 169.096 185.428 169.432C185.86 169.752 186.412 169.912 187.084 169.912C187.756 169.912 188.244 169.776 188.548 169.504C188.868 169.232 189.028 168.92 189.028 168.568C189.028 168.056 188.804 167.712 188.356 167.536C187.908 167.344 187.284 167.16 186.484 166.984C185.972 166.872 185.452 166.736 184.924 166.576C184.396 166.416 183.908 166.216 183.46 165.976C183.028 165.72 182.676 165.4 182.404 165.016C182.132 164.616 181.996 164.128 181.996 163.552C181.996 162.496 182.412 161.608 183.244 160.888C184.092 160.168 185.276 159.808 186.796 159.808C188.204 159.808 189.324 160.136 190.156 160.792C191.004 161.448 191.508 162.352 191.668 163.504H188.764C188.588 162.624 187.924 162.184 186.772 162.184C186.196 162.184 185.748 162.296 185.428 162.52C185.124 162.744 184.972 163.024 184.972 163.36C184.972 163.712 185.204 163.992 185.668 164.2C186.132 164.408 186.748 164.6 187.516 164.776C188.348 164.968 189.108 165.184 189.796 165.424C190.5 165.648 191.06 165.992 191.476 166.456C191.892 166.904 192.1 167.552 192.1 168.4C192.116 169.136 191.924 169.8 191.524 170.392C191.124 170.984 190.548 171.448 189.796 171.784C189.044 172.12 188.156 172.288 187.132 172.288Z" fill="#CC35F1"/>
<path opacity="0.3" fill-rule="evenodd" clip-rule="evenodd" d="M124.545 54H105.455C101.919 54 100 55.9188 100 59.4545V78.5455C100 81.9266 101.755 83.8291 105 83.989V62C105 60.3431 106.343 59 108 59H129.989C129.829 55.7546 127.927 54 124.545 54Z" fill="#CC35F1"/>
<path fill-rule="evenodd" clip-rule="evenodd" d="M115.455 64H134.545C138.081 64 140 65.9188 140 69.4545V88.5455C140 92.0812 138.081 94 134.545 94H115.455C111.919 94 110 92.0812 110 88.5455V69.4545C110 65.9188 111.919 64 115.455 64Z" fill="#CC35F1"/>
</svg>
