<svg width="240" height="240" viewBox="0 0 240 240" fill="none" xmlns="http://www.w3.org/2000/svg">
<rect width="240" height="240" rx="120" fill="#E2F1FF"/>
<path d="M120.5 78.5C119.043 78.5 117.586 78.2415 116.45 77.7244L100.44 70.4238C99.7081 70.0906 98 69.116 98 67.276C98 65.4359 99.7081 64.4635 100.443 64.126L116.591 56.7626C118.816 55.7458 122.173 55.7458 124.4 56.7626L140.557 64.126C141.292 64.4602 143 65.4349 143 67.276C143 69.1171 141.292 70.0885 140.557 70.4249L124.548 77.7244C123.414 78.2415 121.957 78.5 120.5 78.5Z" fill="#1787EE"/>
<path d="M140.551 75.644L138.919 74.8998L134.725 76.8385L124.556 81.5378C123.421 82.0624 121.96 82.3236 120.506 82.3236C119.053 82.3236 117.593 82.0624 116.459 81.5378L106.283 76.8385L102.088 74.8998L100.441 75.6473C99.7081 75.985 98 76.9762 98 78.8341C98 80.6919 99.7081 81.6842 100.44 82.0219L116.45 89.4129C117.579 89.9375 119.039 90.1998 120.5 90.1998C121.961 90.1998 123.414 89.9375 124.55 89.414L140.546 82.0252C141.282 81.6875 143 80.7018 143 78.8341C143 76.9664 141.294 75.985 140.551 75.644Z" fill="#1787EE"/>
<path opacity="0.4" d="M140.551 86.443L138.919 85.6998L134.725 87.6375L124.556 92.3313C123.421 92.8537 121.96 93.116 120.506 93.116C119.053 93.116 117.593 92.8548 116.459 92.3313L106.283 87.632L102.088 85.6998L100.441 86.4473C99.7081 86.785 98 87.7763 98 89.6341C98 91.492 99.7081 92.4832 100.44 92.8198L116.45 100.206C117.579 100.729 119.044 101 120.5 101C121.956 101 123.408 100.729 124.544 100.205L140.544 92.8209C141.282 92.4843 143 91.4985 143 89.6341C143 87.7697 141.294 86.785 140.551 86.443Z" fill="#1787EE"/>
<path d="M55.9758 143V126.2H66.9438V128.672H59.0478V133.28H66.2238V135.68H59.0478V140.528H66.9438V143H55.9758ZM73.3828 143.288C72.3588 143.288 71.5188 143.128 70.8628 142.808C70.2068 142.472 69.7188 142.032 69.3988 141.488C69.0788 140.944 68.9188 140.344 68.9188 139.688C68.9188 138.584 69.3508 137.688 70.2148 137C71.0788 136.312 72.3748 135.968 74.1028 135.968H77.1268V135.68C77.1268 134.864 76.8948 134.264 76.4308 133.88C75.9668 133.496 75.3908 133.304 74.7028 133.304C74.0788 133.304 73.5348 133.456 73.0708 133.76C72.6068 134.048 72.3188 134.48 72.2068 135.056H69.2068C69.2868 134.192 69.5748 133.44 70.0708 132.8C70.5828 132.16 71.2388 131.672 72.0388 131.336C72.8388 130.984 73.7348 130.808 74.7268 130.808C76.4228 130.808 77.7588 131.232 78.7348 132.08C79.7108 132.928 80.1988 134.128 80.1988 135.68V143H77.5828L77.2948 141.08C76.9428 141.72 76.4468 142.248 75.8068 142.664C75.1828 143.08 74.3748 143.288 73.3828 143.288ZM74.0788 140.888C74.9588 140.888 75.6388 140.6 76.1188 140.024C76.6148 139.448 76.9268 138.736 77.0548 137.888H74.4388C73.6228 137.888 73.0388 138.04 72.6868 138.344C72.3348 138.632 72.1588 138.992 72.1588 139.424C72.1588 139.888 72.3348 140.248 72.6868 140.504C73.0388 140.76 73.5028 140.888 74.0788 140.888ZM87.5503 143.288C86.4943 143.288 85.5663 143.12 84.7663 142.784C83.9663 142.432 83.3263 141.952 82.8463 141.344C82.3663 140.736 82.0783 140.032 81.9823 139.232H85.0783C85.1743 139.696 85.4303 140.096 85.8463 140.432C86.2783 140.752 86.8303 140.912 87.5023 140.912C88.1743 140.912 88.6623 140.776 88.9663 140.504C89.2863 140.232 89.4463 139.92 89.4463 139.568C89.4463 139.056 89.2223 138.712 88.7743 138.536C88.3263 138.344 87.7023 138.16 86.9023 137.984C86.3903 137.872 85.8703 137.736 85.3423 137.576C84.8143 137.416 84.3263 137.216 83.8783 136.976C83.4463 136.72 83.0943 136.4 82.8223 136.016C82.5503 135.616 82.4143 135.128 82.4143 134.552C82.4143 133.496 82.8303 132.608 83.6623 131.888C84.5103 131.168 85.6943 130.808 87.2143 130.808C88.6223 130.808 89.7423 131.136 90.5743 131.792C91.4223 132.448 91.9263 133.352 92.0863 134.504H89.1823C89.0063 133.624 88.3423 133.184 87.1903 133.184C86.6143 133.184 86.1663 133.296 85.8463 133.52C85.5423 133.744 85.3903 134.024 85.3903 134.36C85.3903 134.712 85.6223 134.992 86.0863 135.2C86.5503 135.408 87.1663 135.6 87.9343 135.776C88.7663 135.968 89.5263 136.184 90.2143 136.424C90.9183 136.648 91.4783 136.992 91.8943 137.456C92.3103 137.904 92.5183 138.552 92.5183 139.4C92.5343 140.136 92.3423 140.8 91.9423 141.392C91.5423 141.984 90.9663 142.448 90.2143 142.784C89.4623 143.12 88.5743 143.288 87.5503 143.288ZM95.5949 148.28L98.3549 142.208H97.6349L93.0029 131.096H96.3389L99.6749 139.472L103.155 131.096H106.419L98.8589 148.28H95.5949ZM118.45 143C117.202 143 116.202 142.696 115.45 142.088C114.698 141.48 114.322 140.4 114.322 138.848V133.664H112.282V131.096H114.322L114.682 127.904H117.394V131.096H120.61V133.664H117.394V138.872C117.394 139.448 117.514 139.848 117.754 140.072C118.01 140.28 118.442 140.384 119.05 140.384H120.538V143H118.45ZM128.155 143.288C127.003 143.288 125.963 143.024 125.035 142.496C124.123 141.968 123.395 141.24 122.851 140.312C122.323 139.368 122.059 138.28 122.059 137.048C122.059 135.816 122.331 134.736 122.875 133.808C123.419 132.864 124.147 132.128 125.059 131.6C125.987 131.072 127.027 130.808 128.179 130.808C129.315 130.808 130.339 131.072 131.251 131.6C132.179 132.128 132.907 132.864 133.435 133.808C133.979 134.736 134.251 135.816 134.251 137.048C134.251 138.28 133.979 139.368 133.435 140.312C132.907 141.24 132.179 141.968 131.251 142.496C130.323 143.024 129.291 143.288 128.155 143.288ZM128.155 140.624C128.955 140.624 129.651 140.328 130.243 139.736C130.835 139.128 131.131 138.232 131.131 137.048C131.131 135.864 130.835 134.976 130.243 134.384C129.651 133.776 128.963 133.472 128.179 133.472C127.363 133.472 126.659 133.776 126.067 134.384C125.491 134.976 125.203 135.864 125.203 137.048C125.203 138.232 125.491 139.128 126.067 139.736C126.659 140.328 127.355 140.624 128.155 140.624ZM147.5 143.288C146.3 143.288 145.236 143.032 144.308 142.52C143.38 142.008 142.652 141.288 142.124 140.36C141.596 139.432 141.332 138.36 141.332 137.144C141.332 135.912 141.588 134.816 142.1 133.856C142.628 132.896 143.348 132.152 144.26 131.624C145.188 131.08 146.276 130.808 147.524 130.808C148.692 130.808 149.724 131.064 150.62 131.576C151.516 132.088 152.212 132.792 152.708 133.688C153.22 134.568 153.476 135.552 153.476 136.64C153.476 136.816 153.468 137 153.452 137.192C153.452 137.384 153.444 137.584 153.428 137.792H144.38C144.444 138.72 144.764 139.448 145.34 139.976C145.932 140.504 146.644 140.768 147.476 140.768C148.1 140.768 148.62 140.632 149.036 140.36C149.468 140.072 149.788 139.704 149.996 139.256H153.116C152.892 140.008 152.516 140.696 151.988 141.32C151.476 141.928 150.836 142.408 150.068 142.76C149.316 143.112 148.46 143.288 147.5 143.288ZM147.524 133.304C146.772 133.304 146.108 133.52 145.532 133.952C144.956 134.368 144.588 135.008 144.428 135.872H150.356C150.308 135.088 150.02 134.464 149.492 134C148.964 133.536 148.308 133.304 147.524 133.304ZM161.032 143.288C159.912 143.288 158.912 143.016 158.032 142.472C157.152 141.928 156.456 141.184 155.944 140.24C155.432 139.296 155.176 138.224 155.176 137.024C155.176 135.824 155.432 134.76 155.944 133.832C156.456 132.888 157.152 132.152 158.032 131.624C158.912 131.08 159.912 130.808 161.032 130.808C161.928 130.808 162.712 130.976 163.384 131.312C164.056 131.648 164.6 132.12 165.016 132.728V125.72H168.088V143H165.352L165.016 141.296C164.632 141.824 164.12 142.288 163.48 142.688C162.856 143.088 162.04 143.288 161.032 143.288ZM161.68 140.6C162.672 140.6 163.48 140.272 164.104 139.616C164.744 138.944 165.064 138.088 165.064 137.048C165.064 136.008 164.744 135.16 164.104 134.504C163.48 133.832 162.672 133.496 161.68 133.496C160.704 133.496 159.896 133.824 159.256 134.48C158.616 135.136 158.296 135.984 158.296 137.024C158.296 138.064 158.616 138.92 159.256 139.592C159.896 140.264 160.704 140.6 161.68 140.6ZM172.372 129.248C171.812 129.248 171.348 129.08 170.98 128.744C170.628 128.408 170.452 127.984 170.452 127.472C170.452 126.96 170.628 126.544 170.98 126.224C171.348 125.888 171.812 125.72 172.372 125.72C172.932 125.72 173.388 125.888 173.74 126.224C174.108 126.544 174.292 126.96 174.292 127.472C174.292 127.984 174.108 128.408 173.74 128.744C173.388 129.08 172.932 129.248 172.372 129.248ZM170.836 143V131.096H173.908V143H170.836ZM181.919 143C180.671 143 179.671 142.696 178.919 142.088C178.167 141.48 177.791 140.4 177.791 138.848V133.664H175.751V131.096H177.791L178.151 127.904H180.863V131.096H184.079V133.664H180.863V138.872C180.863 139.448 180.983 139.848 181.223 140.072C181.479 140.28 181.911 140.384 182.519 140.384H184.007V143H181.919ZM55.1967 172.288C53.9807 172.288 52.9087 172.024 51.9807 171.496C51.0527 170.968 50.3167 170.232 49.7727 169.288C49.2447 168.344 48.9807 167.264 48.9807 166.048C48.9807 164.832 49.2447 163.752 49.7727 162.808C50.3167 161.864 51.0527 161.128 51.9807 160.6C52.9087 160.072 53.9807 159.808 55.1967 159.808C56.7167 159.808 57.9967 160.208 59.0367 161.008C60.0767 161.792 60.7407 162.88 61.0287 164.272H57.7887C57.6287 163.696 57.3087 163.248 56.8287 162.928C56.3647 162.592 55.8127 162.424 55.1727 162.424C54.3247 162.424 53.6047 162.744 53.0127 163.384C52.4207 164.024 52.1247 164.912 52.1247 166.048C52.1247 167.184 52.4207 168.072 53.0127 168.712C53.6047 169.352 54.3247 169.672 55.1727 169.672C55.8127 169.672 56.3647 169.512 56.8287 169.192C57.3087 168.872 57.6287 168.416 57.7887 167.824H61.0287C60.7407 169.168 60.0767 170.248 59.0367 171.064C57.9967 171.88 56.7167 172.288 55.1967 172.288ZM68.9673 172.288C67.8153 172.288 66.7753 172.024 65.8473 171.496C64.9353 170.968 64.2073 170.24 63.6633 169.312C63.1353 168.368 62.8713 167.28 62.8713 166.048C62.8713 164.816 63.1433 163.736 63.6873 162.808C64.2313 161.864 64.9593 161.128 65.8713 160.6C66.7993 160.072 67.8393 159.808 68.9913 159.808C70.1273 159.808 71.1513 160.072 72.0633 160.6C72.9913 161.128 73.7193 161.864 74.2473 162.808C74.7913 163.736 75.0633 164.816 75.0633 166.048C75.0633 167.28 74.7913 168.368 74.2473 169.312C73.7193 170.24 72.9913 170.968 72.0633 171.496C71.1353 172.024 70.1033 172.288 68.9673 172.288ZM68.9673 169.624C69.7673 169.624 70.4633 169.328 71.0553 168.736C71.6473 168.128 71.9433 167.232 71.9433 166.048C71.9433 164.864 71.6473 163.976 71.0553 163.384C70.4633 162.776 69.7753 162.472 68.9913 162.472C68.1753 162.472 67.4713 162.776 66.8793 163.384C66.3033 163.976 66.0153 164.864 66.0153 166.048C66.0153 167.232 66.3033 168.128 66.8793 168.736C67.4713 169.328 68.1673 169.624 68.9673 169.624ZM77.31 172V160.096H80.022L80.286 161.704C80.67 161.128 81.174 160.672 81.798 160.336C82.438 159.984 83.174 159.808 84.006 159.808C85.846 159.808 87.15 160.52 87.918 161.944C88.35 161.288 88.926 160.768 89.646 160.384C90.382 160 91.182 159.808 92.046 159.808C93.598 159.808 94.79 160.272 95.622 161.2C96.454 162.128 96.87 163.488 96.87 165.28V172H93.798V165.568C93.798 164.544 93.598 163.76 93.198 163.216C92.814 162.672 92.214 162.4 91.398 162.4C90.566 162.4 89.894 162.704 89.382 163.312C88.886 163.92 88.638 164.768 88.638 165.856V172H85.566V165.568C85.566 164.544 85.366 163.76 84.966 163.216C84.566 162.672 83.95 162.4 83.118 162.4C82.302 162.4 81.638 162.704 81.126 163.312C80.63 163.92 80.382 164.768 80.382 165.856V172H77.31ZM99.2866 177.28V160.096H102.023L102.359 161.8C102.743 161.272 103.247 160.808 103.871 160.408C104.511 160.008 105.335 159.808 106.343 159.808C107.463 159.808 108.463 160.08 109.343 160.624C110.223 161.168 110.919 161.912 111.431 162.856C111.943 163.8 112.199 164.872 112.199 166.072C112.199 167.272 111.943 168.344 111.431 169.288C110.919 170.216 110.223 170.952 109.343 171.496C108.463 172.024 107.463 172.288 106.343 172.288C105.447 172.288 104.663 172.12 103.991 171.784C103.319 171.448 102.775 170.976 102.359 170.368V177.28H99.2866ZM105.695 169.6C106.671 169.6 107.479 169.272 108.119 168.616C108.759 167.96 109.079 167.112 109.079 166.072C109.079 165.032 108.759 164.176 108.119 163.504C107.479 162.832 106.671 162.496 105.695 162.496C104.703 162.496 103.887 162.832 103.247 163.504C102.623 164.16 102.311 165.008 102.311 166.048C102.311 167.088 102.623 167.944 103.247 168.616C103.887 169.272 104.703 169.6 105.695 169.6ZM120.155 172.288C119.003 172.288 117.963 172.024 117.035 171.496C116.123 170.968 115.395 170.24 114.851 169.312C114.323 168.368 114.059 167.28 114.059 166.048C114.059 164.816 114.331 163.736 114.875 162.808C115.419 161.864 116.147 161.128 117.059 160.6C117.987 160.072 119.027 159.808 120.179 159.808C121.315 159.808 122.339 160.072 123.251 160.6C124.179 161.128 124.907 161.864 125.435 162.808C125.979 163.736 126.251 164.816 126.251 166.048C126.251 167.28 125.979 168.368 125.435 169.312C124.907 170.24 124.179 170.968 123.251 171.496C122.323 172.024 121.291 172.288 120.155 172.288ZM120.155 169.624C120.955 169.624 121.651 169.328 122.243 168.736C122.835 168.128 123.131 167.232 123.131 166.048C123.131 164.864 122.835 163.976 122.243 163.384C121.651 162.776 120.963 162.472 120.179 162.472C119.363 162.472 118.659 162.776 118.067 163.384C117.491 163.976 117.203 164.864 117.203 166.048C117.203 167.232 117.491 168.128 118.067 168.736C118.659 169.328 119.355 169.624 120.155 169.624ZM128.498 172V160.096H131.21L131.45 162.112C131.818 161.408 132.346 160.848 133.034 160.432C133.738 160.016 134.562 159.808 135.506 159.808C136.978 159.808 138.122 160.272 138.938 161.2C139.753 162.128 140.161 163.488 140.161 165.28V172H137.09V165.568C137.09 164.544 136.882 163.76 136.466 163.216C136.05 162.672 135.402 162.4 134.522 162.4C133.658 162.4 132.946 162.704 132.386 163.312C131.842 163.92 131.57 164.768 131.57 165.856V172H128.498ZM148.383 172.288C147.183 172.288 146.119 172.032 145.191 171.52C144.263 171.008 143.535 170.288 143.007 169.36C142.479 168.432 142.215 167.36 142.215 166.144C142.215 164.912 142.471 163.816 142.983 162.856C143.511 161.896 144.231 161.152 145.143 160.624C146.071 160.08 147.159 159.808 148.407 159.808C149.575 159.808 150.607 160.064 151.503 160.576C152.399 161.088 153.095 161.792 153.591 162.688C154.103 163.568 154.359 164.552 154.359 165.64C154.359 165.816 154.351 166 154.335 166.192C154.335 166.384 154.327 166.584 154.311 166.792H145.263C145.327 167.72 145.647 168.448 146.223 168.976C146.815 169.504 147.527 169.768 148.359 169.768C148.983 169.768 149.503 169.632 149.919 169.36C150.351 169.072 150.671 168.704 150.879 168.256H153.999C153.775 169.008 153.399 169.696 152.871 170.32C152.359 170.928 151.719 171.408 150.951 171.76C150.199 172.112 149.343 172.288 148.383 172.288ZM148.407 162.304C147.655 162.304 146.991 162.52 146.415 162.952C145.839 163.368 145.471 164.008 145.311 164.872H151.239C151.191 164.088 150.903 163.464 150.375 163C149.847 162.536 149.191 162.304 148.407 162.304ZM156.443 172V160.096H159.155L159.395 162.112C159.763 161.408 160.291 160.848 160.979 160.432C161.683 160.016 162.507 159.808 163.451 159.808C164.923 159.808 166.067 160.272 166.883 161.2C167.699 162.128 168.107 163.488 168.107 165.28V172H165.035V165.568C165.035 164.544 164.827 163.76 164.411 163.216C163.995 162.672 163.347 162.4 162.467 162.4C161.603 162.4 160.891 162.704 160.331 163.312C159.787 163.92 159.515 164.768 159.515 165.856V172H156.443ZM175.848 172C174.6 172 173.6 171.696 172.848 171.088C172.096 170.48 171.72 169.4 171.72 167.848V162.664H169.68V160.096H171.72L172.08 156.904H174.792V160.096H178.008V162.664H174.792V167.872C174.792 168.448 174.912 168.848 175.152 169.072C175.408 169.28 175.84 169.384 176.448 169.384H177.936V172H175.848ZM185.066 172.288C184.01 172.288 183.082 172.12 182.282 171.784C181.482 171.432 180.842 170.952 180.362 170.344C179.882 169.736 179.594 169.032 179.498 168.232H182.594C182.69 168.696 182.946 169.096 183.362 169.432C183.794 169.752 184.346 169.912 185.018 169.912C185.69 169.912 186.178 169.776 186.482 169.504C186.802 169.232 186.962 168.92 186.962 168.568C186.962 168.056 186.738 167.712 186.29 167.536C185.842 167.344 185.218 167.16 184.418 166.984C183.906 166.872 183.386 166.736 182.858 166.576C182.33 166.416 181.842 166.216 181.394 165.976C180.962 165.72 180.61 165.4 180.338 165.016C180.066 164.616 179.93 164.128 179.93 163.552C179.93 162.496 180.346 161.608 181.178 160.888C182.026 160.168 183.21 159.808 184.73 159.808C186.138 159.808 187.258 160.136 188.09 160.792C188.938 161.448 189.442 162.352 189.602 163.504H186.698C186.522 162.624 185.858 162.184 184.706 162.184C184.13 162.184 183.682 162.296 183.362 162.52C183.058 162.744 182.906 163.024 182.906 163.36C182.906 163.712 183.138 163.992 183.602 164.2C184.066 164.408 184.682 164.6 185.45 164.776C186.282 164.968 187.042 165.184 187.73 165.424C188.434 165.648 188.994 165.992 189.41 166.456C189.826 166.904 190.034 167.552 190.034 168.4C190.05 169.136 189.858 169.8 189.458 170.392C189.058 170.984 188.482 171.448 187.73 171.784C186.978 172.12 186.09 172.288 185.066 172.288Z" fill="#1787EE"/>
</svg>
