<svg width="240" height="240" viewBox="0 0 240 240" fill="none" xmlns="http://www.w3.org/2000/svg">
<rect width="240" height="240" rx="120" fill="#FFEEE7"/>
<path d="M63.4211 143V126.2H69.1571C71.1251 126.2 72.7411 126.552 74.0051 127.256C75.2851 127.944 76.2291 128.92 76.8371 130.184C77.4611 131.432 77.7731 132.904 77.7731 134.6C77.7731 136.296 77.4611 137.776 76.8371 139.04C76.2291 140.288 75.2851 141.264 74.0051 141.968C72.7411 142.656 71.1251 143 69.1571 143H63.4211ZM66.4931 140.36H69.0131C70.4211 140.36 71.5331 140.136 72.3491 139.688C73.1651 139.224 73.7491 138.568 74.1011 137.72C74.4531 136.856 74.6291 135.816 74.6291 134.6C74.6291 133.4 74.4531 132.368 74.1011 131.504C73.7491 130.64 73.1651 129.976 72.3491 129.512C71.5331 129.048 70.4211 128.816 69.0131 128.816H66.4931V140.36ZM85.6956 143.288C84.4956 143.288 83.4316 143.032 82.5036 142.52C81.5756 142.008 80.8476 141.288 80.3196 140.36C79.7916 139.432 79.5276 138.36 79.5276 137.144C79.5276 135.912 79.7836 134.816 80.2956 133.856C80.8236 132.896 81.5436 132.152 82.4556 131.624C83.3836 131.08 84.4716 130.808 85.7196 130.808C86.8876 130.808 87.9196 131.064 88.8156 131.576C89.7116 132.088 90.4076 132.792 90.9036 133.688C91.4156 134.568 91.6716 135.552 91.6716 136.64C91.6716 136.816 91.6636 137 91.6476 137.192C91.6476 137.384 91.6396 137.584 91.6236 137.792H82.5756C82.6396 138.72 82.9596 139.448 83.5356 139.976C84.1276 140.504 84.8396 140.768 85.6716 140.768C86.2956 140.768 86.8156 140.632 87.2316 140.36C87.6636 140.072 87.9836 139.704 88.1916 139.256H91.3116C91.0876 140.008 90.7116 140.696 90.1836 141.32C89.6716 141.928 89.0316 142.408 88.2636 142.76C87.5116 143.112 86.6556 143.288 85.6956 143.288ZM85.7196 133.304C84.9676 133.304 84.3036 133.52 83.7276 133.952C83.1516 134.368 82.7836 135.008 82.6236 135.872H88.5516C88.5036 135.088 88.2156 134.464 87.6876 134C87.1596 133.536 86.5036 133.304 85.7196 133.304ZM98.6753 143.288C97.6193 143.288 96.6913 143.12 95.8913 142.784C95.0913 142.432 94.4513 141.952 93.9713 141.344C93.4913 140.736 93.2033 140.032 93.1073 139.232H96.2033C96.2993 139.696 96.5553 140.096 96.9713 140.432C97.4033 140.752 97.9553 140.912 98.6273 140.912C99.2993 140.912 99.7873 140.776 100.091 140.504C100.411 140.232 100.571 139.92 100.571 139.568C100.571 139.056 100.347 138.712 99.8993 138.536C99.4513 138.344 98.8273 138.16 98.0273 137.984C97.5153 137.872 96.9953 137.736 96.4673 137.576C95.9393 137.416 95.4513 137.216 95.0033 136.976C94.5713 136.72 94.2193 136.4 93.9473 136.016C93.6753 135.616 93.5393 135.128 93.5393 134.552C93.5393 133.496 93.9553 132.608 94.7873 131.888C95.6353 131.168 96.8193 130.808 98.3393 130.808C99.7473 130.808 100.867 131.136 101.699 131.792C102.547 132.448 103.051 133.352 103.211 134.504H100.307C100.131 133.624 99.4673 133.184 98.3153 133.184C97.7393 133.184 97.2913 133.296 96.9713 133.52C96.6673 133.744 96.5153 134.024 96.5153 134.36C96.5153 134.712 96.7473 134.992 97.2113 135.2C97.6753 135.408 98.2913 135.6 99.0593 135.776C99.8913 135.968 100.651 136.184 101.339 136.424C102.043 136.648 102.603 136.992 103.019 137.456C103.435 137.904 103.643 138.552 103.643 139.4C103.659 140.136 103.467 140.8 103.067 141.392C102.667 141.984 102.091 142.448 101.339 142.784C100.587 143.12 99.6993 143.288 98.6753 143.288ZM105.865 143V125.72H108.937V135.92L113.161 131.096H116.809L111.937 136.52L117.601 143H113.761L108.937 137.024V143H105.865ZM124.309 143C123.061 143 122.061 142.696 121.309 142.088C120.557 141.48 120.181 140.4 120.181 138.848V133.664H118.141V131.096H120.181L120.541 127.904H123.253V131.096H126.469V133.664H123.253V138.872C123.253 139.448 123.373 139.848 123.613 140.072C123.869 140.28 124.301 140.384 124.909 140.384H126.397V143H124.309ZM134.014 143.288C132.862 143.288 131.822 143.024 130.894 142.496C129.982 141.968 129.254 141.24 128.71 140.312C128.182 139.368 127.918 138.28 127.918 137.048C127.918 135.816 128.19 134.736 128.734 133.808C129.278 132.864 130.006 132.128 130.918 131.6C131.846 131.072 132.886 130.808 134.038 130.808C135.174 130.808 136.198 131.072 137.11 131.6C138.038 132.128 138.766 132.864 139.294 133.808C139.838 134.736 140.11 135.816 140.11 137.048C140.11 138.28 139.838 139.368 139.294 140.312C138.766 141.24 138.038 141.968 137.11 142.496C136.182 143.024 135.15 143.288 134.014 143.288ZM134.014 140.624C134.814 140.624 135.51 140.328 136.102 139.736C136.694 139.128 136.99 138.232 136.99 137.048C136.99 135.864 136.694 134.976 136.102 134.384C135.51 133.776 134.822 133.472 134.038 133.472C133.222 133.472 132.518 133.776 131.926 134.384C131.35 134.976 131.062 135.864 131.062 137.048C131.062 138.232 131.35 139.128 131.926 139.736C132.518 140.328 133.214 140.624 134.014 140.624ZM142.357 148.28V131.096H145.093L145.429 132.8C145.813 132.272 146.317 131.808 146.941 131.408C147.581 131.008 148.405 130.808 149.413 130.808C150.533 130.808 151.533 131.08 152.413 131.624C153.293 132.168 153.989 132.912 154.501 133.856C155.013 134.8 155.269 135.872 155.269 137.072C155.269 138.272 155.013 139.344 154.501 140.288C153.989 141.216 153.293 141.952 152.413 142.496C151.533 143.024 150.533 143.288 149.413 143.288C148.517 143.288 147.733 143.12 147.061 142.784C146.389 142.448 145.845 141.976 145.429 141.368V148.28H142.357ZM148.765 140.6C149.741 140.6 150.549 140.272 151.189 139.616C151.829 138.96 152.149 138.112 152.149 137.072C152.149 136.032 151.829 135.176 151.189 134.504C150.549 133.832 149.741 133.496 148.765 133.496C147.773 133.496 146.957 133.832 146.317 134.504C145.693 135.16 145.381 136.008 145.381 137.048C145.381 138.088 145.693 138.944 146.317 139.616C146.957 140.272 147.773 140.6 148.765 140.6ZM168.18 143.264C166.948 143.264 165.876 143.056 164.964 142.64C164.052 142.208 163.34 141.608 162.828 140.84C162.332 140.072 162.084 139.176 162.084 138.152C162.084 137.064 162.388 136.08 162.996 135.2C163.604 134.32 164.508 133.616 165.708 133.088C165.228 132.528 164.884 132 164.676 131.504C164.468 131.008 164.364 130.48 164.364 129.92C164.364 129.152 164.556 128.472 164.94 127.88C165.324 127.272 165.868 126.792 166.572 126.44C167.292 126.088 168.148 125.912 169.14 125.912C170.148 125.912 171.004 126.096 171.708 126.464C172.412 126.832 172.94 127.328 173.292 127.952C173.66 128.576 173.828 129.272 173.796 130.04H170.868C170.868 129.448 170.692 129.008 170.34 128.72C170.004 128.416 169.596 128.264 169.116 128.264C168.572 128.264 168.132 128.416 167.796 128.72C167.476 129.024 167.316 129.416 167.316 129.896C167.316 130.296 167.444 130.704 167.7 131.12C167.956 131.536 168.332 132.016 168.828 132.56L173.532 137.216C173.868 136.672 174.22 136.04 174.588 135.32L175.116 134.264H178.26L177.42 135.896C176.78 137.192 176.14 138.288 175.5 139.184L179.364 143H175.692L173.82 141.128C173.004 141.88 172.132 142.424 171.204 142.76C170.292 143.096 169.284 143.264 168.18 143.264ZM165.06 137.96C165.06 138.744 165.348 139.408 165.924 139.952C166.516 140.48 167.3 140.744 168.276 140.744C169.668 140.744 170.876 140.248 171.9 139.256L167.46 134.864C166.644 135.216 166.036 135.656 165.636 136.184C165.252 136.712 165.06 137.304 165.06 137.96ZM53.2084 172V160.096H55.9204L56.1844 161.704C56.5684 161.128 57.0724 160.672 57.6964 160.336C58.3364 159.984 59.0724 159.808 59.9044 159.808C61.7444 159.808 63.0484 160.52 63.8164 161.944C64.2484 161.288 64.8244 160.768 65.5444 160.384C66.2804 160 67.0804 159.808 67.9444 159.808C69.4964 159.808 70.6884 160.272 71.5204 161.2C72.3524 162.128 72.7684 163.488 72.7684 165.28V172H69.6964V165.568C69.6964 164.544 69.4964 163.76 69.0964 163.216C68.7124 162.672 68.1124 162.4 67.2964 162.4C66.4644 162.4 65.7924 162.704 65.2804 163.312C64.7844 163.92 64.5364 164.768 64.5364 165.856V172H61.4644V165.568C61.4644 164.544 61.2644 163.76 60.8644 163.216C60.4644 162.672 59.8484 162.4 59.0164 162.4C58.2004 162.4 57.5364 162.704 57.0244 163.312C56.5284 163.92 56.2804 164.768 56.2804 165.856V172H53.2084ZM80.897 172.288C79.745 172.288 78.705 172.024 77.777 171.496C76.865 170.968 76.137 170.24 75.593 169.312C75.065 168.368 74.801 167.28 74.801 166.048C74.801 164.816 75.073 163.736 75.617 162.808C76.161 161.864 76.889 161.128 77.801 160.6C78.729 160.072 79.769 159.808 80.921 159.808C82.057 159.808 83.081 160.072 83.993 160.6C84.921 161.128 85.649 161.864 86.177 162.808C86.721 163.736 86.993 164.816 86.993 166.048C86.993 167.28 86.721 168.368 86.177 169.312C85.649 170.24 84.921 170.968 83.993 171.496C83.065 172.024 82.033 172.288 80.897 172.288ZM80.897 169.624C81.697 169.624 82.393 169.328 82.985 168.736C83.577 168.128 83.873 167.232 83.873 166.048C83.873 164.864 83.577 163.976 82.985 163.384C82.393 162.776 81.705 162.472 80.921 162.472C80.105 162.472 79.401 162.776 78.809 163.384C78.233 163.976 77.945 164.864 77.945 166.048C77.945 167.232 78.233 168.128 78.809 168.736C79.401 169.328 80.097 169.624 80.897 169.624ZM96.2957 172.288C95.3997 172.288 94.6157 172.12 93.9437 171.784C93.2717 171.448 92.7277 170.976 92.3117 170.368L91.9757 172H89.2397V154.72H92.3117V161.8C92.6957 161.272 93.1997 160.808 93.8237 160.408C94.4637 160.008 95.2877 159.808 96.2957 159.808C97.4157 159.808 98.4157 160.08 99.2957 160.624C100.176 161.168 100.872 161.912 101.384 162.856C101.896 163.8 102.152 164.872 102.152 166.072C102.152 167.272 101.896 168.344 101.384 169.288C100.872 170.216 100.176 170.952 99.2957 171.496C98.4157 172.024 97.4157 172.288 96.2957 172.288ZM95.6477 169.6C96.6237 169.6 97.4317 169.272 98.0717 168.616C98.7117 167.96 99.0317 167.112 99.0317 166.072C99.0317 165.032 98.7117 164.176 98.0717 163.504C97.4317 162.832 96.6237 162.496 95.6477 162.496C94.6557 162.496 93.8397 162.832 93.1997 163.504C92.5757 164.16 92.2637 165.008 92.2637 166.048C92.2637 167.088 92.5757 167.944 93.1997 168.616C93.8397 169.272 94.6557 169.6 95.6477 169.6ZM106.052 158.248C105.492 158.248 105.028 158.08 104.66 157.744C104.308 157.408 104.132 156.984 104.132 156.472C104.132 155.96 104.308 155.544 104.66 155.224C105.028 154.888 105.492 154.72 106.052 154.72C106.612 154.72 107.068 154.888 107.42 155.224C107.788 155.544 107.972 155.96 107.972 156.472C107.972 156.984 107.788 157.408 107.42 157.744C107.068 158.08 106.612 158.248 106.052 158.248ZM104.516 172V160.096H107.588V172H104.516ZM110.294 172V154.72H113.366V172H110.294ZM121.789 172.288C120.589 172.288 119.525 172.032 118.597 171.52C117.669 171.008 116.941 170.288 116.413 169.36C115.885 168.432 115.621 167.36 115.621 166.144C115.621 164.912 115.877 163.816 116.389 162.856C116.917 161.896 117.637 161.152 118.549 160.624C119.477 160.08 120.565 159.808 121.813 159.808C122.981 159.808 124.013 160.064 124.909 160.576C125.805 161.088 126.501 161.792 126.997 162.688C127.509 163.568 127.765 164.552 127.765 165.64C127.765 165.816 127.757 166 127.741 166.192C127.741 166.384 127.733 166.584 127.717 166.792H118.669C118.733 167.72 119.053 168.448 119.629 168.976C120.221 169.504 120.933 169.768 121.765 169.768C122.389 169.768 122.909 169.632 123.325 169.36C123.757 169.072 124.077 168.704 124.285 168.256H127.405C127.181 169.008 126.805 169.696 126.277 170.32C125.765 170.928 125.125 171.408 124.357 171.76C123.605 172.112 122.749 172.288 121.789 172.288ZM121.813 162.304C121.061 162.304 120.397 162.52 119.821 162.952C119.245 163.368 118.877 164.008 118.717 164.872H124.645C124.597 164.088 124.309 163.464 123.781 163C123.253 162.536 122.597 162.304 121.813 162.304ZM140.108 168.448C139.532 168.448 138.996 168.384 138.5 168.256L137.612 169.144C137.884 169.288 138.252 169.408 138.716 169.504C139.18 169.6 139.932 169.696 140.972 169.792C142.556 169.936 143.708 170.312 144.428 170.92C145.148 171.528 145.508 172.368 145.508 173.44C145.508 174.144 145.316 174.808 144.932 175.432C144.548 176.072 143.956 176.584 143.156 176.968C142.356 177.368 141.332 177.568 140.084 177.568C138.388 177.568 137.02 177.248 135.98 176.608C134.94 175.984 134.42 175.04 134.42 173.776C134.42 172.704 134.94 171.776 135.98 170.992C135.66 170.848 135.38 170.696 135.14 170.536C134.916 170.376 134.716 170.208 134.54 170.032V169.48L136.628 167.272C135.7 166.456 135.236 165.408 135.236 164.128C135.236 163.328 135.428 162.6 135.812 161.944C136.212 161.288 136.772 160.768 137.492 160.384C138.212 160 139.084 159.808 140.108 159.808C140.78 159.808 141.404 159.904 141.98 160.096H146.492V161.968L144.452 162.112C144.772 162.72 144.932 163.392 144.932 164.128C144.932 164.928 144.74 165.656 144.356 166.312C143.972 166.968 143.412 167.488 142.676 167.872C141.956 168.256 141.1 168.448 140.108 168.448ZM140.108 166.096C140.732 166.096 141.244 165.928 141.644 165.592C142.06 165.256 142.268 164.776 142.268 164.152C142.268 163.528 142.06 163.048 141.644 162.712C141.244 162.376 140.732 162.208 140.108 162.208C139.452 162.208 138.924 162.376 138.524 162.712C138.124 163.048 137.924 163.528 137.924 164.152C137.924 164.776 138.124 165.256 138.524 165.592C138.924 165.928 139.452 166.096 140.108 166.096ZM137.228 173.464C137.228 174.056 137.5 174.496 138.044 174.784C138.604 175.088 139.284 175.24 140.084 175.24C140.852 175.24 141.476 175.08 141.956 174.76C142.436 174.456 142.676 174.04 142.676 173.512C142.676 173.08 142.516 172.72 142.196 172.432C141.892 172.144 141.276 171.968 140.348 171.904C139.692 171.856 139.084 171.784 138.524 171.688C138.06 171.944 137.724 172.224 137.516 172.528C137.324 172.832 137.228 173.144 137.228 173.464ZM148.232 172V160.096H150.968L151.256 162.328C151.688 161.56 152.272 160.952 153.008 160.504C153.76 160.04 154.64 159.808 155.648 159.808V163.048H154.784C154.112 163.048 153.512 163.152 152.984 163.36C152.456 163.568 152.04 163.928 151.736 164.44C151.448 164.952 151.304 165.664 151.304 166.576V172H148.232ZM158.904 158.248C158.344 158.248 157.88 158.08 157.512 157.744C157.16 157.408 156.984 156.984 156.984 156.472C156.984 155.96 157.16 155.544 157.512 155.224C157.88 154.888 158.344 154.72 158.904 154.72C159.464 154.72 159.92 154.888 160.272 155.224C160.64 155.544 160.824 155.96 160.824 156.472C160.824 156.984 160.64 157.408 160.272 157.744C159.92 158.08 159.464 158.248 158.904 158.248ZM157.368 172V160.096H160.44V172H157.368ZM168.618 172.288C167.498 172.288 166.498 172.016 165.618 171.472C164.738 170.928 164.042 170.184 163.53 169.24C163.018 168.296 162.762 167.224 162.762 166.024C162.762 164.824 163.018 163.76 163.53 162.832C164.042 161.888 164.738 161.152 165.618 160.624C166.498 160.08 167.498 159.808 168.618 159.808C169.514 159.808 170.298 159.976 170.97 160.312C171.642 160.648 172.186 161.12 172.602 161.728V154.72H175.674V172H172.938L172.602 170.296C172.218 170.824 171.706 171.288 171.066 171.688C170.442 172.088 169.626 172.288 168.618 172.288ZM169.266 169.6C170.258 169.6 171.066 169.272 171.69 168.616C172.33 167.944 172.65 167.088 172.65 166.048C172.65 165.008 172.33 164.16 171.69 163.504C171.066 162.832 170.258 162.496 169.266 162.496C168.29 162.496 167.482 162.824 166.842 163.48C166.202 164.136 165.882 164.984 165.882 166.024C165.882 167.064 166.202 167.92 166.842 168.592C167.482 169.264 168.29 169.6 169.266 169.6ZM183.222 172.288C182.166 172.288 181.238 172.12 180.438 171.784C179.638 171.432 178.998 170.952 178.518 170.344C178.038 169.736 177.75 169.032 177.654 168.232H180.75C180.846 168.696 181.102 169.096 181.518 169.432C181.95 169.752 182.502 169.912 183.174 169.912C183.846 169.912 184.334 169.776 184.638 169.504C184.958 169.232 185.118 168.92 185.118 168.568C185.118 168.056 184.894 167.712 184.446 167.536C183.998 167.344 183.374 167.16 182.574 166.984C182.062 166.872 181.542 166.736 181.014 166.576C180.486 166.416 179.998 166.216 179.55 165.976C179.118 165.72 178.766 165.4 178.494 165.016C178.222 164.616 178.086 164.128 178.086 163.552C178.086 162.496 178.502 161.608 179.334 160.888C180.182 160.168 181.366 159.808 182.886 159.808C184.294 159.808 185.414 160.136 186.246 160.792C187.094 161.448 187.598 162.352 187.758 163.504H184.854C184.678 162.624 184.014 162.184 182.862 162.184C182.286 162.184 181.838 162.296 181.518 162.52C181.214 162.744 181.062 163.024 181.062 163.36C181.062 163.712 181.294 163.992 181.758 164.2C182.222 164.408 182.838 164.6 183.606 164.776C184.438 164.968 185.198 165.184 185.886 165.424C186.59 165.648 187.15 165.992 187.566 166.456C187.982 166.904 188.19 167.552 188.19 168.4C188.206 169.136 188.014 169.8 187.614 170.392C187.214 170.984 186.638 171.448 185.886 171.784C185.134 172.12 184.246 172.288 183.222 172.288Z" fill="#FF6726"/>
<path fill-rule="evenodd" clip-rule="evenodd" d="M96 54C95.4477 54 95 54.4477 95 55V63C95 63.5523 95.4477 64 96 64H141.5C142.052 64 142.5 63.5523 142.5 63V55C142.5 54.4477 142.052 54 141.5 54H96ZM113.5 69C112.948 69 112.5 69.4477 112.5 70V93C112.5 93.5523 112.948 94 113.5 94H141.5C142.052 94 142.5 93.5523 142.5 93V70C142.5 69.4477 142.052 69 141.5 69H113.5Z" fill="#FF6726"/>
<rect opacity="0.3" x="95" y="69" width="12.5" height="25" rx="1" fill="#FF6726"/>
</svg>
