<svg width="240" height="240" viewBox="0 0 240 240" fill="none" xmlns="http://www.w3.org/2000/svg">
<rect width="240" height="240" rx="120" fill="#DCE1FF"/>
<path d="M45.6159 143.288C44.3839 143.288 43.2719 143.048 42.2799 142.568C41.2879 142.072 40.4959 141.328 39.9039 140.336C39.3279 139.344 39.0399 138.088 39.0399 136.568V126.2H42.1119V136.592C42.1119 137.904 42.4239 138.88 43.0479 139.52C43.6879 140.16 44.5679 140.48 45.6879 140.48C46.7919 140.48 47.6639 140.16 48.3039 139.52C48.9439 138.88 49.2639 137.904 49.2639 136.592V126.2H52.3359V136.568C52.3359 138.088 52.0319 139.344 51.4239 140.336C50.8159 141.328 49.9999 142.072 48.9759 142.568C47.9679 143.048 46.8479 143.288 45.6159 143.288ZM54.8998 143V131.096H57.6118L57.8518 133.112C58.2198 132.408 58.7478 131.848 59.4358 131.432C60.1398 131.016 60.9638 130.808 61.9078 130.808C63.3798 130.808 64.5238 131.272 65.3398 132.2C66.1558 133.128 66.5638 134.488 66.5638 136.28V143H63.4918V136.568C63.4918 135.544 63.2838 134.76 62.8678 134.216C62.4518 133.672 61.8038 133.4 60.9238 133.4C60.0598 133.4 59.3478 133.704 58.7878 134.312C58.2438 134.92 57.9718 135.768 57.9718 136.856V143H54.8998ZM70.6574 129.248C70.0974 129.248 69.6334 129.08 69.2654 128.744C68.9134 128.408 68.7374 127.984 68.7374 127.472C68.7374 126.96 68.9134 126.544 69.2654 126.224C69.6334 125.888 70.0974 125.72 70.6574 125.72C71.2174 125.72 71.6734 125.888 72.0254 126.224C72.3934 126.544 72.5774 126.96 72.5774 127.472C72.5774 127.984 72.3934 128.408 72.0254 128.744C71.6734 129.08 71.2174 129.248 70.6574 129.248ZM69.1214 143V131.096H72.1934V143H69.1214ZM78.1158 143L73.7478 131.096H76.9638L79.9878 140.096L83.0118 131.096H86.2278L81.8358 143H78.1158ZM92.8635 143.288C91.6635 143.288 90.5995 143.032 89.6715 142.52C88.7435 142.008 88.0155 141.288 87.4875 140.36C86.9595 139.432 86.6955 138.36 86.6955 137.144C86.6955 135.912 86.9515 134.816 87.4635 133.856C87.9915 132.896 88.7115 132.152 89.6235 131.624C90.5515 131.08 91.6395 130.808 92.8875 130.808C94.0555 130.808 95.0875 131.064 95.9835 131.576C96.8795 132.088 97.5755 132.792 98.0715 133.688C98.5835 134.568 98.8395 135.552 98.8395 136.64C98.8395 136.816 98.8315 137 98.8155 137.192C98.8155 137.384 98.8075 137.584 98.7915 137.792H89.7435C89.8075 138.72 90.1275 139.448 90.7035 139.976C91.2955 140.504 92.0075 140.768 92.8395 140.768C93.4635 140.768 93.9835 140.632 94.3995 140.36C94.8315 140.072 95.1515 139.704 95.3595 139.256H98.4795C98.2555 140.008 97.8795 140.696 97.3515 141.32C96.8395 141.928 96.1995 142.408 95.4315 142.76C94.6795 143.112 93.8235 143.288 92.8635 143.288ZM92.8875 133.304C92.1355 133.304 91.4715 133.52 90.8955 133.952C90.3195 134.368 89.9515 135.008 89.7915 135.872H95.7195C95.6715 135.088 95.3835 134.464 94.8555 134C94.3275 133.536 93.6715 133.304 92.8875 133.304ZM100.923 143V131.096H103.659L103.947 133.328C104.379 132.56 104.963 131.952 105.699 131.504C106.451 131.04 107.331 130.808 108.339 130.808V134.048H107.475C106.803 134.048 106.203 134.152 105.675 134.36C105.147 134.568 104.731 134.928 104.427 135.44C104.139 135.952 103.995 136.664 103.995 137.576V143H100.923ZM114.859 143.288C113.803 143.288 112.875 143.12 112.075 142.784C111.275 142.432 110.635 141.952 110.155 141.344C109.675 140.736 109.387 140.032 109.291 139.232H112.387C112.483 139.696 112.739 140.096 113.155 140.432C113.587 140.752 114.139 140.912 114.811 140.912C115.483 140.912 115.971 140.776 116.275 140.504C116.595 140.232 116.755 139.92 116.755 139.568C116.755 139.056 116.531 138.712 116.083 138.536C115.635 138.344 115.011 138.16 114.211 137.984C113.699 137.872 113.179 137.736 112.651 137.576C112.123 137.416 111.635 137.216 111.187 136.976C110.755 136.72 110.403 136.4 110.131 136.016C109.859 135.616 109.723 135.128 109.723 134.552C109.723 133.496 110.139 132.608 110.971 131.888C111.819 131.168 113.003 130.808 114.523 130.808C115.931 130.808 117.051 131.136 117.883 131.792C118.731 132.448 119.235 133.352 119.395 134.504H116.491C116.315 133.624 115.651 133.184 114.499 133.184C113.923 133.184 113.475 133.296 113.155 133.52C112.851 133.744 112.699 134.024 112.699 134.36C112.699 134.712 112.931 134.992 113.395 135.2C113.859 135.408 114.475 135.6 115.243 135.776C116.075 135.968 116.835 136.184 117.523 136.424C118.227 136.648 118.787 136.992 119.203 137.456C119.619 137.904 119.827 138.552 119.827 139.4C119.843 140.136 119.651 140.8 119.251 141.392C118.851 141.984 118.275 142.448 117.523 142.784C116.771 143.12 115.883 143.288 114.859 143.288ZM126.152 143.288C125.128 143.288 124.288 143.128 123.632 142.808C122.976 142.472 122.488 142.032 122.168 141.488C121.848 140.944 121.688 140.344 121.688 139.688C121.688 138.584 122.12 137.688 122.984 137C123.848 136.312 125.144 135.968 126.872 135.968H129.896V135.68C129.896 134.864 129.664 134.264 129.2 133.88C128.736 133.496 128.16 133.304 127.472 133.304C126.848 133.304 126.304 133.456 125.84 133.76C125.376 134.048 125.088 134.48 124.976 135.056H121.976C122.056 134.192 122.344 133.44 122.84 132.8C123.352 132.16 124.008 131.672 124.808 131.336C125.608 130.984 126.504 130.808 127.496 130.808C129.192 130.808 130.528 131.232 131.504 132.08C132.48 132.928 132.968 134.128 132.968 135.68V143H130.352L130.064 141.08C129.712 141.72 129.216 142.248 128.576 142.664C127.952 143.08 127.144 143.288 126.152 143.288ZM126.848 140.888C127.728 140.888 128.408 140.6 128.888 140.024C129.384 139.448 129.696 138.736 129.824 137.888H127.208C126.392 137.888 125.808 138.04 125.456 138.344C125.104 138.632 124.928 138.992 124.928 139.424C124.928 139.888 125.104 140.248 125.456 140.504C125.808 140.76 126.272 140.888 126.848 140.888ZM135.4 143V125.72H138.472V143H135.4ZM152.162 143.288C150.946 143.288 149.874 143.024 148.946 142.496C148.018 141.968 147.282 141.232 146.738 140.288C146.21 139.344 145.946 138.264 145.946 137.048C145.946 135.832 146.21 134.752 146.738 133.808C147.282 132.864 148.018 132.128 148.946 131.6C149.874 131.072 150.946 130.808 152.162 130.808C153.682 130.808 154.962 131.208 156.002 132.008C157.042 132.792 157.706 133.88 157.994 135.272H154.754C154.594 134.696 154.274 134.248 153.794 133.928C153.33 133.592 152.778 133.424 152.138 133.424C151.29 133.424 150.57 133.744 149.978 134.384C149.386 135.024 149.09 135.912 149.09 137.048C149.09 138.184 149.386 139.072 149.978 139.712C150.57 140.352 151.29 140.672 152.138 140.672C152.778 140.672 153.33 140.512 153.794 140.192C154.274 139.872 154.594 139.416 154.754 138.824H157.994C157.706 140.168 157.042 141.248 156.002 142.064C154.962 142.88 153.682 143.288 152.162 143.288ZM165.932 143.288C164.78 143.288 163.74 143.024 162.812 142.496C161.9 141.968 161.172 141.24 160.628 140.312C160.1 139.368 159.836 138.28 159.836 137.048C159.836 135.816 160.108 134.736 160.652 133.808C161.196 132.864 161.924 132.128 162.836 131.6C163.764 131.072 164.804 130.808 165.956 130.808C167.092 130.808 168.116 131.072 169.028 131.6C169.956 132.128 170.684 132.864 171.212 133.808C171.756 134.736 172.028 135.816 172.028 137.048C172.028 138.28 171.756 139.368 171.212 140.312C170.684 141.24 169.956 141.968 169.028 142.496C168.1 143.024 167.068 143.288 165.932 143.288ZM165.932 140.624C166.732 140.624 167.428 140.328 168.02 139.736C168.612 139.128 168.908 138.232 168.908 137.048C168.908 135.864 168.612 134.976 168.02 134.384C167.428 133.776 166.74 133.472 165.956 133.472C165.14 133.472 164.436 133.776 163.844 134.384C163.268 134.976 162.98 135.864 162.98 137.048C162.98 138.232 163.268 139.128 163.844 139.736C164.436 140.328 165.132 140.624 165.932 140.624ZM174.275 143V125.72H177.347V143H174.275ZM185.698 143.288C184.546 143.288 183.506 143.024 182.578 142.496C181.666 141.968 180.938 141.24 180.394 140.312C179.866 139.368 179.602 138.28 179.602 137.048C179.602 135.816 179.874 134.736 180.418 133.808C180.962 132.864 181.69 132.128 182.602 131.6C183.53 131.072 184.57 130.808 185.722 130.808C186.858 130.808 187.882 131.072 188.794 131.6C189.722 132.128 190.45 132.864 190.978 133.808C191.522 134.736 191.794 135.816 191.794 137.048C191.794 138.28 191.522 139.368 190.978 140.312C190.45 141.24 189.722 141.968 188.794 142.496C187.866 143.024 186.834 143.288 185.698 143.288ZM185.698 140.624C186.498 140.624 187.194 140.328 187.786 139.736C188.378 139.128 188.674 138.232 188.674 137.048C188.674 135.864 188.378 134.976 187.786 134.384C187.194 133.776 186.506 133.472 185.722 133.472C184.906 133.472 184.202 133.776 183.61 134.384C183.034 134.976 182.746 135.864 182.746 137.048C182.746 138.232 183.034 139.128 183.61 139.736C184.202 140.328 184.898 140.624 185.698 140.624ZM194.04 143V131.096H196.776L197.064 133.328C197.496 132.56 198.08 131.952 198.816 131.504C199.568 131.04 200.448 130.808 201.456 130.808V134.048H200.592C199.92 134.048 199.32 134.152 198.792 134.36C198.264 134.568 197.848 134.928 197.544 135.44C197.256 135.952 197.112 136.664 197.112 137.576V143H194.04ZM80.5131 177.28V160.096H83.2491L83.5851 161.8C83.9691 161.272 84.4731 160.808 85.0971 160.408C85.7371 160.008 86.5611 159.808 87.5691 159.808C88.6891 159.808 89.6891 160.08 90.5691 160.624C91.4491 161.168 92.1451 161.912 92.6571 162.856C93.1691 163.8 93.4251 164.872 93.4251 166.072C93.4251 167.272 93.1691 168.344 92.6571 169.288C92.1451 170.216 91.4491 170.952 90.5691 171.496C89.6891 172.024 88.6891 172.288 87.5691 172.288C86.6731 172.288 85.8891 172.12 85.2171 171.784C84.5451 171.448 84.0011 170.976 83.5851 170.368V177.28H80.5131ZM86.9211 169.6C87.8971 169.6 88.7051 169.272 89.3451 168.616C89.9851 167.96 90.3051 167.112 90.3051 166.072C90.3051 165.032 89.9851 164.176 89.3451 163.504C88.7051 162.832 87.8971 162.496 86.9211 162.496C85.9291 162.496 85.1131 162.832 84.4731 163.504C83.8491 164.16 83.5371 165.008 83.5371 166.048C83.5371 167.088 83.8491 167.944 84.4731 168.616C85.1131 169.272 85.9291 169.6 86.9211 169.6ZM99.7734 172.288C98.7494 172.288 97.9094 172.128 97.2534 171.808C96.5974 171.472 96.1094 171.032 95.7894 170.488C95.4694 169.944 95.3094 169.344 95.3094 168.688C95.3094 167.584 95.7414 166.688 96.6054 166C97.4694 165.312 98.7654 164.968 100.493 164.968H103.517V164.68C103.517 163.864 103.285 163.264 102.821 162.88C102.357 162.496 101.781 162.304 101.093 162.304C100.469 162.304 99.9254 162.456 99.4614 162.76C98.9974 163.048 98.7094 163.48 98.5974 164.056H95.5974C95.6774 163.192 95.9654 162.44 96.4614 161.8C96.9734 161.16 97.6294 160.672 98.4294 160.336C99.2294 159.984 100.125 159.808 101.117 159.808C102.813 159.808 104.149 160.232 105.125 161.08C106.101 161.928 106.589 163.128 106.589 164.68V172H103.973L103.685 170.08C103.333 170.72 102.837 171.248 102.197 171.664C101.573 172.08 100.765 172.288 99.7734 172.288ZM100.469 169.888C101.349 169.888 102.029 169.6 102.509 169.024C103.005 168.448 103.317 167.736 103.445 166.888H100.829C100.013 166.888 99.4294 167.04 99.0774 167.344C98.7254 167.632 98.5494 167.992 98.5494 168.424C98.5494 168.888 98.7254 169.248 99.0774 169.504C99.4294 169.76 99.8934 169.888 100.469 169.888ZM109.021 172V154.72H112.093V172H109.021ZM120.516 172.288C119.316 172.288 118.252 172.032 117.324 171.52C116.396 171.008 115.668 170.288 115.14 169.36C114.612 168.432 114.348 167.36 114.348 166.144C114.348 164.912 114.604 163.816 115.116 162.856C115.644 161.896 116.364 161.152 117.276 160.624C118.204 160.08 119.292 159.808 120.54 159.808C121.708 159.808 122.74 160.064 123.636 160.576C124.532 161.088 125.228 161.792 125.724 162.688C126.236 163.568 126.492 164.552 126.492 165.64C126.492 165.816 126.484 166 126.468 166.192C126.468 166.384 126.46 166.584 126.444 166.792H117.396C117.46 167.72 117.78 168.448 118.356 168.976C118.948 169.504 119.66 169.768 120.492 169.768C121.116 169.768 121.636 169.632 122.052 169.36C122.484 169.072 122.804 168.704 123.012 168.256H126.132C125.908 169.008 125.532 169.696 125.004 170.32C124.492 170.928 123.852 171.408 123.084 171.76C122.332 172.112 121.476 172.288 120.516 172.288ZM120.54 162.304C119.788 162.304 119.124 162.52 118.548 162.952C117.972 163.368 117.604 164.008 117.444 164.872H123.372C123.324 164.088 123.036 163.464 122.508 163C121.98 162.536 121.324 162.304 120.54 162.304ZM133.669 172C132.421 172 131.421 171.696 130.669 171.088C129.917 170.48 129.541 169.4 129.541 167.848V162.664H127.501V160.096H129.541L129.901 156.904H132.613V160.096H135.829V162.664H132.613V167.872C132.613 168.448 132.733 168.848 132.973 169.072C133.229 169.28 133.661 169.384 134.269 169.384H135.757V172H133.669ZM143.27 172C142.022 172 141.022 171.696 140.27 171.088C139.518 170.48 139.142 169.4 139.142 167.848V162.664H137.102V160.096H139.142L139.502 156.904H142.214V160.096H145.43V162.664H142.214V167.872C142.214 168.448 142.334 168.848 142.574 169.072C142.83 169.28 143.262 169.384 143.87 169.384H145.358V172H143.27ZM153.047 172.288C151.847 172.288 150.783 172.032 149.855 171.52C148.927 171.008 148.199 170.288 147.671 169.36C147.143 168.432 146.879 167.36 146.879 166.144C146.879 164.912 147.135 163.816 147.647 162.856C148.175 161.896 148.895 161.152 149.807 160.624C150.735 160.08 151.823 159.808 153.071 159.808C154.239 159.808 155.271 160.064 156.167 160.576C157.063 161.088 157.759 161.792 158.255 162.688C158.767 163.568 159.023 164.552 159.023 165.64C159.023 165.816 159.015 166 158.999 166.192C158.999 166.384 158.991 166.584 158.975 166.792H149.927C149.991 167.72 150.311 168.448 150.887 168.976C151.479 169.504 152.191 169.768 153.023 169.768C153.647 169.768 154.167 169.632 154.583 169.36C155.015 169.072 155.335 168.704 155.543 168.256H158.663C158.439 169.008 158.063 169.696 157.535 170.32C157.023 170.928 156.383 171.408 155.615 171.76C154.863 172.112 154.007 172.288 153.047 172.288ZM153.071 162.304C152.319 162.304 151.655 162.52 151.079 162.952C150.503 163.368 150.135 164.008 149.975 164.872H155.903C155.855 164.088 155.567 163.464 155.039 163C154.511 162.536 153.855 162.304 153.071 162.304Z" fill="#334FE6"/>
<path opacity="0.3" fill-rule="evenodd" clip-rule="evenodd" d="M145 77.3824C145 76.895 144.605 76.5 144.118 76.5H110C104.477 76.5 100 80.9772 100 86.5C100 92.0228 104.477 96.5 110 96.5H144.118C144.605 96.5 145 96.105 145 95.6176V77.3824ZM112.5 86.5C112.5 89.2614 110.261 91.5 107.5 91.5C104.739 91.5 102.5 89.2614 102.5 86.5C102.5 83.7386 104.739 81.5 107.5 81.5C110.261 81.5 112.5 83.7386 112.5 86.5Z" fill="#334FE6"/>
<path opacity="0.3" fill-rule="evenodd" clip-rule="evenodd" d="M125.942 55.3385C125.598 54.9939 125.039 54.9939 124.694 55.3385L100.57 79.4633C96.6643 83.3685 96.6643 89.7002 100.57 93.6054C104.475 97.5106 110.806 97.5107 114.712 93.6054L138.837 69.4806C139.181 69.136 139.181 68.5773 138.837 68.2328L125.942 55.3385ZM112.5 86.5C112.5 89.2614 110.261 91.5 107.5 91.5C104.739 91.5 102.5 89.2614 102.5 86.5C102.5 83.7386 104.739 81.5 107.5 81.5C110.261 81.5 112.5 83.7386 112.5 86.5Z" fill="#334FE6"/>
<path fill-rule="evenodd" clip-rule="evenodd" d="M98.3824 51.5C97.895 51.5 97.5 51.895 97.5 52.3824V86.5C97.5 92.0228 101.977 96.5 107.5 96.5C113.023 96.5 117.5 92.0228 117.5 86.5V52.3824C117.5 51.895 117.105 51.5 116.618 51.5H98.3824ZM112.5 86.5C112.5 89.2614 110.261 91.5 107.5 91.5C104.739 91.5 102.5 89.2614 102.5 86.5C102.5 83.7386 104.739 81.5 107.5 81.5C110.261 81.5 112.5 83.7386 112.5 86.5Z" fill="#334FE6"/>
</svg>
