<svg width="240" height="240" viewBox="0 0 240 240" fill="none" xmlns="http://www.w3.org/2000/svg">
<rect width="240" height="240" rx="120" fill="#FEF4DC"/>
<path d="M64.618 143.288C63.386 143.288 62.298 143.08 61.354 142.664C60.41 142.232 59.666 141.624 59.122 140.84C58.578 140.04 58.298 139.072 58.282 137.936H61.522C61.554 138.72 61.834 139.384 62.362 139.928C62.906 140.456 63.65 140.72 64.594 140.72C65.41 140.72 66.058 140.528 66.538 140.144C67.018 139.744 67.258 139.216 67.258 138.56C67.258 137.872 67.042 137.336 66.61 136.952C66.194 136.568 65.634 136.256 64.93 136.016C64.226 135.776 63.474 135.52 62.674 135.248C61.378 134.8 60.386 134.224 59.698 133.52C59.026 132.816 58.69 131.88 58.69 130.712C58.674 129.72 58.906 128.872 59.386 128.168C59.882 127.448 60.554 126.896 61.402 126.512C62.25 126.112 63.226 125.912 64.33 125.912C65.45 125.912 66.434 126.112 67.282 126.512C68.146 126.912 68.818 127.472 69.298 128.192C69.794 128.912 70.058 129.768 70.09 130.76H66.802C66.786 130.168 66.554 129.648 66.106 129.2C65.674 128.736 65.066 128.504 64.282 128.504C63.61 128.488 63.042 128.656 62.578 129.008C62.13 129.344 61.906 129.84 61.906 130.496C61.906 131.056 62.082 131.504 62.434 131.84C62.786 132.16 63.266 132.432 63.874 132.656C64.482 132.88 65.178 133.12 65.962 133.376C66.794 133.664 67.554 134 68.242 134.384C68.93 134.768 69.482 135.28 69.898 135.92C70.314 136.544 70.522 137.352 70.522 138.344C70.522 139.224 70.298 140.04 69.85 140.792C69.402 141.544 68.738 142.152 67.858 142.616C66.978 143.064 65.898 143.288 64.618 143.288ZM74.2863 129.248C73.7263 129.248 73.2623 129.08 72.8943 128.744C72.5423 128.408 72.3663 127.984 72.3663 127.472C72.3663 126.96 72.5423 126.544 72.8943 126.224C73.2623 125.888 73.7263 125.72 74.2863 125.72C74.8463 125.72 75.3023 125.888 75.6543 126.224C76.0223 126.544 76.2063 126.96 76.2063 127.472C76.2063 127.984 76.0223 128.408 75.6543 128.744C75.3023 129.08 74.8463 129.248 74.2863 129.248ZM72.7503 143V131.096H75.8223V143H72.7503ZM78.5288 143V131.096H81.2408L81.5048 132.704C81.8888 132.128 82.3928 131.672 83.0168 131.336C83.6568 130.984 84.3928 130.808 85.2248 130.808C87.0648 130.808 88.3688 131.52 89.1368 132.944C89.5688 132.288 90.1448 131.768 90.8648 131.384C91.6008 131 92.4008 130.808 93.2648 130.808C94.8168 130.808 96.0088 131.272 96.8408 132.2C97.6728 133.128 98.0888 134.488 98.0888 136.28V143H95.0168V136.568C95.0168 135.544 94.8168 134.76 94.4168 134.216C94.0328 133.672 93.4328 133.4 92.6168 133.4C91.7848 133.4 91.1128 133.704 90.6008 134.312C90.1048 134.92 89.8568 135.768 89.8568 136.856V143H86.7848V136.568C86.7848 135.544 86.5848 134.76 86.1848 134.216C85.7848 133.672 85.1688 133.4 84.3368 133.4C83.5208 133.4 82.8568 133.704 82.3448 134.312C81.8488 134.92 81.6008 135.768 81.6008 136.856V143H78.5288ZM100.505 148.28V131.096H103.241L103.577 132.8C103.961 132.272 104.465 131.808 105.089 131.408C105.729 131.008 106.553 130.808 107.561 130.808C108.681 130.808 109.681 131.08 110.561 131.624C111.441 132.168 112.137 132.912 112.649 133.856C113.161 134.8 113.417 135.872 113.417 137.072C113.417 138.272 113.161 139.344 112.649 140.288C112.137 141.216 111.441 141.952 110.561 142.496C109.681 143.024 108.681 143.288 107.561 143.288C106.665 143.288 105.881 143.12 105.209 142.784C104.537 142.448 103.993 141.976 103.577 141.368V148.28H100.505ZM106.913 140.6C107.889 140.6 108.697 140.272 109.337 139.616C109.977 138.96 110.297 138.112 110.297 137.072C110.297 136.032 109.977 135.176 109.337 134.504C108.697 133.832 107.889 133.496 106.913 133.496C105.921 133.496 105.105 133.832 104.465 134.504C103.841 135.16 103.529 136.008 103.529 137.048C103.529 138.088 103.841 138.944 104.465 139.616C105.105 140.272 105.921 140.6 106.913 140.6ZM115.662 143V125.72H118.734V143H115.662ZM127.157 143.288C125.957 143.288 124.893 143.032 123.965 142.52C123.037 142.008 122.309 141.288 121.781 140.36C121.253 139.432 120.989 138.36 120.989 137.144C120.989 135.912 121.245 134.816 121.757 133.856C122.285 132.896 123.005 132.152 123.917 131.624C124.845 131.08 125.933 130.808 127.181 130.808C128.349 130.808 129.381 131.064 130.277 131.576C131.173 132.088 131.869 132.792 132.365 133.688C132.877 134.568 133.133 135.552 133.133 136.64C133.133 136.816 133.125 137 133.109 137.192C133.109 137.384 133.101 137.584 133.085 137.792H124.037C124.101 138.72 124.421 139.448 124.997 139.976C125.589 140.504 126.301 140.768 127.133 140.768C127.757 140.768 128.277 140.632 128.693 140.36C129.125 140.072 129.445 139.704 129.653 139.256H132.773C132.549 140.008 132.173 140.696 131.645 141.32C131.133 141.928 130.493 142.408 129.725 142.76C128.973 143.112 128.117 143.288 127.157 143.288ZM127.181 133.304C126.429 133.304 125.765 133.52 125.189 133.952C124.613 134.368 124.245 135.008 124.085 135.872H130.013C129.965 135.088 129.677 134.464 129.149 134C128.621 133.536 127.965 133.304 127.181 133.304ZM145.739 143C144.491 143 143.491 142.696 142.739 142.088C141.987 141.48 141.611 140.4 141.611 138.848V133.664H139.571V131.096H141.611L141.971 127.904H144.683V131.096H147.899V133.664H144.683V138.872C144.683 139.448 144.803 139.848 145.043 140.072C145.299 140.28 145.731 140.384 146.339 140.384H147.827V143H145.739ZM155.516 143.288C154.316 143.288 153.252 143.032 152.324 142.52C151.396 142.008 150.668 141.288 150.14 140.36C149.612 139.432 149.348 138.36 149.348 137.144C149.348 135.912 149.604 134.816 150.116 133.856C150.644 132.896 151.364 132.152 152.276 131.624C153.204 131.08 154.292 130.808 155.54 130.808C156.708 130.808 157.74 131.064 158.636 131.576C159.532 132.088 160.228 132.792 160.724 133.688C161.236 134.568 161.492 135.552 161.492 136.64C161.492 136.816 161.484 137 161.468 137.192C161.468 137.384 161.46 137.584 161.444 137.792H152.396C152.46 138.72 152.78 139.448 153.356 139.976C153.948 140.504 154.66 140.768 155.492 140.768C156.116 140.768 156.636 140.632 157.052 140.36C157.484 140.072 157.804 139.704 158.012 139.256H161.132C160.908 140.008 160.532 140.696 160.004 141.32C159.492 141.928 158.852 142.408 158.084 142.76C157.332 143.112 156.476 143.288 155.516 143.288ZM155.54 133.304C154.788 133.304 154.124 133.52 153.548 133.952C152.972 134.368 152.604 135.008 152.444 135.872H158.372C158.324 135.088 158.036 134.464 157.508 134C156.98 133.536 156.324 133.304 155.54 133.304ZM161.627 143L165.947 137.048L161.627 131.096H164.915L167.939 135.32L170.939 131.096H174.251L169.907 137.048L174.251 143H170.939L167.939 138.776L164.915 143H161.627ZM181.012 143C179.764 143 178.764 142.696 178.012 142.088C177.26 141.48 176.884 140.4 176.884 138.848V133.664H174.844V131.096H176.884L177.244 127.904H179.956V131.096H183.172V133.664H179.956V138.872C179.956 139.448 180.076 139.848 180.316 140.072C180.572 140.28 181.004 140.384 181.612 140.384H183.1V143H181.012ZM93.3198 172.288C92.2638 172.288 91.3358 172.12 90.5358 171.784C89.7358 171.432 89.0958 170.952 88.6158 170.344C88.1358 169.736 87.8478 169.032 87.7518 168.232H90.8478C90.9438 168.696 91.1998 169.096 91.6158 169.432C92.0478 169.752 92.5998 169.912 93.2718 169.912C93.9438 169.912 94.4318 169.776 94.7358 169.504C95.0558 169.232 95.2158 168.92 95.2158 168.568C95.2158 168.056 94.9918 167.712 94.5438 167.536C94.0958 167.344 93.4718 167.16 92.6718 166.984C92.1598 166.872 91.6398 166.736 91.1118 166.576C90.5838 166.416 90.0958 166.216 89.6478 165.976C89.2158 165.72 88.8638 165.4 88.5918 165.016C88.3198 164.616 88.1838 164.128 88.1838 163.552C88.1838 162.496 88.5998 161.608 89.4318 160.888C90.2798 160.168 91.4638 159.808 92.9838 159.808C94.3918 159.808 95.5118 160.136 96.3438 160.792C97.1918 161.448 97.6958 162.352 97.8558 163.504H94.9518C94.7758 162.624 94.1118 162.184 92.9598 162.184C92.3838 162.184 91.9358 162.296 91.6158 162.52C91.3118 162.744 91.1598 163.024 91.1598 163.36C91.1598 163.712 91.3918 163.992 91.8558 164.2C92.3198 164.408 92.9358 164.6 93.7038 164.776C94.5358 164.968 95.2958 165.184 95.9838 165.424C96.6878 165.648 97.2478 165.992 97.6638 166.456C98.0798 166.904 98.2878 167.552 98.2878 168.4C98.3038 169.136 98.1118 169.8 97.7118 170.392C97.3118 170.984 96.7358 171.448 95.9838 171.784C95.2318 172.12 94.3438 172.288 93.3198 172.288ZM105.438 172C104.19 172 103.19 171.696 102.438 171.088C101.686 170.48 101.31 169.4 101.31 167.848V162.664H99.2702V160.096H101.31L101.67 156.904H104.382V160.096H107.598V162.664H104.382V167.872C104.382 168.448 104.502 168.848 104.742 169.072C104.998 169.28 105.43 169.384 106.038 169.384H107.526V172H105.438ZM111.224 177.28L113.984 171.208H113.264L108.632 160.096H111.968L115.304 168.472L118.784 160.096H122.048L114.488 177.28H111.224ZM123.556 172V154.72H126.628V172H123.556ZM135.051 172.288C133.851 172.288 132.787 172.032 131.859 171.52C130.931 171.008 130.203 170.288 129.675 169.36C129.147 168.432 128.883 167.36 128.883 166.144C128.883 164.912 129.139 163.816 129.651 162.856C130.179 161.896 130.899 161.152 131.811 160.624C132.739 160.08 133.827 159.808 135.075 159.808C136.243 159.808 137.275 160.064 138.171 160.576C139.067 161.088 139.763 161.792 140.259 162.688C140.771 163.568 141.027 164.552 141.027 165.64C141.027 165.816 141.019 166 141.003 166.192C141.003 166.384 140.995 166.584 140.979 166.792H131.931C131.995 167.72 132.315 168.448 132.891 168.976C133.483 169.504 134.195 169.768 135.027 169.768C135.651 169.768 136.171 169.632 136.587 169.36C137.019 169.072 137.339 168.704 137.547 168.256H140.667C140.443 169.008 140.067 169.696 139.539 170.32C139.027 170.928 138.387 171.408 137.619 171.76C136.867 172.112 136.011 172.288 135.051 172.288ZM135.075 162.304C134.323 162.304 133.659 162.52 133.083 162.952C132.507 163.368 132.139 164.008 131.979 164.872H137.907C137.859 164.088 137.571 163.464 137.043 163C136.515 162.536 135.859 162.304 135.075 162.304ZM148.031 172.288C146.975 172.288 146.047 172.12 145.247 171.784C144.447 171.432 143.807 170.952 143.327 170.344C142.847 169.736 142.559 169.032 142.463 168.232H145.559C145.655 168.696 145.911 169.096 146.327 169.432C146.759 169.752 147.311 169.912 147.983 169.912C148.655 169.912 149.143 169.776 149.447 169.504C149.767 169.232 149.927 168.92 149.927 168.568C149.927 168.056 149.703 167.712 149.255 167.536C148.807 167.344 148.183 167.16 147.383 166.984C146.871 166.872 146.351 166.736 145.823 166.576C145.295 166.416 144.807 166.216 144.359 165.976C143.927 165.72 143.575 165.4 143.303 165.016C143.031 164.616 142.895 164.128 142.895 163.552C142.895 162.496 143.311 161.608 144.143 160.888C144.991 160.168 146.175 159.808 147.695 159.808C149.103 159.808 150.223 160.136 151.055 160.792C151.903 161.448 152.407 162.352 152.567 163.504H149.663C149.487 162.624 148.823 162.184 147.671 162.184C147.095 162.184 146.647 162.296 146.327 162.52C146.023 162.744 145.871 163.024 145.871 163.36C145.871 163.712 146.103 163.992 146.567 164.2C147.031 164.408 147.647 164.6 148.415 164.776C149.247 164.968 150.007 165.184 150.695 165.424C151.399 165.648 151.959 165.992 152.375 166.456C152.791 166.904 152.999 167.552 152.999 168.4C153.015 169.136 152.823 169.8 152.423 170.392C152.023 170.984 151.447 171.448 150.695 171.784C149.943 172.12 149.055 172.288 148.031 172.288Z" fill="#FFB914"/>
<path d="M119.963 54.0001C115.817 54.0001 111.764 55.2004 108.317 57.4491C104.869 59.6977 102.182 62.8938 100.596 66.6331C99.0091 70.3724 98.5939 74.4871 99.4028 78.4567C100.212 82.4264 102.208 86.0727 105.14 88.9347C107.083 90.8504 109.395 92.3723 111.942 93.4132C114.49 94.4541 117.223 94.9933 119.985 94.9999C122.746 95.0066 125.482 94.4805 128.035 93.4519C130.588 92.4233 132.907 90.9124 134.86 89.0061C136.813 87.0998 138.36 84.8357 139.414 82.3438C140.468 79.8518 141.007 77.1812 141 74.4853C140.993 71.7894 140.441 69.1214 139.374 66.6345C138.308 64.1477 136.749 61.891 134.787 59.9941C132.845 58.0878 130.535 56.5765 127.99 55.5476C125.446 54.5188 122.717 53.9928 119.963 54.0001ZM101.994 74.4644C101.994 64.7923 110.055 56.9236 119.963 56.9236V92.0053C110.055 92.0053 101.994 84.1366 101.994 74.4644Z" fill="#FFB914"/>
<circle opacity="0.5" cx="120" cy="74" r="19" fill="#FFB914"/>
</svg>
