<svg width="240" height="240" viewBox="0 0 240 240" fill="none" xmlns="http://www.w3.org/2000/svg">
<rect width="240" height="240" rx="120" fill="#DEF4F0"/>
<path d="M96.6384 143.288C94.9424 143.288 93.4864 142.928 92.2704 142.208C91.0544 141.472 90.1184 140.456 89.4624 139.16C88.8064 137.848 88.4784 136.336 88.4784 134.624C88.4784 132.912 88.8064 131.4 89.4624 130.088C90.1184 128.776 91.0544 127.752 92.2704 127.016C93.4864 126.28 94.9424 125.912 96.6384 125.912C98.6544 125.912 100.302 126.416 101.582 127.424C102.878 128.416 103.686 129.816 104.006 131.624H100.622C100.414 130.712 99.9664 130 99.2784 129.488C98.6064 128.96 97.7104 128.696 96.5904 128.696C95.0384 128.696 93.8224 129.224 92.9424 130.28C92.0624 131.336 91.6224 132.784 91.6224 134.624C91.6224 136.464 92.0624 137.912 92.9424 138.968C93.8224 140.008 95.0384 140.528 96.5904 140.528C97.7104 140.528 98.6064 140.288 99.2784 139.808C99.9664 139.312 100.414 138.632 100.622 137.768H104.006C103.686 139.496 102.878 140.848 101.582 141.824C100.302 142.8 98.6544 143.288 96.6384 143.288ZM106.154 143V125.72H109.226V143H106.154ZM117.649 143.288C116.449 143.288 115.385 143.032 114.457 142.52C113.529 142.008 112.801 141.288 112.273 140.36C111.745 139.432 111.481 138.36 111.481 137.144C111.481 135.912 111.737 134.816 112.249 133.856C112.777 132.896 113.497 132.152 114.409 131.624C115.337 131.08 116.425 130.808 117.673 130.808C118.841 130.808 119.873 131.064 120.769 131.576C121.665 132.088 122.361 132.792 122.857 133.688C123.369 134.568 123.625 135.552 123.625 136.64C123.625 136.816 123.617 137 123.601 137.192C123.601 137.384 123.593 137.584 123.577 137.792H114.529C114.593 138.72 114.913 139.448 115.489 139.976C116.081 140.504 116.793 140.768 117.625 140.768C118.249 140.768 118.769 140.632 119.185 140.36C119.617 140.072 119.937 139.704 120.145 139.256H123.265C123.041 140.008 122.665 140.696 122.137 141.32C121.625 141.928 120.985 142.408 120.217 142.76C119.465 143.112 118.609 143.288 117.649 143.288ZM117.673 133.304C116.921 133.304 116.257 133.52 115.681 133.952C115.105 134.368 114.737 135.008 114.577 135.872H120.505C120.457 135.088 120.169 134.464 119.641 134C119.113 133.536 118.457 133.304 117.673 133.304ZM129.812 143.288C128.788 143.288 127.948 143.128 127.292 142.808C126.636 142.472 126.148 142.032 125.828 141.488C125.508 140.944 125.348 140.344 125.348 139.688C125.348 138.584 125.78 137.688 126.644 137C127.508 136.312 128.804 135.968 130.532 135.968H133.556V135.68C133.556 134.864 133.324 134.264 132.86 133.88C132.396 133.496 131.82 133.304 131.132 133.304C130.508 133.304 129.964 133.456 129.5 133.76C129.036 134.048 128.748 134.48 128.636 135.056H125.636C125.716 134.192 126.004 133.44 126.5 132.8C127.012 132.16 127.668 131.672 128.468 131.336C129.268 130.984 130.164 130.808 131.156 130.808C132.852 130.808 134.188 131.232 135.164 132.08C136.14 132.928 136.628 134.128 136.628 135.68V143H134.012L133.724 141.08C133.372 141.72 132.876 142.248 132.236 142.664C131.612 143.08 130.804 143.288 129.812 143.288ZM130.508 140.888C131.388 140.888 132.068 140.6 132.548 140.024C133.044 139.448 133.356 138.736 133.484 137.888H130.868C130.052 137.888 129.468 138.04 129.116 138.344C128.764 138.632 128.588 138.992 128.588 139.424C128.588 139.888 128.764 140.248 129.116 140.504C129.468 140.76 129.932 140.888 130.508 140.888ZM139.06 143V131.096H141.772L142.012 133.112C142.38 132.408 142.908 131.848 143.596 131.432C144.3 131.016 145.124 130.808 146.068 130.808C147.54 130.808 148.684 131.272 149.5 132.2C150.316 133.128 150.724 134.488 150.724 136.28V143H147.652V136.568C147.652 135.544 147.444 134.76 147.028 134.216C146.612 133.672 145.964 133.4 145.084 133.4C144.22 133.4 143.508 133.704 142.948 134.312C142.404 134.92 142.132 135.768 142.132 136.856V143H139.06ZM61.0671 172C59.8191 172 58.8191 171.696 58.0671 171.088C57.3151 170.48 56.9391 169.4 56.9391 167.848V162.664H54.8991V160.096H56.9391L57.2991 156.904H60.0111V160.096H63.2271V162.664H60.0111V167.872C60.0111 168.448 60.1311 168.848 60.3711 169.072C60.6271 169.28 61.0591 169.384 61.6671 169.384H63.1551V172H61.0671ZM66.8527 177.28L69.6127 171.208H68.8927L64.2607 160.096H67.5967L70.9327 168.472L74.4127 160.096H77.6767L70.1167 177.28H66.8527ZM79.185 177.28V160.096H81.921L82.257 161.8C82.641 161.272 83.145 160.808 83.769 160.408C84.409 160.008 85.233 159.808 86.241 159.808C87.361 159.808 88.361 160.08 89.241 160.624C90.121 161.168 90.817 161.912 91.329 162.856C91.841 163.8 92.097 164.872 92.097 166.072C92.097 167.272 91.841 168.344 91.329 169.288C90.817 170.216 90.121 170.952 89.241 171.496C88.361 172.024 87.361 172.288 86.241 172.288C85.345 172.288 84.561 172.12 83.889 171.784C83.217 171.448 82.673 170.976 82.257 170.368V177.28H79.185ZM85.593 169.6C86.569 169.6 87.377 169.272 88.017 168.616C88.657 167.96 88.977 167.112 88.977 166.072C88.977 165.032 88.657 164.176 88.017 163.504C87.377 162.832 86.569 162.496 85.593 162.496C84.601 162.496 83.785 162.832 83.145 163.504C82.521 164.16 82.209 165.008 82.209 166.048C82.209 167.088 82.521 167.944 83.145 168.616C83.785 169.272 84.601 169.6 85.593 169.6ZM100.053 172.288C98.9013 172.288 97.8613 172.024 96.9333 171.496C96.0213 170.968 95.2933 170.24 94.7493 169.312C94.2213 168.368 93.9573 167.28 93.9573 166.048C93.9573 164.816 94.2293 163.736 94.7733 162.808C95.3173 161.864 96.0453 161.128 96.9573 160.6C97.8853 160.072 98.9253 159.808 100.077 159.808C101.213 159.808 102.237 160.072 103.149 160.6C104.077 161.128 104.805 161.864 105.333 162.808C105.877 163.736 106.149 164.816 106.149 166.048C106.149 167.28 105.877 168.368 105.333 169.312C104.805 170.24 104.077 170.968 103.149 171.496C102.221 172.024 101.189 172.288 100.053 172.288ZM100.053 169.624C100.853 169.624 101.549 169.328 102.141 168.736C102.733 168.128 103.029 167.232 103.029 166.048C103.029 164.864 102.733 163.976 102.141 163.384C101.549 162.776 100.861 162.472 100.077 162.472C99.2613 162.472 98.5573 162.776 97.9653 163.384C97.3893 163.976 97.1013 164.864 97.1013 166.048C97.1013 167.232 97.3893 168.128 97.9653 168.736C98.5573 169.328 99.2533 169.624 100.053 169.624ZM112.686 168.448C112.11 168.448 111.574 168.384 111.078 168.256L110.19 169.144C110.462 169.288 110.83 169.408 111.294 169.504C111.758 169.6 112.51 169.696 113.55 169.792C115.134 169.936 116.286 170.312 117.006 170.92C117.726 171.528 118.086 172.368 118.086 173.44C118.086 174.144 117.894 174.808 117.51 175.432C117.126 176.072 116.534 176.584 115.734 176.968C114.934 177.368 113.91 177.568 112.662 177.568C110.966 177.568 109.598 177.248 108.558 176.608C107.518 175.984 106.998 175.04 106.998 173.776C106.998 172.704 107.518 171.776 108.558 170.992C108.238 170.848 107.958 170.696 107.718 170.536C107.494 170.376 107.294 170.208 107.118 170.032V169.48L109.206 167.272C108.278 166.456 107.814 165.408 107.814 164.128C107.814 163.328 108.006 162.6 108.39 161.944C108.79 161.288 109.35 160.768 110.07 160.384C110.79 160 111.662 159.808 112.686 159.808C113.358 159.808 113.982 159.904 114.558 160.096H119.07V161.968L117.03 162.112C117.35 162.72 117.51 163.392 117.51 164.128C117.51 164.928 117.318 165.656 116.934 166.312C116.55 166.968 115.99 167.488 115.254 167.872C114.534 168.256 113.678 168.448 112.686 168.448ZM112.686 166.096C113.31 166.096 113.822 165.928 114.222 165.592C114.638 165.256 114.846 164.776 114.846 164.152C114.846 163.528 114.638 163.048 114.222 162.712C113.822 162.376 113.31 162.208 112.686 162.208C112.03 162.208 111.502 162.376 111.102 162.712C110.702 163.048 110.502 163.528 110.502 164.152C110.502 164.776 110.702 165.256 111.102 165.592C111.502 165.928 112.03 166.096 112.686 166.096ZM109.806 173.464C109.806 174.056 110.078 174.496 110.622 174.784C111.182 175.088 111.862 175.24 112.662 175.24C113.43 175.24 114.054 175.08 114.534 174.76C115.014 174.456 115.254 174.04 115.254 173.512C115.254 173.08 115.094 172.72 114.774 172.432C114.47 172.144 113.854 171.968 112.926 171.904C112.27 171.856 111.662 171.784 111.102 171.688C110.638 171.944 110.302 172.224 110.094 172.528C109.902 172.832 109.806 173.144 109.806 173.464ZM120.81 172V160.096H123.546L123.834 162.328C124.266 161.56 124.85 160.952 125.586 160.504C126.338 160.04 127.218 159.808 128.226 159.808V163.048H127.362C126.69 163.048 126.09 163.152 125.562 163.36C125.034 163.568 124.618 163.928 124.314 164.44C124.026 164.952 123.882 165.664 123.882 166.576V172H120.81ZM133.93 172.288C132.906 172.288 132.066 172.128 131.41 171.808C130.754 171.472 130.266 171.032 129.946 170.488C129.626 169.944 129.466 169.344 129.466 168.688C129.466 167.584 129.898 166.688 130.762 166C131.626 165.312 132.922 164.968 134.65 164.968H137.674V164.68C137.674 163.864 137.442 163.264 136.978 162.88C136.514 162.496 135.938 162.304 135.25 162.304C134.626 162.304 134.082 162.456 133.618 162.76C133.154 163.048 132.866 163.48 132.754 164.056H129.754C129.834 163.192 130.122 162.44 130.618 161.8C131.13 161.16 131.786 160.672 132.586 160.336C133.386 159.984 134.282 159.808 135.274 159.808C136.97 159.808 138.306 160.232 139.282 161.08C140.258 161.928 140.746 163.128 140.746 164.68V172H138.13L137.842 170.08C137.49 170.72 136.994 171.248 136.354 171.664C135.73 172.08 134.922 172.288 133.93 172.288ZM134.626 169.888C135.506 169.888 136.186 169.6 136.666 169.024C137.162 168.448 137.474 167.736 137.602 166.888H134.986C134.17 166.888 133.586 167.04 133.234 167.344C132.882 167.632 132.706 167.992 132.706 168.424C132.706 168.888 132.882 169.248 133.234 169.504C133.586 169.76 134.05 169.888 134.626 169.888ZM143.177 177.28V160.096H145.913L146.249 161.8C146.633 161.272 147.137 160.808 147.761 160.408C148.401 160.008 149.225 159.808 150.233 159.808C151.353 159.808 152.353 160.08 153.233 160.624C154.113 161.168 154.809 161.912 155.321 162.856C155.833 163.8 156.089 164.872 156.089 166.072C156.089 167.272 155.833 168.344 155.321 169.288C154.809 170.216 154.113 170.952 153.233 171.496C152.353 172.024 151.353 172.288 150.233 172.288C149.337 172.288 148.553 172.12 147.881 171.784C147.209 171.448 146.665 170.976 146.249 170.368V177.28H143.177ZM149.585 169.6C150.561 169.6 151.369 169.272 152.009 168.616C152.649 167.96 152.969 167.112 152.969 166.072C152.969 165.032 152.649 164.176 152.009 163.504C151.369 162.832 150.561 162.496 149.585 162.496C148.593 162.496 147.777 162.832 147.137 163.504C146.513 164.16 146.201 165.008 146.201 166.048C146.201 167.088 146.513 167.944 147.137 168.616C147.777 169.272 148.593 169.6 149.585 169.6ZM158.333 172V154.72H161.405V161.92C161.805 161.264 162.341 160.752 163.013 160.384C163.701 160 164.485 159.808 165.365 159.808C166.837 159.808 167.973 160.272 168.773 161.2C169.589 162.128 169.997 163.488 169.997 165.28V172H166.949V165.568C166.949 164.544 166.741 163.76 166.325 163.216C165.925 162.672 165.285 162.4 164.405 162.4C163.541 162.4 162.821 162.704 162.245 163.312C161.685 163.92 161.405 164.768 161.405 165.856V172H158.333ZM173.525 177.28L176.285 171.208H175.565L170.933 160.096H174.269L177.605 168.472L181.085 160.096H184.349L176.789 177.28H173.525Z" fill="#29E1C0"/>
<path fill-rule="evenodd" clip-rule="evenodd" d="M90.4492 91.5L107.749 55.6L125.049 91.5H120.149L115.749 82.2H99.7492L95.3492 91.5H90.4492ZM107.749 65.3L101.749 78H113.749L107.749 65.3Z" fill="#29E1C0"/>
<path opacity="0.3" fill-rule="evenodd" clip-rule="evenodd" d="M143.35 89V91.5H147.65V66.5H143.35V69C141.25 67.1 138.45 66.1 135.4 66.1C128.05 66.1 122.65 71.75 122.65 79C122.65 86.25 128.05 91.9 135.4 91.9C138.45 91.9 141.25 90.9 143.35 89ZM143.349 83.8C141.899 86.15 139.099 87.85 135.499 87.85C130.599 87.85 127.099 83.95 127.099 79C127.099 74.05 130.599 70.15 135.499 70.15C139.099 70.15 141.899 71.85 143.349 74.2V83.8Z" fill="#29E1C0"/>
</svg>
