<svg width="25" height="25" viewBox="0 0 25 25" fill="none" xmlns="http://www.w3.org/2000/svg">
<rect y="-0.000976562" width="25" height="24.9984" rx="5" fill="#44444C"/>
<path d="M9.72033 21.426C11.3632 21.426 12.6965 20.0927 12.6965 18.4498V15.4736H9.72033C8.07747 15.4736 6.74414 16.807 6.74414 18.4498C6.74414 20.0927 8.07747 21.426 9.72033 21.426Z" fill="#0ACF83"/>
<path d="M6.74414 12.4984C6.74414 10.8556 8.07747 9.52222 9.72033 9.52222H12.6965V15.4746H9.72033C8.07747 15.4746 6.74414 14.1413 6.74414 12.4984Z" fill="#A259FF"/>
<path d="M6.74414 6.5465C6.74414 4.90365 8.07747 3.57031 9.72033 3.57031H12.6965V9.52269H9.72033C8.07747 9.52269 6.74414 8.18936 6.74414 6.5465Z" fill="#F24E1E"/>
<path d="M12.6973 3.56982H15.6735C17.3163 3.56982 18.6496 4.90316 18.6496 6.54601C18.6496 8.18887 17.3163 9.5222 15.6735 9.5222H12.6973V3.56982Z" fill="#FF7262"/>
<path d="M18.6496 12.4982C18.6496 14.141 17.3163 15.4744 15.6735 15.4744C14.0306 15.4744 12.6973 14.141 12.6973 12.4982C12.6973 10.8553 14.0306 9.52197 15.6735 9.52197C17.3163 9.52197 18.6496 10.8553 18.6496 12.4982Z" fill="#1ABCFE"/>
</svg>
