<svg width="28" height="25" viewBox="0 0 28 25" fill="none" xmlns="http://www.w3.org/2000/svg">
<path d="M13.8132 -0.000976562L6.02761 0.822149L0 8.91313L13.8132 24.9973L27.6263 8.91302L21.5988 0.822149L13.8132 -0.000976562Z" fill="#FDB300"/>
<path d="M0 8.91382L13.8132 24.998L5.59497 8.91382H0Z" fill="#EB6C00"/>
<path d="M22.0306 8.91406L13.8125 24.9982L27.6257 8.91406H22.0306Z" fill="#EB6C00"/>
<path d="M5.5957 8.91406L13.8139 24.9982L22.0321 8.91406H5.5957Z" fill="#FDAD00"/>
<path d="M6.02844 0.822201L5.5957 8.91369L13.814 -0.000976562L6.02844 0.822201Z" fill="#FDD231"/>
<path d="M22.0306 8.91369L21.598 0.822201L13.8125 -0.000976562L22.0306 8.91369Z" fill="#FDD231"/>
<path d="M22.0302 8.91375H27.6252L21.5977 0.822266L22.0302 8.91375Z" fill="#FDAD00"/>
<path d="M0 8.91351H5.59497L6.02761 0.822021L0 8.91351Z" fill="#FDAD00"/>
<path d="M13.8139 -0.000976562L5.5957 8.91358H22.0321L13.8139 -0.000976562Z" fill="#FEEEB7"/>
</svg>
